M48
; DRILL file {KiCad 7.0.10} date Sun 11 Feb 2024 14:37:54
; FORMAT={-:-/ absolute / inch / decimal}
; #@! TF.CreationDate,2024-02-11T14:37:54+13:00
; #@! TF.GenerationSoftware,Kicad,Pcbnew,7.0.10
; #@! TF.FileFunction,Plated,1,2,PTH
FMAT,2
INCH
; #@! TA.AperFunction,Plated,PTH,ViaDrill
T1C0.0157
; #@! TA.AperFunction,Plated,PTH,ComponentDrill
T2C0.0300
; #@! TA.AperFunction,Plated,PTH,ComponentDrill
T3C0.0315
; #@! TA.AperFunction,Plated,PTH,ComponentDrill
T4C0.0394
; #@! TA.AperFunction,Plated,PTH,ComponentDrill
T5C0.0400
%
G90
G05
T1
X1.9105Y-2.8096
X2.1222Y-3.2599
X2.3511Y-2.3091
X2.4395Y-3.932
X2.4533Y-2.7049
X2.5035Y-3.6279
X2.5504Y-4.5555
X2.624Y-4.4271
X2.8756Y-4.3879
X2.9689Y-3.7603
X2.9906Y-3.7943
X3.1144Y-4.6676
X3.1732Y-4.6457
X3.4236Y-2.8769
X3.478Y-2.7614
X7.0346Y-1.492
T2
X1.3Y-1.9
X1.3Y-2.5
X1.4Y-1.9
X1.4Y-2.5
X1.4Y-5.0
X1.4Y-5.6
X1.5Y-1.9
X1.5Y-2.5
X1.5Y-5.0
X1.5Y-5.6
X1.6Y-1.9
X1.6Y-2.5
X1.6Y-5.0
X1.6Y-5.6
X1.7Y-1.9
X1.7Y-2.5
X1.7Y-5.0
X1.7Y-5.6
X1.8Y-1.9
X1.8Y-2.5
X1.8Y-5.0
X1.8Y-5.6
X1.9Y-1.9
X1.9Y-2.5
X1.9Y-5.0
X1.9Y-5.6
X2.0Y-1.9
X2.0Y-2.5
X2.0Y-5.0
X2.0Y-5.6
X2.1Y-1.9
X2.1Y-2.5
X2.1Y-5.0
X2.1Y-5.6
X2.2Y-1.9
X2.2Y-2.5
X2.2Y-5.0
X2.2Y-5.6
X2.3Y-1.9
X2.3Y-2.5
X2.3Y-5.0
X2.3Y-5.6
X2.4Y-1.9
X2.4Y-2.5
X2.4Y-5.0
X2.4Y-5.6
X2.5Y-1.9
X2.5Y-2.5
X2.5Y-5.0
X2.5Y-5.6
X2.6Y-1.9
X2.6Y-2.5
X2.6Y-5.0
X2.6Y-5.6
X2.7Y-1.9
X2.7Y-2.5
X2.7Y-5.0
X2.7Y-5.6
X2.8Y-1.9
X2.8Y-2.5
X2.8Y-5.0
X2.8Y-5.6
X2.9Y-1.9
X2.9Y-2.5
X2.9Y-5.0
X2.9Y-5.6
X3.0Y-1.9
X3.0Y-2.5
X3.0Y-5.0
X3.0Y-5.6
X3.1Y-1.9
X3.1Y-2.5
X3.1Y-5.0
X3.1Y-5.6
X3.2Y-1.9
X3.2Y-2.5
X3.2Y-5.0
X3.2Y-5.6
X3.3Y-5.0
X3.3Y-5.6
X3.95Y-4.05
X3.95Y-4.15
X3.95Y-4.25
X3.95Y-4.35
X3.95Y-4.45
X3.95Y-4.55
X3.95Y-4.65
X3.95Y-4.75
X3.95Y-4.85
X3.95Y-4.95
X3.95Y-5.05
X3.95Y-5.15
X3.95Y-5.25
X3.95Y-5.35
X3.95Y-5.45
X3.95Y-5.55
X3.95Y-5.65
X3.95Y-5.75
X3.95Y-5.85
X3.95Y-5.95
X4.55Y-4.05
X4.55Y-4.15
X4.55Y-4.25
X4.55Y-4.35
X4.55Y-4.45
X4.55Y-4.55
X4.55Y-4.65
X4.55Y-4.75
X4.55Y-4.85
X4.55Y-4.95
X4.55Y-5.05
X4.55Y-5.15
X4.55Y-5.25
X4.55Y-5.35
X4.55Y-5.45
X4.55Y-5.55
X4.55Y-5.65
X4.55Y-5.75
X4.55Y-5.85
X4.55Y-5.95
T3
X1.1Y-2.0524
X1.1Y-2.3476
X1.1Y-2.6631
X1.2Y-3.0524
X1.2Y-3.3476
X1.3Y-1.5
X1.3Y-6.1
X1.3789Y-4.153
X1.3789Y-4.4482
X1.4Y-6.1
X1.4004Y-2.8992
X1.4004Y-3.4992
X1.5Y-2.6631
X1.5Y-6.1
X1.5004Y-2.8992
X1.5004Y-3.4992
X1.6Y-6.1
X1.6004Y-2.8992
X1.6004Y-3.4992
X1.6004Y-3.9992
X1.6004Y-4.5992
X1.65Y-2.6632
X1.7Y-1.5
X1.7Y-6.1
X1.7004Y-2.8992
X1.7004Y-3.4992
X1.7004Y-3.9992
X1.7004Y-4.5992
X1.8Y-6.1
X1.8004Y-2.8992
X1.8004Y-3.4992
X1.8004Y-3.9992
X1.8004Y-4.5992
X1.9Y-6.1
X1.9004Y-2.8992
X1.9004Y-3.4992
X1.9004Y-3.9992
X1.9004Y-4.5992
X1.9516Y-1.3
X2.0Y-6.1
X2.0004Y-2.8992
X2.0004Y-3.4992
X2.0004Y-3.9992
X2.0004Y-4.5992
X2.05Y-1.3
X2.05Y-2.6632
X2.1Y-6.1
X2.1004Y-2.8992
X2.1004Y-3.4992
X2.1004Y-3.9992
X2.1004Y-4.5992
X2.2Y-6.1
X2.2004Y-2.8992
X2.2004Y-3.4992
X2.2004Y-3.9992
X2.2004Y-4.5992
X2.3Y-6.1
X2.3004Y-2.8992
X2.3004Y-3.4992
X2.3004Y-3.9992
X2.3004Y-4.5992
X2.3801Y-1.1053
X2.3801Y-1.2824
X2.4Y-6.1
X2.4004Y-2.8992
X2.4004Y-3.4992
X2.4004Y-3.9992
X2.4004Y-4.5992
X2.5Y-6.1
X2.5004Y-2.8992
X2.5004Y-3.4992
X2.5004Y-3.9992
X2.5004Y-4.5992
X2.6Y-6.1
X2.6004Y-2.8992
X2.6004Y-3.4992
X2.6004Y-3.9992
X2.6004Y-4.5992
X2.636Y-1.1053
X2.636Y-1.2824
X2.7Y-6.1
X2.7004Y-2.8992
X2.7004Y-3.4992
X2.7004Y-3.9992
X2.7004Y-4.5992
X2.8Y-6.1
X2.8004Y-3.9992
X2.8004Y-4.5992
X2.9Y-6.1
X2.9004Y-3.9992
X2.9004Y-4.5992
X3.0Y-6.1
X3.1Y-1.15
X3.1Y-1.45
X3.1Y-6.1
X3.2Y-6.1
X3.5Y-5.1524
X3.5Y-5.4476
X3.6998Y-1.952
X3.6998Y-2.2472
X3.7Y-1.15
X3.7Y-1.45
X3.7Y-2.5024
X3.7Y-2.7976
X3.7Y-3.0524
X3.7Y-3.3476
X3.8998Y-1.9496
X3.8998Y-2.2496
X3.8998Y-2.4996
X3.8998Y-2.7996
X3.8998Y-3.0496
X3.8998Y-3.3496
X3.9998Y-1.9496
X3.9998Y-2.2496
X3.9998Y-2.4996
X3.9998Y-2.7996
X3.9998Y-3.0496
X3.9998Y-3.3496
X4.0Y-6.8
X4.0Y-7.0
X4.0998Y-1.9496
X4.0998Y-2.2496
X4.0998Y-2.4996
X4.0998Y-2.7996
X4.0998Y-3.0496
X4.0998Y-3.3496
X4.1047Y-3.8
X4.1998Y-1.9496
X4.1998Y-2.2496
X4.1998Y-2.4996
X4.1998Y-2.7996
X4.1998Y-3.0496
X4.1998Y-3.3496
X4.2998Y-1.9496
X4.2998Y-2.2496
X4.2998Y-2.4996
X4.2998Y-2.7996
X4.2998Y-3.0496
X4.2998Y-3.3496
X4.3998Y-1.9496
X4.3998Y-2.2496
X4.3998Y-2.4996
X4.3998Y-2.7996
X4.3998Y-3.0496
X4.3998Y-3.3496
X4.4Y-3.8
X4.4Y-6.8
X4.4Y-7.0
X4.4998Y-1.9496
X4.4998Y-2.2496
X4.4998Y-2.4996
X4.4998Y-2.7996
X4.4998Y-3.0496
X4.4998Y-3.3496
X5.05Y-1.9955
X5.05Y-2.3955
X5.05Y-2.55
X5.05Y-3.15
X5.05Y-3.2955
X5.05Y-3.6955
X5.1Y-1.1455
X5.1Y-1.2455
X5.1Y-1.3455
X5.1Y-1.4455
X5.1Y-1.5455
X5.1Y-1.6455
X5.1Y-1.7455
X5.1Y-1.8455
X5.1024Y-0.9955
X5.15Y-1.9955
X5.15Y-2.3955
X5.15Y-2.55
X5.15Y-3.15
X5.15Y-3.2955
X5.15Y-3.6955
X5.25Y-2.55
X5.25Y-3.15
X5.35Y-1.9955
X5.35Y-2.3955
X5.35Y-2.55
X5.35Y-3.15
X5.35Y-3.2955
X5.35Y-3.6955
X5.3976Y-0.9955
X5.4Y-1.1455
X5.4Y-1.2455
X5.4Y-1.3455
X5.4Y-1.4455
X5.4Y-1.5455
X5.4Y-1.6455
X5.4Y-1.7455
X5.4Y-1.8455
X5.45Y-1.9955
X5.45Y-2.3955
X5.45Y-2.55
X5.45Y-3.15
X5.45Y-3.2955
X5.45Y-3.6955
X5.65Y-1.9955
X5.65Y-2.3955
X5.65Y-2.55
X5.65Y-3.15
X5.65Y-3.3022
X5.65Y-3.7022
X5.7Y-1.1455
X5.7Y-1.2455
X5.7Y-1.3455
X5.7Y-1.4455
X5.7Y-1.5455
X5.7Y-1.6455
X5.7Y-1.7455
X5.7Y-1.8455
X5.7024Y-0.9955
X5.75Y-1.9955
X5.75Y-2.3955
X5.75Y-2.55
X5.75Y-3.15
X5.75Y-3.2988
X5.75Y-3.6988
X5.85Y-2.55
X5.85Y-3.15
X5.95Y-1.9955
X5.95Y-2.3955
X5.95Y-2.55
X5.95Y-3.15
X5.95Y-3.2955
X5.95Y-3.6955
X5.9976Y-0.9955
X6.0Y-1.1455
X6.0Y-1.2455
X6.0Y-1.3455
X6.0Y-1.4455
X6.0Y-1.5455
X6.0Y-1.6455
X6.0Y-1.7455
X6.0Y-1.8455
X6.05Y-1.9955
X6.05Y-2.3955
X6.05Y-2.55
X6.05Y-3.15
X6.05Y-3.2955
X6.05Y-3.6955
X6.25Y-1.9955
X6.25Y-2.3955
X6.25Y-2.55
X6.25Y-3.15
X6.25Y-3.2955
X6.25Y-3.6955
X6.3Y-1.1455
X6.3Y-1.2455
X6.3Y-1.3455
X6.3Y-1.4455
X6.3Y-1.5455
X6.3Y-1.6455
X6.3Y-1.7455
X6.3Y-1.8455
X6.3024Y-0.9955
X6.35Y-1.9955
X6.35Y-2.3955
X6.35Y-2.55
X6.35Y-3.15
X6.35Y-3.2955
X6.35Y-3.6955
X6.45Y-2.55
X6.45Y-3.15
X6.55Y-1.9955
X6.55Y-2.3955
X6.55Y-2.55
X6.55Y-3.15
X6.55Y-3.2955
X6.55Y-3.6955
X6.5976Y-0.9955
X6.6Y-1.1455
X6.6Y-1.2455
X6.6Y-1.3455
X6.6Y-1.4455
X6.6Y-1.5455
X6.6Y-1.6455
X6.6Y-1.7455
X6.6Y-1.8455
X6.65Y-1.9955
X6.65Y-2.3955
X6.65Y-2.55
X6.65Y-3.15
X6.65Y-3.2955
X6.65Y-3.6955
X6.85Y-1.9955
X6.85Y-2.3955
X6.85Y-2.55
X6.85Y-3.15
X6.85Y-3.2955
X6.85Y-3.6955
X6.9Y-1.1455
X6.9Y-1.2455
X6.9Y-1.3455
X6.9Y-1.4455
X6.9Y-1.5455
X6.9Y-1.6455
X6.9Y-1.7455
X6.9Y-1.8455
X6.9024Y-0.9955
X6.95Y-1.9955
X6.95Y-2.3955
X6.95Y-2.55
X6.95Y-3.15
X6.95Y-3.2955
X6.95Y-3.6955
X7.05Y-2.55
X7.05Y-3.15
X7.15Y-1.9955
X7.15Y-2.3955
X7.15Y-2.55
X7.15Y-3.15
X7.15Y-3.2955
X7.15Y-3.6955
X7.1976Y-0.9955
X7.2Y-1.1455
X7.2Y-1.2455
X7.2Y-1.3455
X7.2Y-1.4455
X7.2Y-1.5455
X7.2Y-1.6455
X7.2Y-1.7455
X7.2Y-1.8455
X7.25Y-1.9955
X7.25Y-2.3955
X7.25Y-2.55
X7.25Y-3.15
X7.25Y-3.2955
X7.25Y-3.6955
X7.55Y-1.9955
X7.55Y-2.3955
X7.55Y-2.55
X7.55Y-3.15
X7.55Y-3.2955
X7.55Y-3.6955
X7.6Y-1.1455
X7.6Y-1.2455
X7.6Y-1.3455
X7.6Y-1.4455
X7.6Y-1.5455
X7.6Y-1.6455
X7.6Y-1.7455
X7.6Y-1.8455
X7.6024Y-0.9955
X7.65Y-2.55
X7.65Y-3.15
X7.65Y-3.2955
X7.65Y-3.6955
X7.6531Y-1.9955
X7.6531Y-2.3955
X7.75Y-2.55
X7.75Y-3.15
X7.85Y-1.9955
X7.85Y-2.3955
X7.85Y-2.55
X7.85Y-3.15
X7.85Y-3.2955
X7.85Y-3.6955
X7.8976Y-0.9955
X7.9Y-1.1455
X7.9Y-1.2455
X7.9Y-1.3455
X7.9Y-1.4455
X7.9Y-1.5455
X7.9Y-1.6455
X7.9Y-1.7455
X7.9Y-1.8455
X7.95Y-1.9955
X7.95Y-2.3955
X7.95Y-2.55
X7.95Y-3.15
X7.95Y-3.2955
X7.95Y-3.6955
X8.15Y-1.9955
X8.15Y-2.3955
X8.15Y-2.55
X8.15Y-3.15
X8.15Y-3.2955
X8.15Y-3.6955
X8.2Y-1.1455
X8.2Y-1.2455
X8.2Y-1.3455
X8.2Y-1.4455
X8.2Y-1.5455
X8.2Y-1.6455
X8.2Y-1.7455
X8.2Y-1.8455
X8.2024Y-0.9955
X8.2295Y-4.1813
X8.2295Y-4.5813
X8.2295Y-4.864
X8.2295Y-5.264
X8.2295Y-5.5193
X8.2295Y-5.9193
X8.2295Y-6.2193
X8.2295Y-6.6193
X8.2295Y-6.8846
X8.2295Y-7.2846
X8.25Y-1.9955
X8.25Y-2.3955
X8.25Y-2.55
X8.25Y-3.15
X8.25Y-3.2955
X8.25Y-3.6955
X8.35Y-2.55
X8.35Y-3.15
X8.45Y-1.9955
X8.45Y-2.3955
X8.45Y-2.55
X8.45Y-3.15
X8.45Y-3.2955
X8.45Y-3.6955
X8.4976Y-0.9955
X8.5Y-1.1455
X8.5Y-1.2455
X8.5Y-1.3455
X8.5Y-1.4455
X8.5Y-1.5455
X8.5Y-1.6455
X8.5Y-1.7455
X8.5Y-1.8455
X8.55Y-1.9955
X8.55Y-2.3955
X8.55Y-2.55
X8.55Y-3.15
X8.55Y-3.2955
X8.55Y-3.6955
T4
X5.4381Y-4.4996
X5.4381Y-5.1746
X5.4381Y-5.8496
X5.4381Y-6.5246
X5.4381Y-7.1996
X5.635Y-4.5823
X5.635Y-5.2573
X5.635Y-5.9323
X5.635Y-6.6073
X5.635Y-7.2823
X6.1531Y-4.4996
X6.1531Y-5.1746
X6.1531Y-5.8496
X6.1531Y-6.5246
X6.1531Y-7.1996
X6.35Y-4.5823
X6.35Y-5.2573
X6.35Y-5.9323
X6.35Y-6.6073
X6.35Y-7.2823
X6.8681Y-4.4996
X6.8681Y-5.1746
X6.8681Y-5.8496
X6.8681Y-6.5246
X6.8681Y-7.1996
X7.065Y-4.5823
X7.065Y-5.2573
X7.065Y-5.9323
X7.065Y-6.6073
X7.065Y-7.2823
X7.5831Y-4.4996
X7.5831Y-5.1746
X7.5831Y-5.8496
X7.5831Y-6.5246
X7.5831Y-7.1996
X7.78Y-4.5823
X7.78Y-5.2573
X7.78Y-5.9323
X7.78Y-6.6073
X7.78Y-7.2823
T5
X1.3993Y-1.1329
X1.4993Y-1.1329
X3.8516Y-6.4374
X3.9516Y-6.4374
X4.05Y-1.3
X4.0516Y-6.4374
X4.15Y-1.3
X4.1516Y-6.4374
X4.2516Y-6.4374
X4.3516Y-6.4374
X4.4516Y-6.4374
X4.5516Y-6.4374
X4.798Y-1.401
X4.798Y-1.501
X4.798Y-1.601
M30
