%TF.GenerationSoftware,KiCad,Pcbnew,7.0.5*%
%TF.CreationDate,2023-06-19T18:29:10+12:00*%
%TF.ProjectId,Alius_6502,416c6975-735f-4363-9530-322e6b696361,rev?*%
%TF.SameCoordinates,Original*%
%TF.FileFunction,Copper,L2,Bot*%
%TF.FilePolarity,Positive*%
%FSLAX46Y46*%
G04 Gerber Fmt 4.6, Leading zero omitted, Abs format (unit mm)*
G04 Created by KiCad (PCBNEW 7.0.5) date 2023-06-19 18:29:10*
%MOMM*%
%LPD*%
G01*
G04 APERTURE LIST*
%TA.AperFunction,ComponentPad*%
%ADD10O,1.500000X2.100000*%
%TD*%
%TA.AperFunction,ComponentPad*%
%ADD11R,1.600000X1.600000*%
%TD*%
%TA.AperFunction,ComponentPad*%
%ADD12C,1.600000*%
%TD*%
%TA.AperFunction,ComponentPad*%
%ADD13R,2.400000X1.600000*%
%TD*%
%TA.AperFunction,ComponentPad*%
%ADD14O,2.400000X1.600000*%
%TD*%
%TA.AperFunction,ComponentPad*%
%ADD15C,2.100000*%
%TD*%
%TA.AperFunction,ComponentPad*%
%ADD16R,1.600000X2.400000*%
%TD*%
%TA.AperFunction,ComponentPad*%
%ADD17O,1.600000X2.400000*%
%TD*%
%TA.AperFunction,ComponentPad*%
%ADD18O,2.100000X1.500000*%
%TD*%
%TA.AperFunction,ComponentPad*%
%ADD19R,1.778000X1.778000*%
%TD*%
%TA.AperFunction,ComponentPad*%
%ADD20C,1.778000*%
%TD*%
%TA.AperFunction,ComponentPad*%
%ADD21R,1.500000X2.100000*%
%TD*%
%TA.AperFunction,ComponentPad*%
%ADD22R,1.524000X3.048000*%
%TD*%
%TA.AperFunction,ComponentPad*%
%ADD23O,1.524000X3.048000*%
%TD*%
%TA.AperFunction,ComponentPad*%
%ADD24R,2.100000X2.100000*%
%TD*%
%TA.AperFunction,ComponentPad*%
%ADD25C,1.700000*%
%TD*%
%TA.AperFunction,ComponentPad*%
%ADD26R,3.048000X1.524000*%
%TD*%
%TA.AperFunction,ComponentPad*%
%ADD27O,3.048000X1.524000*%
%TD*%
%TA.AperFunction,ViaPad*%
%ADD28C,0.800000*%
%TD*%
%TA.AperFunction,Conductor*%
%ADD29C,0.250000*%
%TD*%
%TA.AperFunction,Conductor*%
%ADD30C,0.500000*%
%TD*%
G04 APERTURE END LIST*
D10*
%TO.P,C8,1*%
%TO.N,VCC*%
X30480000Y-76200000D03*
%TO.P,C8,2*%
%TO.N,GND*%
X30480000Y-86360000D03*
%TD*%
%TO.P,R44,1*%
%TO.N,Net-(R44-Pad1)*%
X214630000Y-50685000D03*
%TO.P,R44,2*%
%TO.N,Net-(LED6-Pad7)*%
X214630000Y-60845000D03*
%TD*%
%TO.P,R41,1*%
%TO.N,Net-(R41-Pad1)*%
X194390000Y-50685000D03*
%TO.P,R41,2*%
%TO.N,Net-(LED5-Pad9)*%
X194390000Y-60845000D03*
%TD*%
%TO.P,R14,1*%
%TO.N,Net-(R14-Pad1)*%
X151130000Y-93865000D03*
%TO.P,R14,2*%
%TO.N,Net-(LED2-Pad4)*%
X151130000Y-83705000D03*
%TD*%
%TO.P,R31,1*%
%TO.N,Net-(R31-Pad1)*%
X176530000Y-93865000D03*
%TO.P,R31,2*%
%TO.N,Net-(LED4-Pad2)*%
X176530000Y-83705000D03*
%TD*%
%TO.P,R27,1*%
%TO.N,Net-(R27-Pad1)*%
X168910000Y-93865000D03*
%TO.P,R27,2*%
%TO.N,Net-(LED3-Pad5)*%
X168910000Y-83705000D03*
%TD*%
D11*
%TO.P,C1,1*%
%TO.N,RESET*%
X52070000Y-33020000D03*
D12*
%TO.P,C1,2*%
%TO.N,GND*%
X49570000Y-33020000D03*
%TD*%
D13*
%TO.P,U14,1,QB*%
%TO.N,Net-(R45-Pad1)*%
X208280000Y-29095000D03*
D14*
%TO.P,U14,2,QC*%
%TO.N,Net-(R46-Pad1)*%
X208280000Y-31635000D03*
%TO.P,U14,3,QD*%
%TO.N,Net-(R47-Pad1)*%
X208280000Y-34175000D03*
%TO.P,U14,4,QE*%
%TO.N,Net-(R48-Pad1)*%
X208280000Y-36715000D03*
%TO.P,U14,5,QF*%
%TO.N,Net-(R49-Pad1)*%
X208280000Y-39255000D03*
%TO.P,U14,6,QG*%
%TO.N,Net-(R50-Pad1)*%
X208280000Y-41795000D03*
%TO.P,U14,7,QH*%
%TO.N,Net-(R51-Pad1)*%
X208280000Y-44335000D03*
%TO.P,U14,8,GND*%
%TO.N,GND*%
X208280000Y-46875000D03*
%TO.P,U14,9,QH'*%
%TO.N,unconnected-(U14-Pad9)*%
X215900000Y-46875000D03*
%TO.P,U14,10,~{SRCLR}*%
%TO.N,RESET*%
X215900000Y-44335000D03*
%TO.P,U14,11,SRCLK*%
%TO.N,SPI_CLK*%
X215900000Y-41795000D03*
%TO.P,U14,12,RCLK*%
%TO.N,7seg_CS*%
X215900000Y-39255000D03*
%TO.P,U14,13,~{OE}*%
%TO.N,7seg_OE*%
X215900000Y-36715000D03*
%TO.P,U14,14,SER*%
%TO.N,Net-(U13-Pad9)*%
X215900000Y-34175000D03*
%TO.P,U14,15,QA*%
%TO.N,Net-(R44-Pad1)*%
X215900000Y-31635000D03*
%TO.P,U14,16,VCC*%
%TO.N,VCC*%
X215900000Y-29095000D03*
%TD*%
D10*
%TO.P,R39,1*%
%TO.N,Net-(R39-Pad1)*%
X194310000Y-93865000D03*
%TO.P,R39,2*%
%TO.N,Net-(LED5-Pad2)*%
X194310000Y-83705000D03*
%TD*%
D15*
%TO.P,SW_C1,1,1*%
%TO.N,KeyRow5*%
X143129000Y-116390000D03*
%TO.P,SW_C1,2,2*%
%TO.N,KeyCol1*%
X138129000Y-114290000D03*
%TD*%
D16*
%TO.P,74HC02,1,1Y*%
%TO.N,ROM_CS*%
X99055000Y-57140000D03*
D17*
%TO.P,74HC02,2,1A*%
%TO.N,/A14*%
X101595000Y-57140000D03*
%TO.P,74HC02,3,1B*%
%TO.N,/A13*%
X104135000Y-57140000D03*
%TO.P,74HC02,4,2Y*%
%TO.N,unconnected-(U3-Pad4)*%
X106675000Y-57140000D03*
%TO.P,74HC02,5,2A*%
%TO.N,VCC*%
X109215000Y-57140000D03*
%TO.P,74HC02,6,2B*%
X111755000Y-57140000D03*
%TO.P,74HC02,7,GND*%
%TO.N,GND*%
X114295000Y-57140000D03*
%TO.P,74HC02,8,3A*%
%TO.N,VCC*%
X114295000Y-49520000D03*
%TO.P,74HC02,9,3B*%
X111755000Y-49520000D03*
%TO.P,74HC02,10,3Y*%
%TO.N,unconnected-(U3-Pad10)*%
X109215000Y-49520000D03*
%TO.P,74HC02,11,4A*%
%TO.N,VCC*%
X106675000Y-49520000D03*
%TO.P,74HC02,12,4B*%
X104135000Y-49520000D03*
%TO.P,74HC02,13,4Y*%
%TO.N,unconnected-(U3-Pad13)*%
X101595000Y-49520000D03*
%TO.P,74HC02,14,VCC*%
%TO.N,VCC*%
X99055000Y-49520000D03*
%TD*%
D10*
%TO.P,R54,1*%
%TO.N,KeyRow3*%
X209029000Y-140190000D03*
%TO.P,R54,2*%
%TO.N,GND*%
X209029000Y-150350000D03*
%TD*%
D15*
%TO.P,SW_4,1,1*%
%TO.N,KeyRow3*%
X143129000Y-150680000D03*
%TO.P,SW_4,2,2*%
%TO.N,KeyCol1*%
X138129000Y-148580000D03*
%TD*%
D10*
%TO.P,R4,1*%
%TO.N,Net-(R4-Pad1)*%
X135890000Y-50685000D03*
%TO.P,R4,2*%
%TO.N,Net-(LED1-Pad7)*%
X135890000Y-60845000D03*
%TD*%
%TO.P,R34,1*%
%TO.N,Net-(R34-Pad1)*%
X173990000Y-50685000D03*
%TO.P,R34,2*%
%TO.N,Net-(LED4-Pad10)*%
X173990000Y-60845000D03*
%TD*%
%TO.P,R46,1*%
%TO.N,Net-(R46-Pad1)*%
X214630000Y-93865000D03*
%TO.P,R46,2*%
%TO.N,Net-(LED6-Pad4)*%
X214630000Y-83705000D03*
%TD*%
%TO.P,R28,1*%
%TO.N,Net-(R28-Pad1)*%
X181610000Y-50685000D03*
%TO.P,R28,2*%
%TO.N,Net-(LED4-Pad7)*%
X181610000Y-60845000D03*
%TD*%
D13*
%TO.P,U13,1,QB*%
%TO.N,Net-(R37-Pad1)*%
X193040000Y-29095000D03*
D14*
%TO.P,U13,2,QC*%
%TO.N,Net-(R38-Pad1)*%
X193040000Y-31635000D03*
%TO.P,U13,3,QD*%
%TO.N,Net-(R39-Pad1)*%
X193040000Y-34175000D03*
%TO.P,U13,4,QE*%
%TO.N,Net-(R40-Pad1)*%
X193040000Y-36715000D03*
%TO.P,U13,5,QF*%
%TO.N,Net-(R41-Pad1)*%
X193040000Y-39255000D03*
%TO.P,U13,6,QG*%
%TO.N,Net-(R42-Pad1)*%
X193040000Y-41795000D03*
%TO.P,U13,7,QH*%
%TO.N,Net-(R43-Pad1)*%
X193040000Y-44335000D03*
%TO.P,U13,8,GND*%
%TO.N,GND*%
X193040000Y-46875000D03*
%TO.P,U13,9,QH'*%
%TO.N,Net-(U13-Pad9)*%
X200660000Y-46875000D03*
%TO.P,U13,10,~{SRCLR}*%
%TO.N,RESET*%
X200660000Y-44335000D03*
%TO.P,U13,11,SRCLK*%
%TO.N,SPI_CLK*%
X200660000Y-41795000D03*
%TO.P,U13,12,RCLK*%
%TO.N,7seg_CS*%
X200660000Y-39255000D03*
%TO.P,U13,13,~{OE}*%
%TO.N,7seg_OE*%
X200660000Y-36715000D03*
%TO.P,U13,14,SER*%
%TO.N,Net-(U12-Pad9)*%
X200660000Y-34175000D03*
%TO.P,U13,15,QA*%
%TO.N,Net-(R36-Pad1)*%
X200660000Y-31635000D03*
%TO.P,U13,16,VCC*%
%TO.N,VCC*%
X200660000Y-29095000D03*
%TD*%
D10*
%TO.P,R19,1*%
%TO.N,Net-(R19-Pad1)*%
X153670000Y-93865000D03*
%TO.P,R19,2*%
%TO.N,Net-(LED2-Pad5)*%
X153670000Y-83705000D03*
%TD*%
D15*
%TO.P,SW_A1,1,1*%
%TO.N,KeyRow4*%
X179451000Y-133535000D03*
%TO.P,SW_A1,2,2*%
%TO.N,KeyCol3*%
X174451000Y-131435000D03*
%TD*%
D10*
%TO.P,R7,1*%
%TO.N,Net-(R7-Pad1)*%
X130810000Y-93865000D03*
%TO.P,R7,2*%
%TO.N,Net-(LED1-Pad2)*%
X130810000Y-83705000D03*
%TD*%
D18*
%TO.P,R2,1*%
%TO.N,VCC*%
X52070000Y-67644900D03*
%TO.P,R2,2*%
%TO.N,Net-(R2-Pad2)*%
X41910000Y-67644900D03*
%TD*%
D10*
%TO.P,R23,1*%
%TO.N,Net-(R23-Pad1)*%
X161290000Y-93865000D03*
%TO.P,R23,2*%
%TO.N,Net-(LED3-Pad2)*%
X161290000Y-83705000D03*
%TD*%
%TO.P,R9,1*%
%TO.N,Net-(R9-Pad1)*%
X130810000Y-50685000D03*
%TO.P,R9,2*%
%TO.N,Net-(LED1-Pad9)*%
X130810000Y-60845000D03*
%TD*%
D18*
%TO.P,C12,1*%
%TO.N,VCC*%
X168910000Y-25285000D03*
%TO.P,C12,2*%
%TO.N,GND*%
X158750000Y-25285000D03*
%TD*%
D10*
%TO.P,R49,1*%
%TO.N,Net-(R49-Pad1)*%
X209550000Y-50685000D03*
%TO.P,R49,2*%
%TO.N,Net-(LED6-Pad9)*%
X209550000Y-60845000D03*
%TD*%
%TO.P,R33,1*%
%TO.N,Net-(R33-Pad1)*%
X176530000Y-50685000D03*
%TO.P,R33,2*%
%TO.N,Net-(LED4-Pad9)*%
X176530000Y-60845000D03*
%TD*%
%TO.P,R26,1*%
%TO.N,Net-(R26-Pad1)*%
X158750000Y-50685000D03*
%TO.P,R26,2*%
%TO.N,Net-(LED3-Pad10)*%
X158750000Y-60845000D03*
%TD*%
D18*
%TO.P,R57,1*%
%TO.N,SPI_MISO*%
X111760000Y-177800000D03*
%TO.P,R57,2*%
%TO.N,VCC*%
X101600000Y-177800000D03*
%TD*%
D10*
%TO.P,R11,1*%
%TO.N,Net-(R11-Pad1)*%
X138430000Y-93865000D03*
%TO.P,R11,2*%
%TO.N,Net-(LED1-Pad5)*%
X138430000Y-83705000D03*
%TD*%
D19*
%TO.P,J3,1,Pin_1*%
%TO.N,VCC*%
X38081200Y-28774500D03*
D20*
%TO.P,J3,2,Pin_2*%
%TO.N,GND*%
X35541200Y-28774500D03*
%TD*%
D10*
%TO.P,C9,1*%
%TO.N,VCC*%
X27940000Y-50800000D03*
%TO.P,C9,2*%
%TO.N,GND*%
X27940000Y-60960000D03*
%TD*%
D18*
%TO.P,C15,1*%
%TO.N,VCC*%
X217170000Y-25285000D03*
%TO.P,C15,2*%
%TO.N,GND*%
X207010000Y-25285000D03*
%TD*%
D10*
%TO.P,R35,1*%
%TO.N,Net-(R35-Pad1)*%
X184150000Y-93865000D03*
%TO.P,R35,2*%
%TO.N,Net-(LED4-Pad5)*%
X184150000Y-83705000D03*
%TD*%
D19*
%TO.P,J5,1,Pin_1*%
%TO.N,GND*%
X123190000Y-40640000D03*
D20*
%TO.P,J5,2,Pin_2*%
%TO.N,7seg_OE*%
X123190000Y-38100000D03*
%TD*%
D16*
%TO.P,74HC21,1,1A*%
%TO.N,IRQ_A*%
X99055000Y-85080000D03*
D17*
%TO.P,74HC21,2,1B*%
%TO.N,IRQ_B*%
X101595000Y-85080000D03*
%TO.P,74HC21,3,NC*%
%TO.N,unconnected-(U5-Pad3)*%
X104135000Y-85080000D03*
%TO.P,74HC21,4,1C*%
%TO.N,VCC*%
X106675000Y-85080000D03*
%TO.P,74HC21,5,1D*%
X109215000Y-85080000D03*
%TO.P,74HC21,6,1Y*%
%TO.N,IRQ*%
X111755000Y-85080000D03*
%TO.P,74HC21,7,GND*%
%TO.N,GND*%
X114295000Y-85080000D03*
%TO.P,74HC21,8,2Y*%
%TO.N,unconnected-(U5-Pad8)*%
X114295000Y-77460000D03*
%TO.P,74HC21,9,2A*%
%TO.N,VCC*%
X111755000Y-77460000D03*
%TO.P,74HC21,10,2B*%
X109215000Y-77460000D03*
%TO.P,74HC21,11,NC*%
%TO.N,unconnected-(U5-Pad11)*%
X106675000Y-77460000D03*
%TO.P,74HC21,12,2C*%
%TO.N,VCC*%
X104135000Y-77460000D03*
%TO.P,74HC21,13,2D*%
X101595000Y-77460000D03*
%TO.P,74HC21,14,VCC*%
X99055000Y-77460000D03*
%TD*%
D15*
%TO.P,SW_E1,1,1*%
%TO.N,KeyRow5*%
X179451000Y-116390000D03*
%TO.P,SW_E1,2,2*%
%TO.N,KeyCol3*%
X174451000Y-114290000D03*
%TD*%
D10*
%TO.P,R51,1*%
%TO.N,Net-(R51-Pad1)*%
X217170000Y-93865000D03*
%TO.P,R51,2*%
%TO.N,Net-(LED6-Pad5)*%
X217170000Y-83705000D03*
%TD*%
%TO.P,R52,1*%
%TO.N,KeyRow5*%
X209029000Y-116365000D03*
%TO.P,R52,2*%
%TO.N,GND*%
X209029000Y-106205000D03*
%TD*%
%TO.P,R25,1*%
%TO.N,Net-(R25-Pad1)*%
X161290000Y-50685000D03*
%TO.P,R25,2*%
%TO.N,Net-(LED3-Pad9)*%
X161290000Y-60845000D03*
%TD*%
%TO.P,R17,1*%
%TO.N,Net-(R17-Pad1)*%
X146050000Y-50685000D03*
%TO.P,R17,2*%
%TO.N,Net-(LED2-Pad9)*%
X146050000Y-60845000D03*
%TD*%
%TO.P,R5,1*%
%TO.N,Net-(R5-Pad1)*%
X138430000Y-50685000D03*
%TO.P,R5,2*%
%TO.N,Net-(LED1-Pad6)*%
X138430000Y-60845000D03*
%TD*%
D18*
%TO.P,R58,1*%
%TO.N,VCC*%
X101600000Y-172720000D03*
%TO.P,R58,2*%
%TO.N,SD_Detect*%
X111760000Y-172720000D03*
%TD*%
D10*
%TO.P,R20,1*%
%TO.N,Net-(R20-Pad1)*%
X166370000Y-50685000D03*
%TO.P,R20,2*%
%TO.N,Net-(LED3-Pad7)*%
X166370000Y-60845000D03*
%TD*%
D19*
%TO.P,J1,1,Pin_1*%
%TO.N,CLOCK*%
X102870000Y-33020000D03*
D20*
%TO.P,J1,2,Pin_2*%
%TO.N,Net-(J1-Pad2)*%
X105410000Y-33020000D03*
%TD*%
D18*
%TO.P,C13,1*%
%TO.N,VCC*%
X184150000Y-25285000D03*
%TO.P,C13,2*%
%TO.N,GND*%
X173990000Y-25285000D03*
%TD*%
D16*
%TO.P,28C256,1,A14*%
%TO.N,/A14*%
X41910000Y-116840000D03*
D17*
%TO.P,28C256,2,A12*%
%TO.N,/A12*%
X44450000Y-116840000D03*
%TO.P,28C256,3,A7*%
%TO.N,/A7*%
X46990000Y-116840000D03*
%TO.P,28C256,4,A6*%
%TO.N,/A6*%
X49530000Y-116840000D03*
%TO.P,28C256,5,A5*%
%TO.N,/A5*%
X52070000Y-116840000D03*
%TO.P,28C256,6,A4*%
%TO.N,/A4*%
X54610000Y-116840000D03*
%TO.P,28C256,7,A3*%
%TO.N,/A3*%
X57150000Y-116840000D03*
%TO.P,28C256,8,A2*%
%TO.N,/A2*%
X59690000Y-116840000D03*
%TO.P,28C256,9,A1*%
%TO.N,/A1*%
X62230000Y-116840000D03*
%TO.P,28C256,10,A0*%
%TO.N,/A0*%
X64770000Y-116840000D03*
%TO.P,28C256,11,D0*%
%TO.N,/D0*%
X67310000Y-116840000D03*
%TO.P,28C256,12,D1*%
%TO.N,/D1*%
X69850000Y-116840000D03*
%TO.P,28C256,13,D2*%
%TO.N,/D2*%
X72390000Y-116840000D03*
%TO.P,28C256,14,GND*%
%TO.N,GND*%
X74930000Y-116840000D03*
%TO.P,28C256,15,D3*%
%TO.N,/D3*%
X74930000Y-101600000D03*
%TO.P,28C256,16,D4*%
%TO.N,/D4*%
X72390000Y-101600000D03*
%TO.P,28C256,17,D5*%
%TO.N,/D5*%
X69850000Y-101600000D03*
%TO.P,28C256,18,D6*%
%TO.N,/D6*%
X67310000Y-101600000D03*
%TO.P,28C256,19,D7*%
%TO.N,/D7*%
X64770000Y-101600000D03*
%TO.P,28C256,20,~{CS}*%
%TO.N,ROM_CS*%
X62230000Y-101600000D03*
%TO.P,28C256,21,A10*%
%TO.N,/A10*%
X59690000Y-101600000D03*
%TO.P,28C256,22,~{OE}*%
%TO.N,ROM_OE*%
X57150000Y-101600000D03*
%TO.P,28C256,23,A11*%
%TO.N,/A11*%
X54610000Y-101600000D03*
%TO.P,28C256,24,A9*%
%TO.N,/A9*%
X52070000Y-101600000D03*
%TO.P,28C256,25,A8*%
%TO.N,/A8*%
X49530000Y-101600000D03*
%TO.P,28C256,26,A13*%
%TO.N,/A13*%
X46990000Y-101600000D03*
%TO.P,28C256,27,~{WE}*%
%TO.N,VCC*%
X44450000Y-101600000D03*
%TO.P,28C256,28,VCC*%
X41910000Y-101600000D03*
%TD*%
D15*
%TO.P,SW_ENT1,1,1*%
%TO.N,KeyRow1*%
X197612000Y-184970000D03*
%TO.P,SW_ENT1,2,2*%
%TO.N,KeyCol4*%
X192612000Y-182870000D03*
%TD*%
D21*
%TO.P,J4,1,Pin_1*%
%TO.N,VCC*%
X115611141Y-163510000D03*
D10*
%TO.P,J4,2,Pin_2*%
%TO.N,unconnected-(J4-Pad2)*%
X113071141Y-163510000D03*
%TO.P,J4,3,Pin_3*%
%TO.N,GND*%
X110531141Y-163510000D03*
%TO.P,J4,4,Pin_4*%
%TO.N,SPI_CLK*%
X107991141Y-163510000D03*
%TO.P,J4,5,Pin_5*%
%TO.N,SPI_MISO*%
X105451141Y-163510000D03*
%TO.P,J4,6,Pin_6*%
%TO.N,SPI_MOSI*%
X102911141Y-163510000D03*
%TO.P,J4,7,Pin_7*%
%TO.N,SD_Card_CS*%
X100371141Y-163510000D03*
%TO.P,J4,8,Pin_8*%
%TO.N,SD_Detect*%
X97831141Y-163510000D03*
%TD*%
%TO.P,R12,1*%
%TO.N,Net-(R12-Pad1)*%
X151130000Y-50685000D03*
%TO.P,R12,2*%
%TO.N,Net-(LED2-Pad7)*%
X151130000Y-60845000D03*
%TD*%
D13*
%TO.P,U9,1,QB*%
%TO.N,Net-(R5-Pad1)*%
X129540000Y-29095000D03*
D14*
%TO.P,U9,2,QC*%
%TO.N,Net-(R6-Pad1)*%
X129540000Y-31635000D03*
%TO.P,U9,3,QD*%
%TO.N,Net-(R7-Pad1)*%
X129540000Y-34175000D03*
%TO.P,U9,4,QE*%
%TO.N,Net-(R8-Pad1)*%
X129540000Y-36715000D03*
%TO.P,U9,5,QF*%
%TO.N,Net-(R9-Pad1)*%
X129540000Y-39255000D03*
%TO.P,U9,6,QG*%
%TO.N,Net-(R10-Pad1)*%
X129540000Y-41795000D03*
%TO.P,U9,7,QH*%
%TO.N,Net-(R11-Pad1)*%
X129540000Y-44335000D03*
%TO.P,U9,8,GND*%
%TO.N,GND*%
X129540000Y-46875000D03*
%TO.P,U9,9,QH'*%
%TO.N,Net-(U10-Pad14)*%
X137160000Y-46875000D03*
%TO.P,U9,10,~{SRCLR}*%
%TO.N,RESET*%
X137160000Y-44335000D03*
%TO.P,U9,11,SRCLK*%
%TO.N,SPI_CLK*%
X137160000Y-41795000D03*
%TO.P,U9,12,RCLK*%
%TO.N,7seg_CS*%
X137160000Y-39255000D03*
%TO.P,U9,13,~{OE}*%
%TO.N,7seg_OE*%
X137160000Y-36715000D03*
%TO.P,U9,14,SER*%
%TO.N,SPI_MOSI*%
X137160000Y-34175000D03*
%TO.P,U9,15,QA*%
%TO.N,Net-(R4-Pad1)*%
X137160000Y-31635000D03*
%TO.P,U9,16,VCC*%
%TO.N,VCC*%
X137160000Y-29095000D03*
%TD*%
D10*
%TO.P,R48,1*%
%TO.N,Net-(R48-Pad1)*%
X207010000Y-93865000D03*
%TO.P,R48,2*%
%TO.N,Net-(LED6-Pad1)*%
X207010000Y-83705000D03*
%TD*%
%TO.P,C6,1*%
%TO.N,VCC*%
X93975000Y-48250000D03*
%TO.P,C6,2*%
%TO.N,GND*%
X93975000Y-58410000D03*
%TD*%
%TO.P,R36,1*%
%TO.N,Net-(R36-Pad1)*%
X199390000Y-50685000D03*
%TO.P,R36,2*%
%TO.N,Net-(LED5-Pad7)*%
X199390000Y-60845000D03*
%TD*%
%TO.P,R18,1*%
%TO.N,Net-(R18-Pad1)*%
X143510000Y-50685000D03*
%TO.P,R18,2*%
%TO.N,Net-(LED2-Pad10)*%
X143510000Y-60845000D03*
%TD*%
%TO.P,R47,1*%
%TO.N,Net-(R47-Pad1)*%
X209550000Y-93865000D03*
%TO.P,R47,2*%
%TO.N,Net-(LED6-Pad2)*%
X209550000Y-83705000D03*
%TD*%
%TO.P,R50,1*%
%TO.N,Net-(R50-Pad1)*%
X207010000Y-50685000D03*
%TO.P,R50,2*%
%TO.N,Net-(LED6-Pad10)*%
X207010000Y-60845000D03*
%TD*%
D21*
%TO.P,LED3,1,E*%
%TO.N,Net-(LED3-Pad1)*%
X158750000Y-80010000D03*
D10*
%TO.P,LED3,2,D*%
%TO.N,Net-(LED3-Pad2)*%
X161290000Y-80010000D03*
%TO.P,LED3,3,COMC1*%
%TO.N,GND*%
X163830000Y-80010000D03*
%TO.P,LED3,4,C*%
%TO.N,Net-(LED3-Pad4)*%
X166370000Y-80010000D03*
%TO.P,LED3,5,DP*%
%TO.N,Net-(LED3-Pad5)*%
X168910000Y-80010000D03*
%TO.P,LED3,6,B*%
%TO.N,Net-(LED3-Pad6)*%
X168910000Y-64770000D03*
%TO.P,LED3,7,A*%
%TO.N,Net-(LED3-Pad7)*%
X166370000Y-64770000D03*
%TO.P,LED3,8,COMC2*%
%TO.N,GND*%
X163830000Y-64770000D03*
%TO.P,LED3,9,F*%
%TO.N,Net-(LED3-Pad9)*%
X161290000Y-64770000D03*
%TO.P,LED3,10,G*%
%TO.N,Net-(LED3-Pad10)*%
X158750000Y-64770000D03*
%TD*%
%TO.P,R16,1*%
%TO.N,Net-(R16-Pad1)*%
X143510000Y-94035000D03*
%TO.P,R16,2*%
%TO.N,Net-(LED2-Pad1)*%
X143510000Y-83875000D03*
%TD*%
D13*
%TO.P,U10,1,QB*%
%TO.N,Net-(R13-Pad1)*%
X144780000Y-29095000D03*
D14*
%TO.P,U10,2,QC*%
%TO.N,Net-(R14-Pad1)*%
X144780000Y-31635000D03*
%TO.P,U10,3,QD*%
%TO.N,Net-(R15-Pad1)*%
X144780000Y-34175000D03*
%TO.P,U10,4,QE*%
%TO.N,Net-(R16-Pad1)*%
X144780000Y-36715000D03*
%TO.P,U10,5,QF*%
%TO.N,Net-(R17-Pad1)*%
X144780000Y-39255000D03*
%TO.P,U10,6,QG*%
%TO.N,Net-(R18-Pad1)*%
X144780000Y-41795000D03*
%TO.P,U10,7,QH*%
%TO.N,Net-(R19-Pad1)*%
X144780000Y-44335000D03*
%TO.P,U10,8,GND*%
%TO.N,GND*%
X144780000Y-46875000D03*
%TO.P,U10,9,QH'*%
%TO.N,Net-(U10-Pad9)*%
X152400000Y-46875000D03*
%TO.P,U10,10,~{SRCLR}*%
%TO.N,RESET*%
X152400000Y-44335000D03*
%TO.P,U10,11,SRCLK*%
%TO.N,SPI_CLK*%
X152400000Y-41795000D03*
%TO.P,U10,12,RCLK*%
%TO.N,7seg_CS*%
X152400000Y-39255000D03*
%TO.P,U10,13,~{OE}*%
%TO.N,7seg_OE*%
X152400000Y-36715000D03*
%TO.P,U10,14,SER*%
%TO.N,Net-(U10-Pad14)*%
X152400000Y-34175000D03*
%TO.P,U10,15,QA*%
%TO.N,Net-(R12-Pad1)*%
X152400000Y-31635000D03*
%TO.P,U10,16,VCC*%
%TO.N,VCC*%
X152400000Y-29095000D03*
%TD*%
D13*
%TO.P,U11,1,QB*%
%TO.N,Net-(R21-Pad1)*%
X160020000Y-29095000D03*
D14*
%TO.P,U11,2,QC*%
%TO.N,Net-(R22-Pad1)*%
X160020000Y-31635000D03*
%TO.P,U11,3,QD*%
%TO.N,Net-(R23-Pad1)*%
X160020000Y-34175000D03*
%TO.P,U11,4,QE*%
%TO.N,Net-(R24-Pad1)*%
X160020000Y-36715000D03*
%TO.P,U11,5,QF*%
%TO.N,Net-(R25-Pad1)*%
X160020000Y-39255000D03*
%TO.P,U11,6,QG*%
%TO.N,Net-(R26-Pad1)*%
X160020000Y-41795000D03*
%TO.P,U11,7,QH*%
%TO.N,Net-(R27-Pad1)*%
X160020000Y-44335000D03*
%TO.P,U11,8,GND*%
%TO.N,GND*%
X160020000Y-46875000D03*
%TO.P,U11,9,QH'*%
%TO.N,Net-(U11-Pad9)*%
X167640000Y-46875000D03*
%TO.P,U11,10,~{SRCLR}*%
%TO.N,RESET*%
X167640000Y-44335000D03*
%TO.P,U11,11,SRCLK*%
%TO.N,SPI_CLK*%
X167640000Y-41795000D03*
%TO.P,U11,12,RCLK*%
%TO.N,7seg_CS*%
X167640000Y-39255000D03*
%TO.P,U11,13,~{OE}*%
%TO.N,7seg_OE*%
X167640000Y-36715000D03*
%TO.P,U11,14,SER*%
%TO.N,Net-(U10-Pad9)*%
X167640000Y-34175000D03*
%TO.P,U11,15,QA*%
%TO.N,Net-(R20-Pad1)*%
X167640000Y-31635000D03*
%TO.P,U11,16,VCC*%
%TO.N,VCC*%
X167640000Y-29095000D03*
%TD*%
D16*
%TO.P,U6,1,A14*%
%TO.N,/A14*%
X34290000Y-88900000D03*
D17*
%TO.P,U6,2,A12*%
%TO.N,/A12*%
X36830000Y-88900000D03*
%TO.P,U6,3,A7*%
%TO.N,/A7*%
X39370000Y-88900000D03*
%TO.P,U6,4,A6*%
%TO.N,/A6*%
X41910000Y-88900000D03*
%TO.P,U6,5,A5*%
%TO.N,/A5*%
X44450000Y-88900000D03*
%TO.P,U6,6,A4*%
%TO.N,/A4*%
X46990000Y-88900000D03*
%TO.P,U6,7,A3*%
%TO.N,/A3*%
X49530000Y-88900000D03*
%TO.P,U6,8,A2*%
%TO.N,/A2*%
X52070000Y-88900000D03*
%TO.P,U6,9,A1*%
%TO.N,/A1*%
X54610000Y-88900000D03*
%TO.P,U6,10,A0*%
%TO.N,/A0*%
X57150000Y-88900000D03*
%TO.P,U6,11,D0*%
%TO.N,/D0*%
X59690000Y-88900000D03*
%TO.P,U6,12,D1*%
%TO.N,/D1*%
X62230000Y-88900000D03*
%TO.P,U6,13,D2*%
%TO.N,/D2*%
X64770000Y-88900000D03*
%TO.P,U6,14,GND*%
%TO.N,GND*%
X67310000Y-88900000D03*
%TO.P,U6,15,D3*%
%TO.N,/D3*%
X67310000Y-73660000D03*
%TO.P,U6,16,D4*%
%TO.N,/D4*%
X64770000Y-73660000D03*
%TO.P,U6,17,D5*%
%TO.N,/D5*%
X62230000Y-73660000D03*
%TO.P,U6,18,D6*%
%TO.N,/D6*%
X59690000Y-73660000D03*
%TO.P,U6,19,D7*%
%TO.N,/D7*%
X57150000Y-73660000D03*
%TO.P,U6,20,~{CS}*%
%TO.N,RAM_OE*%
X54610000Y-73660000D03*
%TO.P,U6,21,A10*%
%TO.N,/A10*%
X52070000Y-73660000D03*
%TO.P,U6,22,~{OE}*%
%TO.N,RAM_OE*%
X49530000Y-73660000D03*
%TO.P,U6,23,A11*%
%TO.N,/A11*%
X46990000Y-73660000D03*
%TO.P,U6,24,A9*%
%TO.N,/A9*%
X44450000Y-73660000D03*
%TO.P,U6,25,A8*%
%TO.N,/A8*%
X41910000Y-73660000D03*
%TO.P,U6,26,A13*%
%TO.N,/A13*%
X39370000Y-73660000D03*
%TO.P,U6,27,~{WE}*%
%TO.N,RW*%
X36830000Y-73660000D03*
%TO.P,U6,28,VCC*%
%TO.N,VCC*%
X34290000Y-73660000D03*
%TD*%
D15*
%TO.P,SW_6,1,1*%
%TO.N,KeyRow3*%
X179451000Y-150680000D03*
%TO.P,SW_6,2,2*%
%TO.N,KeyCol3*%
X174451000Y-148580000D03*
%TD*%
D10*
%TO.P,R21,1*%
%TO.N,Net-(R21-Pad1)*%
X168910000Y-50685000D03*
%TO.P,R21,2*%
%TO.N,Net-(LED3-Pad6)*%
X168910000Y-60845000D03*
%TD*%
D16*
%TO.P,74HC00,1,1A*%
%TO.N,/A15*%
X99055000Y-71110000D03*
D17*
%TO.P,74HC00,2,1B*%
X101595000Y-71110000D03*
%TO.P,74HC00,3,1Y*%
%TO.N,ROM_OE*%
X104135000Y-71110000D03*
%TO.P,74HC00,4,2A*%
%TO.N,CLOCK*%
X106675000Y-71110000D03*
%TO.P,74HC00,5,2B*%
%TO.N,ROM_OE*%
X109215000Y-71110000D03*
%TO.P,74HC00,6,2Y*%
%TO.N,RAM_OE*%
X111755000Y-71110000D03*
%TO.P,74HC00,7,GND*%
%TO.N,GND*%
X114295000Y-71110000D03*
%TO.P,74HC00,8,3Y*%
%TO.N,IO_CS*%
X114295000Y-63490000D03*
%TO.P,74HC00,9,3A*%
%TO.N,/A15*%
X111755000Y-63490000D03*
%TO.P,74HC00,10,3B*%
%TO.N,ROM_CS*%
X109215000Y-63490000D03*
%TO.P,74HC00,11,4Y*%
%TO.N,unconnected-(U2-Pad11)*%
X106675000Y-63490000D03*
%TO.P,74HC00,12,4A*%
%TO.N,VCC*%
X104135000Y-63490000D03*
%TO.P,74HC00,13,4B*%
X101595000Y-63490000D03*
%TO.P,74HC00,14,VCC*%
X99055000Y-63490000D03*
%TD*%
D10*
%TO.P,R22,1*%
%TO.N,Net-(R22-Pad1)*%
X166370000Y-93865000D03*
%TO.P,R22,2*%
%TO.N,Net-(LED3-Pad4)*%
X166370000Y-83705000D03*
%TD*%
D22*
%TO.P,U7,1,GND*%
%TO.N,GND*%
X35560000Y-142240000D03*
D23*
%TO.P,U7,2,PA0*%
%TO.N,Net-(J2-Pad1)*%
X38100000Y-142240000D03*
%TO.P,U7,3,PA1*%
%TO.N,Net-(J2-Pad2)*%
X40640000Y-142240000D03*
%TO.P,U7,4,PA2*%
%TO.N,Net-(J2-Pad3)*%
X43180000Y-142240000D03*
%TO.P,U7,5,PA3*%
%TO.N,Net-(J2-Pad4)*%
X45720000Y-142240000D03*
%TO.P,U7,6,PA4*%
%TO.N,Net-(J2-Pad5)*%
X48260000Y-142240000D03*
%TO.P,U7,7,PA5*%
%TO.N,Net-(J2-Pad6)*%
X50800000Y-142240000D03*
%TO.P,U7,8,PA6*%
%TO.N,Net-(J2-Pad7)*%
X53340000Y-142240000D03*
%TO.P,U7,9,PA7*%
%TO.N,Net-(J2-Pad8)*%
X55880000Y-142240000D03*
%TO.P,U7,10,PB0*%
%TO.N,Net-(J2-Pad9)*%
X58420000Y-142240000D03*
%TO.P,U7,11,PB1*%
%TO.N,Net-(J2-Pad10)*%
X60960000Y-142240000D03*
%TO.P,U7,12,PB2*%
%TO.N,Net-(J2-Pad11)*%
X63500000Y-142240000D03*
%TO.P,U7,13,PB3*%
%TO.N,Net-(J2-Pad12)*%
X66040000Y-142240000D03*
%TO.P,U7,14,PB4*%
%TO.N,Net-(J2-Pad13)*%
X68580000Y-142240000D03*
%TO.P,U7,15,PB5*%
%TO.N,Net-(J2-Pad14)*%
X71120000Y-142240000D03*
%TO.P,U7,16,PB6*%
%TO.N,Net-(J2-Pad15)*%
X73660000Y-142240000D03*
%TO.P,U7,17,PB7*%
%TO.N,Net-(J2-Pad16)*%
X76200000Y-142240000D03*
%TO.P,U7,18,CB1*%
%TO.N,unconnected-(U7-Pad18)*%
X78740000Y-142240000D03*
%TO.P,U7,19,CB2*%
%TO.N,unconnected-(U7-Pad19)*%
X81280000Y-142240000D03*
%TO.P,U7,20,VCC*%
%TO.N,VCC*%
X83820000Y-142240000D03*
%TO.P,U7,21,IRQB*%
%TO.N,IRQ_B*%
X83820000Y-127000000D03*
%TO.P,U7,22,RWB*%
%TO.N,RW*%
X81280000Y-127000000D03*
%TO.P,U7,23,CS2B*%
%TO.N,IO_CS*%
X78740000Y-127000000D03*
%TO.P,U7,24,CS1*%
%TO.N,/A5*%
X76200000Y-127000000D03*
%TO.P,U7,25,PHI2*%
%TO.N,CLOCK*%
X73660000Y-127000000D03*
%TO.P,U7,26,D7*%
%TO.N,/D7*%
X71120000Y-127000000D03*
%TO.P,U7,27,D6*%
%TO.N,/D6*%
X68580000Y-127000000D03*
%TO.P,U7,28,D5*%
%TO.N,/D5*%
X66040000Y-127000000D03*
%TO.P,U7,29,D4*%
%TO.N,/D4*%
X63500000Y-127000000D03*
%TO.P,U7,30,D3*%
%TO.N,/D3*%
X60960000Y-127000000D03*
%TO.P,U7,31,D2*%
%TO.N,/D2*%
X58420000Y-127000000D03*
%TO.P,U7,32,D1*%
%TO.N,/D1*%
X55880000Y-127000000D03*
%TO.P,U7,33,D0*%
%TO.N,/D0*%
X53340000Y-127000000D03*
%TO.P,U7,34,RESB*%
%TO.N,RESET*%
X50800000Y-127000000D03*
%TO.P,U7,35,RS3*%
%TO.N,/A3*%
X48260000Y-127000000D03*
%TO.P,U7,36,RS2*%
%TO.N,/A2*%
X45720000Y-127000000D03*
%TO.P,U7,37,RS1*%
%TO.N,/A1*%
X43180000Y-127000000D03*
%TO.P,U7,38,RS0*%
%TO.N,/A0*%
X40640000Y-127000000D03*
%TO.P,U7,39,CA2*%
%TO.N,unconnected-(U7-Pad39)*%
X38100000Y-127000000D03*
%TO.P,U7,40,CA1*%
%TO.N,unconnected-(U7-Pad40)*%
X35560000Y-127000000D03*
%TD*%
D18*
%TO.P,C5,1*%
%TO.N,VCC*%
X111760000Y-95250000D03*
%TO.P,C5,2*%
%TO.N,GND*%
X101600000Y-95250000D03*
%TD*%
D10*
%TO.P,R13,1*%
%TO.N,Net-(R13-Pad1)*%
X153670000Y-50685000D03*
%TO.P,R13,2*%
%TO.N,Net-(LED2-Pad6)*%
X153670000Y-60845000D03*
%TD*%
D15*
%TO.P,SW_2,1,1*%
%TO.N,KeyRow2*%
X179451000Y-167825000D03*
%TO.P,SW_2,2,2*%
%TO.N,KeyCol3*%
X174451000Y-165725000D03*
%TD*%
D10*
%TO.P,R43,1*%
%TO.N,Net-(R43-Pad1)*%
X201930000Y-93865000D03*
%TO.P,R43,2*%
%TO.N,Net-(LED5-Pad5)*%
X201930000Y-83705000D03*
%TD*%
D15*
%TO.P,SW_8,1,1*%
%TO.N,KeyRow4*%
X143129000Y-133535000D03*
%TO.P,SW_8,2,2*%
%TO.N,KeyCol1*%
X138129000Y-131435000D03*
%TD*%
%TO.P,SW_5,1,1*%
%TO.N,KeyRow3*%
X161290000Y-150680000D03*
%TO.P,SW_5,2,2*%
%TO.N,KeyCol2*%
X156290000Y-148580000D03*
%TD*%
D18*
%TO.P,R3,1*%
%TO.N,VCC*%
X35560000Y-38100000D03*
%TO.P,R3,2*%
%TO.N,RESET*%
X45720000Y-38100000D03*
%TD*%
%TO.P,C14,1*%
%TO.N,VCC*%
X201930000Y-25285000D03*
%TO.P,C14,2*%
%TO.N,GND*%
X191770000Y-25285000D03*
%TD*%
%TO.P,C11,1*%
%TO.N,VCC*%
X153670000Y-25285000D03*
%TO.P,C11,2*%
%TO.N,GND*%
X143510000Y-25285000D03*
%TD*%
D21*
%TO.P,LED6,1,E*%
%TO.N,Net-(LED6-Pad1)*%
X207010000Y-80010000D03*
D10*
%TO.P,LED6,2,D*%
%TO.N,Net-(LED6-Pad2)*%
X209550000Y-80010000D03*
%TO.P,LED6,3,COMC1*%
%TO.N,GND*%
X212090000Y-80010000D03*
%TO.P,LED6,4,C*%
%TO.N,Net-(LED6-Pad4)*%
X214630000Y-80010000D03*
%TO.P,LED6,5,DP*%
%TO.N,Net-(LED6-Pad5)*%
X217170000Y-80010000D03*
%TO.P,LED6,6,B*%
%TO.N,Net-(LED6-Pad6)*%
X217170000Y-64770000D03*
%TO.P,LED6,7,A*%
%TO.N,Net-(LED6-Pad7)*%
X214630000Y-64770000D03*
%TO.P,LED6,8,COMC2*%
%TO.N,GND*%
X212090000Y-64770000D03*
%TO.P,LED6,9,F*%
%TO.N,Net-(LED6-Pad9)*%
X209550000Y-64770000D03*
%TO.P,LED6,10,G*%
%TO.N,Net-(LED6-Pad10)*%
X207010000Y-64770000D03*
%TD*%
%TO.P,R53,1*%
%TO.N,KeyRow4*%
X209029000Y-123545000D03*
%TO.P,R53,2*%
%TO.N,GND*%
X209029000Y-133705000D03*
%TD*%
%TO.P,R40,1*%
%TO.N,Net-(R40-Pad1)*%
X191770000Y-93865000D03*
%TO.P,R40,2*%
%TO.N,Net-(LED5-Pad1)*%
X191770000Y-83705000D03*
%TD*%
%TO.P,R29,1*%
%TO.N,Net-(R29-Pad1)*%
X184150000Y-50685000D03*
%TO.P,R29,2*%
%TO.N,Net-(LED4-Pad6)*%
X184150000Y-60845000D03*
%TD*%
D13*
%TO.P,U12,1,QB*%
%TO.N,Net-(R29-Pad1)*%
X175260000Y-29095000D03*
D14*
%TO.P,U12,2,QC*%
%TO.N,Net-(R30-Pad1)*%
X175260000Y-31635000D03*
%TO.P,U12,3,QD*%
%TO.N,Net-(R31-Pad1)*%
X175260000Y-34175000D03*
%TO.P,U12,4,QE*%
%TO.N,Net-(R32-Pad1)*%
X175260000Y-36715000D03*
%TO.P,U12,5,QF*%
%TO.N,Net-(R33-Pad1)*%
X175260000Y-39255000D03*
%TO.P,U12,6,QG*%
%TO.N,Net-(R34-Pad1)*%
X175260000Y-41795000D03*
%TO.P,U12,7,QH*%
%TO.N,Net-(R35-Pad1)*%
X175260000Y-44335000D03*
%TO.P,U12,8,GND*%
%TO.N,GND*%
X175260000Y-46875000D03*
%TO.P,U12,9,QH'*%
%TO.N,Net-(U12-Pad9)*%
X182880000Y-46875000D03*
%TO.P,U12,10,~{SRCLR}*%
%TO.N,RESET*%
X182880000Y-44335000D03*
%TO.P,U12,11,SRCLK*%
%TO.N,SPI_CLK*%
X182880000Y-41795000D03*
%TO.P,U12,12,RCLK*%
%TO.N,7seg_CS*%
X182880000Y-39255000D03*
%TO.P,U12,13,~{OE}*%
%TO.N,7seg_OE*%
X182880000Y-36715000D03*
%TO.P,U12,14,SER*%
%TO.N,Net-(U11-Pad9)*%
X182880000Y-34175000D03*
%TO.P,U12,15,QA*%
%TO.N,Net-(R28-Pad1)*%
X182880000Y-31635000D03*
%TO.P,U12,16,VCC*%
%TO.N,VCC*%
X182880000Y-29095000D03*
%TD*%
D15*
%TO.P,SW_1,1,1*%
%TO.N,KeyRow2*%
X161290000Y-167825000D03*
%TO.P,SW_1,2,2*%
%TO.N,KeyCol2*%
X156290000Y-165725000D03*
%TD*%
%TO.P,SW_W1,1,1*%
%TO.N,KeyRow1*%
X161290000Y-184970000D03*
%TO.P,SW_W1,2,2*%
%TO.N,KeyCol2*%
X156290000Y-182870000D03*
%TD*%
D24*
%TO.P,X1,1,NC*%
%TO.N,unconnected-(X1-Pad1)*%
X77470000Y-36830000D03*
D15*
%TO.P,X1,7,GND*%
%TO.N,GND*%
X92710000Y-36830000D03*
%TO.P,X1,8,OUT*%
%TO.N,Net-(J1-Pad2)*%
X92710000Y-29210000D03*
%TO.P,X1,14,Vcc*%
%TO.N,VCC*%
X77470000Y-29210000D03*
%TD*%
D10*
%TO.P,R6,1*%
%TO.N,Net-(R6-Pad1)*%
X135890000Y-93865000D03*
%TO.P,R6,2*%
%TO.N,Net-(LED1-Pad4)*%
X135890000Y-83705000D03*
%TD*%
D25*
%TO.P,SW1,1,1*%
%TO.N,GND*%
X60454120Y-28073406D03*
X66954120Y-28073406D03*
%TO.P,SW1,2,2*%
%TO.N,RESET*%
X60454120Y-32573406D03*
X66954120Y-32573406D03*
%TD*%
D15*
%TO.P,SW_9,1,1*%
%TO.N,KeyRow4*%
X161290000Y-133535000D03*
%TO.P,SW_9,2,2*%
%TO.N,KeyCol2*%
X156290000Y-131435000D03*
%TD*%
D10*
%TO.P,R8,1*%
%TO.N,Net-(R8-Pad1)*%
X128270000Y-93865000D03*
%TO.P,R8,2*%
%TO.N,Net-(LED1-Pad1)*%
X128270000Y-83705000D03*
%TD*%
%TO.P,R45,1*%
%TO.N,Net-(R45-Pad1)*%
X217170000Y-50685000D03*
%TO.P,R45,2*%
%TO.N,Net-(LED6-Pad6)*%
X217170000Y-60845000D03*
%TD*%
%TO.P,R15,1*%
%TO.N,Net-(R15-Pad1)*%
X146050000Y-93950000D03*
%TO.P,R15,2*%
%TO.N,Net-(LED2-Pad2)*%
X146050000Y-83790000D03*
%TD*%
D15*
%TO.P,SW_R1,1,1*%
%TO.N,KeyRow1*%
X143129000Y-184970000D03*
%TO.P,SW_R1,2,2*%
%TO.N,KeyCol1*%
X138129000Y-182870000D03*
%TD*%
D18*
%TO.P,R1,1*%
%TO.N,VCC*%
X27940000Y-67642200D03*
%TO.P,R1,2*%
%TO.N,Net-(R1-Pad2)*%
X38100000Y-67642200D03*
%TD*%
D15*
%TO.P,SW_F1,1,1*%
%TO.N,KeyRow5*%
X197612000Y-116390000D03*
%TO.P,SW_F1,2,2*%
%TO.N,KeyCol4*%
X192612000Y-114290000D03*
%TD*%
D10*
%TO.P,R32,1*%
%TO.N,Net-(R32-Pad1)*%
X173990000Y-93865000D03*
%TO.P,R32,2*%
%TO.N,Net-(LED4-Pad1)*%
X173990000Y-83705000D03*
%TD*%
%TO.P,R56,1*%
%TO.N,KeyRow1*%
X209029000Y-174870000D03*
%TO.P,R56,2*%
%TO.N,GND*%
X209029000Y-185030000D03*
%TD*%
%TO.P,C7,1*%
%TO.N,VCC*%
X93980000Y-76200000D03*
%TO.P,C7,2*%
%TO.N,GND*%
X93980000Y-86360000D03*
%TD*%
%TO.P,C2,1*%
%TO.N,VCC*%
X35023200Y-104155000D03*
%TO.P,C2,2*%
%TO.N,GND*%
X35023200Y-114315000D03*
%TD*%
D21*
%TO.P,LED5,1,E*%
%TO.N,Net-(LED5-Pad1)*%
X191770000Y-80010000D03*
D10*
%TO.P,LED5,2,D*%
%TO.N,Net-(LED5-Pad2)*%
X194310000Y-80010000D03*
%TO.P,LED5,3,COMC1*%
%TO.N,GND*%
X196850000Y-80010000D03*
%TO.P,LED5,4,C*%
%TO.N,Net-(LED5-Pad4)*%
X199390000Y-80010000D03*
%TO.P,LED5,5,DP*%
%TO.N,Net-(LED5-Pad5)*%
X201930000Y-80010000D03*
%TO.P,LED5,6,B*%
%TO.N,Net-(LED5-Pad6)*%
X201930000Y-64770000D03*
%TO.P,LED5,7,A*%
%TO.N,Net-(LED5-Pad7)*%
X199390000Y-64770000D03*
%TO.P,LED5,8,COMC2*%
%TO.N,GND*%
X196850000Y-64770000D03*
%TO.P,LED5,9,F*%
%TO.N,Net-(LED5-Pad9)*%
X194310000Y-64770000D03*
%TO.P,LED5,10,G*%
%TO.N,Net-(LED5-Pad10)*%
X191770000Y-64770000D03*
%TD*%
%TO.P,C3,1*%
%TO.N,VCC*%
X88900000Y-139700000D03*
%TO.P,C3,2*%
%TO.N,GND*%
X88900000Y-129540000D03*
%TD*%
%TO.P,R24,1*%
%TO.N,Net-(R24-Pad1)*%
X158750000Y-93865000D03*
%TO.P,R24,2*%
%TO.N,Net-(LED3-Pad1)*%
X158750000Y-83705000D03*
%TD*%
%TO.P,C4,1*%
%TO.N,VCC*%
X93980000Y-62230000D03*
%TO.P,C4,2*%
%TO.N,GND*%
X93980000Y-72390000D03*
%TD*%
%TO.P,R10,1*%
%TO.N,Net-(R10-Pad1)*%
X128270000Y-50685000D03*
%TO.P,R10,2*%
%TO.N,Net-(LED1-Pad10)*%
X128270000Y-60845000D03*
%TD*%
D15*
%TO.P,SW_7,1,1*%
%TO.N,KeyRow3*%
X197612000Y-150680000D03*
%TO.P,SW_7,2,2*%
%TO.N,KeyCol4*%
X192612000Y-148580000D03*
%TD*%
D10*
%TO.P,R37,1*%
%TO.N,Net-(R37-Pad1)*%
X201930000Y-50685000D03*
%TO.P,R37,2*%
%TO.N,Net-(LED5-Pad6)*%
X201930000Y-60845000D03*
%TD*%
%TO.P,R42,1*%
%TO.N,Net-(R42-Pad1)*%
X191770000Y-50685000D03*
%TO.P,R42,2*%
%TO.N,Net-(LED5-Pad10)*%
X191770000Y-60845000D03*
%TD*%
%TO.P,R30,1*%
%TO.N,Net-(R30-Pad1)*%
X181610000Y-93865000D03*
%TO.P,R30,2*%
%TO.N,Net-(LED4-Pad4)*%
X181610000Y-83705000D03*
%TD*%
D21*
%TO.P,J2,1,Pin_1*%
%TO.N,Net-(J2-Pad1)*%
X33020000Y-154940000D03*
D10*
%TO.P,J2,2,Pin_2*%
%TO.N,Net-(J2-Pad2)*%
X35560000Y-154940000D03*
%TO.P,J2,3,Pin_3*%
%TO.N,Net-(J2-Pad3)*%
X38100000Y-154940000D03*
%TO.P,J2,4,Pin_4*%
%TO.N,Net-(J2-Pad4)*%
X40640000Y-154940000D03*
%TO.P,J2,5,Pin_5*%
%TO.N,Net-(J2-Pad5)*%
X43180000Y-154940000D03*
%TO.P,J2,6,Pin_6*%
%TO.N,Net-(J2-Pad6)*%
X45720000Y-154940000D03*
%TO.P,J2,7,Pin_7*%
%TO.N,Net-(J2-Pad7)*%
X48260000Y-154940000D03*
%TO.P,J2,8,Pin_8*%
%TO.N,Net-(J2-Pad8)*%
X50800000Y-154940000D03*
%TO.P,J2,9,Pin_9*%
%TO.N,Net-(J2-Pad9)*%
X53340000Y-154940000D03*
%TO.P,J2,10,Pin_10*%
%TO.N,Net-(J2-Pad10)*%
X55880000Y-154940000D03*
%TO.P,J2,11,Pin_11*%
%TO.N,Net-(J2-Pad11)*%
X58420000Y-154940000D03*
%TO.P,J2,12,Pin_12*%
%TO.N,Net-(J2-Pad12)*%
X60960000Y-154940000D03*
%TO.P,J2,13,Pin_13*%
%TO.N,Net-(J2-Pad13)*%
X63500000Y-154940000D03*
%TO.P,J2,14,Pin_14*%
%TO.N,Net-(J2-Pad14)*%
X66040000Y-154940000D03*
%TO.P,J2,15,Pin_15*%
%TO.N,Net-(J2-Pad15)*%
X68580000Y-154940000D03*
%TO.P,J2,16,Pin_16*%
%TO.N,Net-(J2-Pad16)*%
X71120000Y-154940000D03*
%TO.P,J2,17,Pin_17*%
%TO.N,VCC*%
X73660000Y-154940000D03*
%TO.P,J2,18,Pin_18*%
X76200000Y-154940000D03*
%TO.P,J2,19,Pin_19*%
%TO.N,GND*%
X78740000Y-154940000D03*
%TO.P,J2,20,Pin_20*%
X81280000Y-154940000D03*
%TD*%
D15*
%TO.P,SW_B1,1,1*%
%TO.N,KeyRow4*%
X197612000Y-133535000D03*
%TO.P,SW_B1,2,2*%
%TO.N,KeyCol4*%
X192612000Y-131435000D03*
%TD*%
D21*
%TO.P,LED2,1,E*%
%TO.N,Net-(LED2-Pad1)*%
X143510000Y-80010000D03*
D10*
%TO.P,LED2,2,D*%
%TO.N,Net-(LED2-Pad2)*%
X146050000Y-80010000D03*
%TO.P,LED2,3,COMC1*%
%TO.N,GND*%
X148590000Y-80010000D03*
%TO.P,LED2,4,C*%
%TO.N,Net-(LED2-Pad4)*%
X151130000Y-80010000D03*
%TO.P,LED2,5,DP*%
%TO.N,Net-(LED2-Pad5)*%
X153670000Y-80010000D03*
%TO.P,LED2,6,B*%
%TO.N,Net-(LED2-Pad6)*%
X153670000Y-64770000D03*
%TO.P,LED2,7,A*%
%TO.N,Net-(LED2-Pad7)*%
X151130000Y-64770000D03*
%TO.P,LED2,8,COMC2*%
%TO.N,GND*%
X148590000Y-64770000D03*
%TO.P,LED2,9,F*%
%TO.N,Net-(LED2-Pad9)*%
X146050000Y-64770000D03*
%TO.P,LED2,10,G*%
%TO.N,Net-(LED2-Pad10)*%
X143510000Y-64770000D03*
%TD*%
D22*
%TO.P,WDC65C02,1,VPB*%
%TO.N,unconnected-(U1-Pad1)*%
X33020000Y-63500000D03*
D23*
%TO.P,WDC65C02,2,RDY*%
%TO.N,Net-(R1-Pad2)*%
X35560000Y-63500000D03*
%TO.P,WDC65C02,3,PHI1O*%
%TO.N,unconnected-(U1-Pad3)*%
X38100000Y-63500000D03*
%TO.P,WDC65C02,4,IRQB*%
%TO.N,IRQ*%
X40640000Y-63500000D03*
%TO.P,WDC65C02,5,MLB*%
%TO.N,unconnected-(U1-Pad5)*%
X43180000Y-63500000D03*
%TO.P,WDC65C02,6,NMIB*%
%TO.N,Net-(R2-Pad2)*%
X45720000Y-63500000D03*
%TO.P,WDC65C02,7,SYNC*%
%TO.N,unconnected-(U1-Pad7)*%
X48260000Y-63500000D03*
%TO.P,WDC65C02,8,VCC*%
%TO.N,VCC*%
X50800000Y-63500000D03*
%TO.P,WDC65C02,9,A0*%
%TO.N,/A0*%
X53340000Y-63500000D03*
%TO.P,WDC65C02,10,A1*%
%TO.N,/A1*%
X55880000Y-63500000D03*
%TO.P,WDC65C02,11,A2*%
%TO.N,/A2*%
X58420000Y-63500000D03*
%TO.P,WDC65C02,12,A3*%
%TO.N,/A3*%
X60960000Y-63500000D03*
%TO.P,WDC65C02,13,A4*%
%TO.N,/A4*%
X63500000Y-63500000D03*
%TO.P,WDC65C02,14,A5*%
%TO.N,/A5*%
X66040000Y-63500000D03*
%TO.P,WDC65C02,15,A6*%
%TO.N,/A6*%
X68580000Y-63500000D03*
%TO.P,WDC65C02,16,A7*%
%TO.N,/A7*%
X71120000Y-63500000D03*
%TO.P,WDC65C02,17,A8*%
%TO.N,/A8*%
X73660000Y-63500000D03*
%TO.P,WDC65C02,18,A9*%
%TO.N,/A9*%
X76200000Y-63500000D03*
%TO.P,WDC65C02,19,A10*%
%TO.N,/A10*%
X78740000Y-63500000D03*
%TO.P,WDC65C02,20,A11*%
%TO.N,/A11*%
X81280000Y-63500000D03*
%TO.P,WDC65C02,21,GND*%
%TO.N,GND*%
X81280000Y-48260000D03*
%TO.P,WDC65C02,22,A12*%
%TO.N,/A12*%
X78740000Y-48260000D03*
%TO.P,WDC65C02,23,A13*%
%TO.N,/A13*%
X76200000Y-48260000D03*
%TO.P,WDC65C02,24,A14*%
%TO.N,/A14*%
X73660000Y-48260000D03*
%TO.P,WDC65C02,25,A15*%
%TO.N,/A15*%
X71120000Y-48260000D03*
%TO.P,WDC65C02,26,D7*%
%TO.N,/D7*%
X68580000Y-48260000D03*
%TO.P,WDC65C02,27,D6*%
%TO.N,/D6*%
X66040000Y-48260000D03*
%TO.P,WDC65C02,28,D5*%
%TO.N,/D5*%
X63500000Y-48260000D03*
%TO.P,WDC65C02,29,D4*%
%TO.N,/D4*%
X60960000Y-48260000D03*
%TO.P,WDC65C02,30,D3*%
%TO.N,/D3*%
X58420000Y-48260000D03*
%TO.P,WDC65C02,31,D2*%
%TO.N,/D2*%
X55880000Y-48260000D03*
%TO.P,WDC65C02,32,D1*%
%TO.N,/D1*%
X53340000Y-48260000D03*
%TO.P,WDC65C02,33,D0*%
%TO.N,/D0*%
X50800000Y-48260000D03*
%TO.P,WDC65C02,34,RWB*%
%TO.N,RW*%
X48260000Y-48260000D03*
%TO.P,WDC65C02,35,NC*%
%TO.N,unconnected-(U1-Pad35)*%
X45720000Y-48260000D03*
%TO.P,WDC65C02,36,BE*%
%TO.N,VCC*%
X43180000Y-48260000D03*
%TO.P,WDC65C02,37,PHI2*%
%TO.N,CLOCK*%
X40640000Y-48260000D03*
%TO.P,WDC65C02,38,SOB*%
%TO.N,unconnected-(U1-Pad38)*%
X38100000Y-48260000D03*
%TO.P,WDC65C02,39,PHI2O*%
%TO.N,unconnected-(U1-Pad39)*%
X35560000Y-48260000D03*
%TO.P,WDC65C02,40,RESB*%
%TO.N,RESET*%
X33020000Y-48260000D03*
%TD*%
D26*
%TO.P,U8,1,GND*%
%TO.N,GND*%
X114300000Y-147320000D03*
D27*
%TO.P,U8,2,PA0*%
%TO.N,KeyRow1*%
X114300000Y-144780000D03*
%TO.P,U8,3,PA1*%
%TO.N,KeyRow2*%
X114300000Y-142240000D03*
%TO.P,U8,4,PA2*%
%TO.N,KeyRow3*%
X114300000Y-139700000D03*
%TO.P,U8,5,PA3*%
%TO.N,KeyRow4*%
X114300000Y-137160000D03*
%TO.P,U8,6,PA4*%
%TO.N,KeyRow5*%
X114300000Y-134620000D03*
%TO.P,U8,7,PA5*%
%TO.N,unconnected-(U8-Pad7)*%
X114300000Y-132080000D03*
%TO.P,U8,8,PA6*%
%TO.N,SD_Detect*%
X114300000Y-129540000D03*
%TO.P,U8,9,PA7*%
%TO.N,SPI_MISO*%
X114300000Y-127000000D03*
%TO.P,U8,10,PB0*%
%TO.N,SPI_CLK*%
X114300000Y-124460000D03*
%TO.P,U8,11,PB1*%
%TO.N,SPI_MOSI*%
X114300000Y-121920000D03*
%TO.P,U8,12,PB2*%
%TO.N,7Seg_CS*%
X114300000Y-119380000D03*
%TO.P,U8,13,PB3*%
%TO.N,SD_Card_CS*%
X114300000Y-116840000D03*
%TO.P,U8,14,PB4*%
%TO.N,KeyCol4*%
X114300000Y-114300000D03*
%TO.P,U8,15,PB5*%
%TO.N,KeyCol3*%
X114300000Y-111760000D03*
%TO.P,U8,16,PB6*%
%TO.N,KeyCol2*%
X114300000Y-109220000D03*
%TO.P,U8,17,PB7*%
%TO.N,KeyCol1*%
X114300000Y-106680000D03*
%TO.P,U8,18,CB1*%
%TO.N,unconnected-(U8-Pad18)*%
X114300000Y-104140000D03*
%TO.P,U8,19,CB2*%
%TO.N,unconnected-(U8-Pad19)*%
X114300000Y-101600000D03*
%TO.P,U8,20,VCC*%
%TO.N,VCC*%
X114300000Y-99060000D03*
%TO.P,U8,21,IRQB*%
%TO.N,IRQ_A*%
X99060000Y-99060000D03*
%TO.P,U8,22,RWB*%
%TO.N,RW*%
X99060000Y-101600000D03*
%TO.P,U8,23,CS2B*%
%TO.N,IO_CS*%
X99060000Y-104140000D03*
%TO.P,U8,24,CS1*%
%TO.N,/A4*%
X99060000Y-106680000D03*
%TO.P,U8,25,PHI2*%
%TO.N,CLOCK*%
X99060000Y-109220000D03*
%TO.P,U8,26,D7*%
%TO.N,/D7*%
X99060000Y-111760000D03*
%TO.P,U8,27,D6*%
%TO.N,/D6*%
X99060000Y-114300000D03*
%TO.P,U8,28,D5*%
%TO.N,/D5*%
X99060000Y-116840000D03*
%TO.P,U8,29,D4*%
%TO.N,/D4*%
X99060000Y-119380000D03*
%TO.P,U8,30,D3*%
%TO.N,/D3*%
X99060000Y-121920000D03*
%TO.P,U8,31,D2*%
%TO.N,/D2*%
X99060000Y-124460000D03*
%TO.P,U8,32,D1*%
%TO.N,/D1*%
X99060000Y-127000000D03*
%TO.P,U8,33,D0*%
%TO.N,/D0*%
X99060000Y-129540000D03*
%TO.P,U8,34,RESB*%
%TO.N,RESET*%
X99060000Y-132080000D03*
%TO.P,U8,35,RS3*%
%TO.N,/A3*%
X99060000Y-134620000D03*
%TO.P,U8,36,RS2*%
%TO.N,/A2*%
X99060000Y-137160000D03*
%TO.P,U8,37,RS1*%
%TO.N,/A1*%
X99060000Y-139700000D03*
%TO.P,U8,38,RS0*%
%TO.N,/A0*%
X99060000Y-142240000D03*
%TO.P,U8,39,CA2*%
%TO.N,unconnected-(U8-Pad39)*%
X99060000Y-144780000D03*
%TO.P,U8,40,CA1*%
%TO.N,unconnected-(U8-Pad40)*%
X99060000Y-147320000D03*
%TD*%
D15*
%TO.P,SW_3,1,1*%
%TO.N,KeyRow2*%
X197612000Y-167825000D03*
%TO.P,SW_3,2,2*%
%TO.N,KeyCol4*%
X192612000Y-165725000D03*
%TD*%
%TO.P,SW_0,1,1*%
%TO.N,KeyRow2*%
X143129000Y-167825000D03*
%TO.P,SW_0,2,2*%
%TO.N,KeyCol1*%
X138129000Y-165725000D03*
%TD*%
D10*
%TO.P,R55,1*%
%TO.N,KeyRow2*%
X209029000Y-157970000D03*
%TO.P,R55,2*%
%TO.N,GND*%
X209029000Y-168130000D03*
%TD*%
D21*
%TO.P,LED1,1,E*%
%TO.N,Net-(LED1-Pad1)*%
X128270000Y-80010000D03*
D10*
%TO.P,LED1,2,D*%
%TO.N,Net-(LED1-Pad2)*%
X130810000Y-80010000D03*
%TO.P,LED1,3,COMC1*%
%TO.N,GND*%
X133350000Y-80010000D03*
%TO.P,LED1,4,C*%
%TO.N,Net-(LED1-Pad4)*%
X135890000Y-80010000D03*
%TO.P,LED1,5,DP*%
%TO.N,Net-(LED1-Pad5)*%
X138430000Y-80010000D03*
%TO.P,LED1,6,B*%
%TO.N,Net-(LED1-Pad6)*%
X138430000Y-64770000D03*
%TO.P,LED1,7,A*%
%TO.N,Net-(LED1-Pad7)*%
X135890000Y-64770000D03*
%TO.P,LED1,8,COMC2*%
%TO.N,GND*%
X133350000Y-64770000D03*
%TO.P,LED1,9,F*%
%TO.N,Net-(LED1-Pad9)*%
X130810000Y-64770000D03*
%TO.P,LED1,10,G*%
%TO.N,Net-(LED1-Pad10)*%
X128270000Y-64770000D03*
%TD*%
D21*
%TO.P,LED4,1,E*%
%TO.N,Net-(LED4-Pad1)*%
X173990000Y-80010000D03*
D10*
%TO.P,LED4,2,D*%
%TO.N,Net-(LED4-Pad2)*%
X176530000Y-80010000D03*
%TO.P,LED4,3,COMC1*%
%TO.N,GND*%
X179070000Y-80010000D03*
%TO.P,LED4,4,C*%
%TO.N,Net-(LED4-Pad4)*%
X181610000Y-80010000D03*
%TO.P,LED4,5,DP*%
%TO.N,Net-(LED4-Pad5)*%
X184150000Y-80010000D03*
%TO.P,LED4,6,B*%
%TO.N,Net-(LED4-Pad6)*%
X184150000Y-64770000D03*
%TO.P,LED4,7,A*%
%TO.N,Net-(LED4-Pad7)*%
X181610000Y-64770000D03*
%TO.P,LED4,8,COMC2*%
%TO.N,GND*%
X179070000Y-64770000D03*
%TO.P,LED4,9,F*%
%TO.N,Net-(LED4-Pad9)*%
X176530000Y-64770000D03*
%TO.P,LED4,10,G*%
%TO.N,Net-(LED4-Pad10)*%
X173990000Y-64770000D03*
%TD*%
%TO.P,R38,1*%
%TO.N,Net-(R38-Pad1)*%
X199390000Y-93865000D03*
%TO.P,R38,2*%
%TO.N,Net-(LED5-Pad4)*%
X199390000Y-83705000D03*
%TD*%
D18*
%TO.P,C10,1*%
%TO.N,VCC*%
X138430000Y-25285000D03*
%TO.P,C10,2*%
%TO.N,GND*%
X128270000Y-25285000D03*
%TD*%
D15*
%TO.P,SW_X1,1,1*%
%TO.N,KeyRow1*%
X179451000Y-184970000D03*
%TO.P,SW_X1,2,2*%
%TO.N,KeyCol3*%
X174451000Y-182870000D03*
%TD*%
%TO.P,SW_D1,1,1*%
%TO.N,KeyRow5*%
X161290000Y-116390000D03*
%TO.P,SW_D1,2,2*%
%TO.N,KeyCol2*%
X156290000Y-114290000D03*
%TD*%
D28*
%TO.N,IRQ*%
X91137800Y-74667200D03*
%TO.N,/A1*%
X52580700Y-81165600D03*
%TO.N,/A2*%
X52196800Y-82615900D03*
%TO.N,/A3*%
X51781100Y-83886700D03*
%TO.N,/A9*%
X53274500Y-87194900D03*
%TO.N,/A12*%
X49648300Y-57523700D03*
%TO.N,RAM_OE*%
X62369900Y-84676400D03*
%TO.N,Net-(R11-Pad1)*%
X137354900Y-54790200D03*
%TD*%
D29*
%TO.N,RESET*%
X52070000Y-33020000D02*
X60007500Y-33020000D01*
X60454100Y-32573400D02*
X66954100Y-32573400D01*
X60007500Y-33020000D02*
X60454100Y-32573400D01*
X129599700Y-26670000D02*
X135634900Y-32705200D01*
X66954100Y-32573400D02*
X74127500Y-25400000D01*
X74127500Y-25400000D02*
X120960000Y-25400000D01*
X120960000Y-25400000D02*
X122230000Y-26670000D01*
X122230000Y-26670000D02*
X129599700Y-26670000D01*
X135634900Y-32705200D02*
X135634900Y-44335000D01*
X135634900Y-44335000D02*
X137160000Y-44335000D01*
D30*
%TO.N,GND*%
X191770000Y-24084900D02*
X192994900Y-22860000D01*
X192994900Y-22860000D02*
X205740000Y-22860000D01*
X205740000Y-22860000D02*
X207010000Y-24130000D01*
X207010000Y-24130000D02*
X207010000Y-25285000D01*
X128270000Y-25285000D02*
X128270000Y-24130000D01*
X129540000Y-22860000D02*
X142285100Y-22860000D01*
X128270000Y-24130000D02*
X129540000Y-22860000D01*
X142285100Y-22860000D02*
X143510000Y-24084900D01*
X191770000Y-24084900D02*
X190545100Y-22860000D01*
X190545100Y-22860000D02*
X175214900Y-22860000D01*
X175214900Y-22860000D02*
X173990000Y-24084900D01*
X158750000Y-24084900D02*
X159974900Y-22860000D01*
X159974900Y-22860000D02*
X172765100Y-22860000D01*
X172765100Y-22860000D02*
X173990000Y-24084900D01*
X143510000Y-24084900D02*
X144734900Y-22860000D01*
X144734900Y-22860000D02*
X157525100Y-22860000D01*
X157525100Y-22860000D02*
X158750000Y-24084900D01*
D29*
%TO.N,RESET*%
X45720000Y-38100000D02*
X45720000Y-39175100D01*
X180205500Y-45484400D02*
X181354900Y-44335000D01*
X215900000Y-44335000D02*
X214374900Y-44335000D01*
X182880000Y-44335000D02*
X184405100Y-44335000D01*
X149725500Y-43185600D02*
X139834500Y-43185600D01*
X197969400Y-43169500D02*
X199134900Y-44335000D01*
X182880000Y-44335000D02*
X181354900Y-44335000D01*
X203365800Y-43154300D02*
X213194200Y-43154300D01*
X38484200Y-46410900D02*
X45720000Y-39175100D01*
X200660000Y-44335000D02*
X199134900Y-44335000D01*
X137160000Y-44335000D02*
X138685100Y-44335000D01*
X185570600Y-43169500D02*
X197969400Y-43169500D01*
X202185100Y-44335000D02*
X203365800Y-43154300D01*
X167640000Y-44335000D02*
X169165100Y-44335000D01*
X33020000Y-48260000D02*
X33020000Y-46410900D01*
X139834500Y-43185600D02*
X138685100Y-44335000D01*
X150874900Y-44335000D02*
X149725500Y-43185600D01*
X33020000Y-46410900D02*
X38484200Y-46410900D01*
X200660000Y-44335000D02*
X202185100Y-44335000D01*
X213194200Y-43154300D02*
X214374900Y-44335000D01*
X184405100Y-44335000D02*
X185570600Y-43169500D01*
X170314500Y-45484400D02*
X180205500Y-45484400D01*
X152400000Y-44335000D02*
X150874900Y-44335000D01*
X169165100Y-44335000D02*
X170314500Y-45484400D01*
D30*
%TO.N,GND*%
X105259900Y-86730100D02*
X101600000Y-90390000D01*
X99210100Y-90390000D02*
X101600000Y-90390000D01*
X150627500Y-81522500D02*
X161815000Y-81522500D01*
X162629900Y-80707600D02*
X162629900Y-80010000D01*
X111731200Y-154940000D02*
X111731200Y-163510000D01*
X196850000Y-80010000D02*
X198050100Y-80010000D01*
X95180100Y-86360000D02*
X99210100Y-90390000D01*
X210229100Y-116365000D02*
X210750200Y-115843900D01*
X173990000Y-25285000D02*
X173990000Y-24084900D01*
X114514700Y-55270200D02*
X114295000Y-55489900D01*
X146356200Y-63038700D02*
X147389900Y-64072400D01*
X144780000Y-46875000D02*
X146430100Y-46875000D01*
X210750200Y-82197700D02*
X210075000Y-81522500D01*
X114300000Y-147320000D02*
X112325900Y-147320000D01*
X113025100Y-68190000D02*
X113025100Y-60060000D01*
X148590000Y-80010000D02*
X149790100Y-80010000D01*
X101600000Y-95250000D02*
X101600000Y-94049900D01*
X149790100Y-80685100D02*
X150627500Y-81522500D01*
X143510000Y-25285000D02*
X143510000Y-24259900D01*
X160020000Y-46875000D02*
X158369900Y-46875000D01*
X67310000Y-88900000D02*
X67310000Y-87249900D01*
X91890000Y-87249900D02*
X92779900Y-86360000D01*
X212090000Y-80010000D02*
X210889900Y-80010000D01*
X191770000Y-25285000D02*
X191770000Y-24259900D01*
X195944500Y-48129400D02*
X196850000Y-48129400D01*
X157104200Y-48140700D02*
X147695800Y-48140700D01*
X179070000Y-48125100D02*
X190139800Y-48125100D01*
X198887500Y-81522500D02*
X210075000Y-81522500D01*
X39786700Y-33020000D02*
X49570000Y-33020000D01*
X163830000Y-80010000D02*
X165030100Y-80010000D01*
X198050100Y-80010000D02*
X198050100Y-80685100D01*
X129540000Y-55270200D02*
X129540000Y-46875000D01*
X111731200Y-147914700D02*
X111731200Y-154940000D01*
X193040000Y-46875000D02*
X194690100Y-46875000D01*
X35541200Y-28774500D02*
X39786700Y-33020000D01*
X191770000Y-24259900D02*
X191770000Y-24084900D01*
X178160200Y-48125100D02*
X179070000Y-48125100D01*
X208280000Y-46875000D02*
X206629900Y-46875000D01*
X209029000Y-116365000D02*
X210229100Y-116365000D01*
X147695800Y-61699100D02*
X146356200Y-63038700D01*
X93980000Y-86360000D02*
X95180100Y-86360000D01*
X147695800Y-48140700D02*
X147695800Y-61699100D01*
X133350000Y-64770000D02*
X133350000Y-63269900D01*
X112325900Y-147320000D02*
X111731200Y-147914700D01*
X101600000Y-90390000D02*
X101600000Y-94049900D01*
X193040000Y-46875000D02*
X191389900Y-46875000D01*
X93980000Y-86360000D02*
X92779900Y-86360000D01*
X114295000Y-85080000D02*
X114295000Y-86730100D01*
X129540000Y-55270200D02*
X114514700Y-55270200D01*
X148590000Y-64770000D02*
X147389900Y-64770000D01*
X177032500Y-81522500D02*
X165845000Y-81522500D01*
X158369900Y-46875000D02*
X157104200Y-48140700D01*
X179070000Y-64770000D02*
X179070000Y-48125100D01*
X30480000Y-110971900D02*
X33823100Y-114315000D01*
X179070000Y-80010000D02*
X177869900Y-80010000D01*
X81280000Y-154940000D02*
X111731200Y-154940000D01*
X190139800Y-48125100D02*
X191389900Y-46875000D01*
X114295000Y-57140000D02*
X114295000Y-55489900D01*
X177869900Y-80685100D02*
X177032500Y-81522500D01*
X128065000Y-46875000D02*
X123190000Y-42000000D01*
X147389900Y-64072400D02*
X147389900Y-64770000D01*
X110531100Y-163510000D02*
X111731200Y-163510000D01*
X114295000Y-86730100D02*
X105259900Y-86730100D01*
X30480000Y-86360000D02*
X30480000Y-110971900D01*
X133350000Y-63269900D02*
X133581200Y-63038700D01*
X54516600Y-28073400D02*
X49570000Y-33020000D01*
X133581200Y-63038700D02*
X133581200Y-59311400D01*
X210075000Y-81522500D02*
X210889900Y-80707600D01*
X60454100Y-28073400D02*
X54516600Y-28073400D01*
X198050100Y-80685100D02*
X198887500Y-81522500D01*
X77700100Y-116840000D02*
X74930000Y-116840000D01*
X147695800Y-48140700D02*
X146430100Y-46875000D01*
X114295000Y-57140000D02*
X114295000Y-58790100D01*
X196850000Y-64770000D02*
X196850000Y-48129400D01*
X66954100Y-28073400D02*
X60454100Y-28073400D01*
X88900000Y-128039900D02*
X77700100Y-116840000D01*
X161815000Y-81522500D02*
X162629900Y-80707600D01*
X175260000Y-46875000D02*
X176910100Y-46875000D01*
X205375500Y-48129400D02*
X206629900Y-46875000D01*
X165030100Y-80707600D02*
X165030100Y-80010000D01*
X113025100Y-60060000D02*
X114295000Y-58790100D01*
X149790100Y-80010000D02*
X149790100Y-80685100D01*
X143510000Y-24259900D02*
X143510000Y-24084900D01*
X133581200Y-59311400D02*
X129540000Y-55270200D01*
X196850000Y-48129400D02*
X205375500Y-48129400D01*
X88900000Y-129540000D02*
X88900000Y-128039900D01*
X35023200Y-114315000D02*
X33823100Y-114315000D01*
X163830000Y-80010000D02*
X162629900Y-80010000D01*
X123190000Y-42000000D02*
X123190000Y-40640000D01*
X114295000Y-71110000D02*
X114295000Y-69459900D01*
X114295000Y-69459900D02*
X113025100Y-68190000D01*
X133581200Y-63038700D02*
X146356200Y-63038700D01*
X177869900Y-80010000D02*
X177869900Y-80685100D01*
X67310000Y-87249900D02*
X91890000Y-87249900D01*
X210750200Y-115843900D02*
X210750200Y-82197700D01*
X210889900Y-80707600D02*
X210889900Y-80010000D01*
X176910100Y-46875000D02*
X178160200Y-48125100D01*
X129540000Y-46875000D02*
X128065000Y-46875000D01*
X158750000Y-25285000D02*
X158750000Y-24084900D01*
X165845000Y-81522500D02*
X165030100Y-80707600D01*
X194690100Y-46875000D02*
X195944500Y-48129400D01*
D29*
%TO.N,CLOCK*%
X95305900Y-26670000D02*
X77470000Y-26670000D01*
X77470000Y-26670000D02*
X64964800Y-39175200D01*
X47875700Y-39175200D02*
X40640000Y-46410900D01*
X102870000Y-33020000D02*
X101655900Y-33020000D01*
X40640000Y-46410900D02*
X40640000Y-48260000D01*
X64964800Y-39175200D02*
X47875700Y-39175200D01*
X101655900Y-33020000D02*
X95305900Y-26670000D01*
D30*
%TO.N,VCC*%
X93975000Y-48250000D02*
X95175100Y-48250000D01*
X43180000Y-48260000D02*
X43180000Y-50234100D01*
X104135000Y-61839900D02*
X106165200Y-61839900D01*
X41910000Y-101600000D02*
X41910000Y-102425000D01*
X104135000Y-63490000D02*
X104135000Y-61839900D01*
X52070000Y-67644900D02*
X52070000Y-66444800D01*
X30480000Y-76200000D02*
X31505100Y-76200000D01*
X114411000Y-163510000D02*
X114411000Y-164185100D01*
X41910000Y-102837500D02*
X37540800Y-102837500D01*
X93980000Y-62230000D02*
X95180100Y-62230000D01*
X104135000Y-80889900D02*
X104135000Y-77460000D01*
X99055000Y-48694900D02*
X95620000Y-48694900D01*
X93859000Y-143458900D02*
X90100100Y-139700000D01*
X51099300Y-65474100D02*
X52070000Y-66444800D01*
X99055000Y-77047400D02*
X99055000Y-76634900D01*
X93980000Y-76200000D02*
X95180100Y-76200000D01*
X35023200Y-104155000D02*
X33823100Y-104155000D01*
X50800000Y-63500000D02*
X50800000Y-65474100D01*
X101595000Y-77047400D02*
X99055000Y-77047400D01*
X112325900Y-131463100D02*
X100330100Y-143458900D01*
X44450000Y-103250100D02*
X42322600Y-103250100D01*
X167640000Y-29095000D02*
X165989900Y-29095000D01*
X33400100Y-76200000D02*
X34290000Y-75310100D01*
X34290000Y-73660000D02*
X34290000Y-75310100D01*
X43180000Y-50234100D02*
X29706000Y-50234100D01*
X105876100Y-172720000D02*
X101600000Y-172720000D01*
X95620000Y-48694900D02*
X95175100Y-48250000D01*
X106675000Y-83429900D02*
X104135000Y-80889900D01*
X93975000Y-45715000D02*
X93975000Y-48250000D01*
X106675000Y-49520000D02*
X106675000Y-47869900D01*
X73660000Y-154940000D02*
X74860100Y-154940000D01*
X114411000Y-164185100D02*
X105876100Y-172720000D01*
X101595000Y-63490000D02*
X101595000Y-63077400D01*
X154050100Y-27840700D02*
X154050100Y-26865200D01*
X43180000Y-50234100D02*
X43180000Y-53905900D01*
X27940000Y-50800000D02*
X29140100Y-50800000D01*
X35023200Y-104155000D02*
X36223300Y-104155000D01*
X99055000Y-63077400D02*
X99055000Y-62664900D01*
X114300000Y-99060000D02*
X112325900Y-99060000D01*
X33023900Y-103355800D02*
X33823100Y-104155000D01*
X50800000Y-65474100D02*
X51099300Y-65474100D01*
X95615000Y-76634900D02*
X95180100Y-76200000D01*
X29140100Y-65242000D02*
X29140100Y-50800000D01*
X101595000Y-77460000D02*
X101595000Y-77253700D01*
X103928700Y-77253700D02*
X104135000Y-77460000D01*
X99055000Y-63077400D02*
X101595000Y-63077400D01*
X50800000Y-63500000D02*
X50800000Y-61525900D01*
X154050100Y-29095000D02*
X154050100Y-27840700D01*
X42322600Y-103250100D02*
X41910000Y-102837500D01*
X44450000Y-101600000D02*
X44450000Y-103250100D01*
X99055000Y-76634900D02*
X95615000Y-76634900D01*
X153670000Y-25285000D02*
X153670000Y-26485100D01*
X101595000Y-77253700D02*
X101595000Y-77047400D01*
X33023900Y-76200000D02*
X33400100Y-76200000D01*
X152400000Y-29095000D02*
X154050100Y-29095000D01*
X101595000Y-77253700D02*
X103928700Y-77253700D01*
X37540800Y-102837500D02*
X36223300Y-104155000D01*
X104135000Y-49520000D02*
X104135000Y-47869900D01*
X99055000Y-49520000D02*
X99055000Y-48694900D01*
X109215000Y-57140000D02*
X109215000Y-58790100D01*
X99055000Y-77460000D02*
X99055000Y-77047400D01*
X27940000Y-67642200D02*
X27940000Y-66442100D01*
X99055000Y-48694900D02*
X99880000Y-47869900D01*
X106165200Y-61839900D02*
X109215000Y-58790100D01*
X33023900Y-76200000D02*
X33023900Y-103355800D01*
X106675000Y-47869900D02*
X104135000Y-47869900D01*
X165989900Y-29095000D02*
X164735600Y-27840700D01*
X164735600Y-27840700D02*
X154050100Y-27840700D01*
X76200000Y-154940000D02*
X74860100Y-154940000D01*
X99880000Y-47869900D02*
X104135000Y-47869900D01*
X115611100Y-163510000D02*
X114411000Y-163510000D01*
X77470000Y-29210000D02*
X93975000Y-45715000D01*
X106675000Y-85080000D02*
X106675000Y-83429900D01*
X99055000Y-63490000D02*
X99055000Y-63077400D01*
X100330100Y-143458900D02*
X93859000Y-143458900D01*
X27940000Y-66442100D02*
X29140100Y-65242000D01*
X154050100Y-26865200D02*
X153670000Y-26485100D01*
X95615000Y-62664900D02*
X95180100Y-62230000D01*
X88900000Y-139700000D02*
X90100100Y-139700000D01*
X112325900Y-99060000D02*
X112325900Y-131463100D01*
X41910000Y-102425000D02*
X41910000Y-102837500D01*
X43180000Y-53905900D02*
X50800000Y-61525900D01*
X29706000Y-50234100D02*
X29140100Y-50800000D01*
X31505100Y-76200000D02*
X33023900Y-76200000D01*
X99055000Y-62664900D02*
X95615000Y-62664900D01*
D29*
%TO.N,Net-(R1-Pad2)*%
X36882000Y-65349100D02*
X38100000Y-66567100D01*
X35560000Y-65349100D02*
X36882000Y-65349100D01*
X38100000Y-67642200D02*
X38100000Y-66567100D01*
X35560000Y-63500000D02*
X35560000Y-65349100D01*
%TO.N,IRQ*%
X111755000Y-83554900D02*
X110759300Y-83554900D01*
X110759300Y-83554900D02*
X105405000Y-78200600D01*
X91209200Y-74738600D02*
X91137800Y-74667200D01*
X105405000Y-76731300D02*
X103412300Y-74738600D01*
X105405000Y-78200600D02*
X105405000Y-76731300D01*
X111755000Y-85080000D02*
X111755000Y-83554900D01*
X103412300Y-74738600D02*
X91209200Y-74738600D01*
%TO.N,/A0*%
X64770000Y-116840000D02*
X64770000Y-118365100D01*
X40640000Y-128849100D02*
X77310900Y-128849100D01*
X66687200Y-120282300D02*
X71782700Y-120282300D01*
X99060000Y-142240000D02*
X97210900Y-142240000D01*
X71782700Y-120282300D02*
X77310900Y-125810500D01*
X64770000Y-118365100D02*
X66687200Y-120282300D01*
X93255500Y-138284600D02*
X97210900Y-142240000D01*
X40640000Y-127000000D02*
X40640000Y-128849100D01*
X77310900Y-128849100D02*
X86746400Y-138284600D01*
X77310900Y-125810500D02*
X77310900Y-128849100D01*
X86746400Y-138284600D02*
X93255500Y-138284600D01*
%TO.N,/A1*%
X62230000Y-115314900D02*
X65236200Y-115314900D01*
X55880000Y-77866300D02*
X52580700Y-81165600D01*
X65236200Y-115314900D02*
X66184800Y-116263500D01*
X79931800Y-127951300D02*
X88778100Y-136797600D01*
X94308500Y-136797600D02*
X97210900Y-139700000D01*
X66184800Y-117708400D02*
X68308600Y-119832200D01*
X79931800Y-125831900D02*
X79931800Y-127951300D01*
X68308600Y-119832200D02*
X73932100Y-119832200D01*
X62230000Y-116840000D02*
X62230000Y-115314900D01*
X55880000Y-63500000D02*
X55880000Y-77866300D01*
X73932100Y-119832200D02*
X79931800Y-125831900D01*
X66184800Y-116263500D02*
X66184800Y-117708400D01*
X88778100Y-136797600D02*
X94308500Y-136797600D01*
X99060000Y-139700000D02*
X97210900Y-139700000D01*
%TO.N,/A2*%
X87824800Y-128021100D02*
X78656100Y-118852400D01*
X58420000Y-76392700D02*
X52196800Y-82615900D01*
X100909100Y-129042600D02*
X100317600Y-128451100D01*
X100093800Y-133350000D02*
X100909100Y-132534700D01*
X87824800Y-130346900D02*
X87824800Y-128021100D01*
X88398800Y-130920900D02*
X87824800Y-130346900D01*
X97210900Y-137160000D02*
X97210900Y-134149100D01*
X69862900Y-118852400D02*
X68580000Y-117569500D01*
X89714800Y-130920900D02*
X88398800Y-130920900D01*
X68580000Y-117569500D02*
X68580000Y-116110300D01*
X98010000Y-133350000D02*
X100093800Y-133350000D01*
X78656100Y-118852400D02*
X69862900Y-118852400D01*
X60169000Y-114835900D02*
X59690000Y-115314900D01*
X59690000Y-116840000D02*
X59690000Y-115314900D01*
X67305600Y-114835900D02*
X60169000Y-114835900D01*
X68580000Y-116110300D02*
X67305600Y-114835900D01*
X100317600Y-128451100D02*
X92184600Y-128451100D01*
X92184600Y-128451100D02*
X89714800Y-130920900D01*
X99060000Y-137160000D02*
X97210900Y-137160000D01*
X58420000Y-63500000D02*
X58420000Y-76392700D01*
X100909100Y-132534700D02*
X100909100Y-129042600D01*
X97210900Y-134149100D02*
X98010000Y-133350000D01*
%TO.N,/A3*%
X100909100Y-134620000D02*
X101362800Y-134166300D01*
X101362800Y-124439600D02*
X100296000Y-123372800D01*
X57150000Y-116840000D02*
X57150000Y-118365100D01*
X88643900Y-114385700D02*
X58079200Y-114385700D01*
X57150000Y-118365100D02*
X54138500Y-118365100D01*
X53340000Y-116041100D02*
X52586900Y-115288000D01*
X101362800Y-134166300D02*
X101362800Y-124439600D01*
X58079200Y-114385700D02*
X57150000Y-115314900D01*
X53340000Y-117566600D02*
X53340000Y-116041100D01*
X50944800Y-114614400D02*
X51618400Y-115288000D01*
X97631000Y-123372800D02*
X88643900Y-114385700D01*
X60960000Y-74878300D02*
X60960000Y-63500000D01*
X54138500Y-118365100D02*
X53340000Y-117566600D01*
X99060000Y-134620000D02*
X100909100Y-134620000D01*
X57150000Y-116840000D02*
X57150000Y-115314900D01*
X48260000Y-127000000D02*
X48260000Y-125150900D01*
X50944800Y-115961600D02*
X50944800Y-122466100D01*
X51951600Y-83886700D02*
X60960000Y-74878300D01*
X100296000Y-123372800D02*
X97631000Y-123372800D01*
X51618400Y-115288000D02*
X50944800Y-115961600D01*
X52586900Y-115288000D02*
X51618400Y-115288000D01*
X51781100Y-83886700D02*
X51951600Y-83886700D01*
X49530000Y-99438200D02*
X50944800Y-100853000D01*
X49530000Y-88900000D02*
X49530000Y-99438200D01*
X50944800Y-100853000D02*
X50944800Y-114614400D01*
X50944800Y-122466100D02*
X48260000Y-125150900D01*
%TO.N,/A4*%
X55779300Y-103636600D02*
X55186500Y-104229400D01*
X97210900Y-106680000D02*
X88699700Y-98168800D01*
X63500000Y-61650900D02*
X63950100Y-61200800D01*
X88699700Y-98168800D02*
X66145600Y-98168800D01*
X66145600Y-98168800D02*
X63500000Y-100814400D01*
X50800000Y-90565000D02*
X50800000Y-88131900D01*
X60776700Y-103636600D02*
X55779300Y-103636600D01*
X50043000Y-87374900D02*
X46990000Y-87374900D01*
X54610000Y-116840000D02*
X54610000Y-115314900D01*
X46990000Y-88900000D02*
X46990000Y-87374900D01*
X63950100Y-61200800D02*
X73715700Y-61200800D01*
X74763900Y-62249000D02*
X74763900Y-69552100D01*
X55186500Y-104229400D02*
X54610000Y-104805900D01*
X62695900Y-103186500D02*
X61226800Y-103186500D01*
X61510200Y-82601000D02*
X57641500Y-86469700D01*
X63500000Y-102382400D02*
X62695900Y-103186500D01*
X63500000Y-100814400D02*
X63500000Y-102382400D01*
X54610000Y-104805900D02*
X54610000Y-115314900D01*
X55186500Y-104229400D02*
X53405900Y-102448900D01*
X73715700Y-61200800D02*
X74763900Y-62249000D01*
X63500000Y-63500000D02*
X63500000Y-61650900D01*
X57641500Y-86469700D02*
X52462200Y-86469700D01*
X99060000Y-106680000D02*
X97210900Y-106680000D01*
X52462200Y-86469700D02*
X50800000Y-88131900D01*
X61715000Y-82601000D02*
X61510200Y-82601000D01*
X53405900Y-102448900D02*
X53405900Y-93170900D01*
X50800000Y-88131900D02*
X50043000Y-87374900D01*
X61226800Y-103186500D02*
X60776700Y-103636600D01*
X53405900Y-93170900D02*
X50800000Y-90565000D01*
X74763900Y-69552100D02*
X61715000Y-82601000D01*
%TO.N,/A5*%
X44450000Y-88581700D02*
X44450000Y-88900000D01*
X72208900Y-70777200D02*
X61285300Y-81700800D01*
X52070000Y-116840000D02*
X52070000Y-118365100D01*
X52070000Y-118365100D02*
X58315300Y-124610400D01*
X66040000Y-63500000D02*
X66040000Y-61650900D01*
X47519700Y-85512000D02*
X44450000Y-88581700D01*
X58315300Y-124610400D02*
X73810400Y-124610400D01*
X73810400Y-124610400D02*
X76200000Y-127000000D01*
X66040000Y-61650900D02*
X71617400Y-61650900D01*
X72208900Y-62242400D02*
X72208900Y-70777200D01*
X57326000Y-85512000D02*
X47519700Y-85512000D01*
X61285300Y-81700800D02*
X61137200Y-81700800D01*
X71617400Y-61650900D02*
X72208900Y-62242400D01*
X61137200Y-81700800D02*
X57326000Y-85512000D01*
%TO.N,/A6*%
X44673100Y-84611800D02*
X53275500Y-84611800D01*
X53275500Y-84611800D02*
X63500000Y-74387300D01*
X63500000Y-70429100D02*
X68580000Y-65349100D01*
X41910000Y-88900000D02*
X41910000Y-87374900D01*
X68580000Y-63500000D02*
X68580000Y-65349100D01*
X63500000Y-74387300D02*
X63500000Y-70429100D01*
X41910000Y-87374900D02*
X44673100Y-84611800D01*
%TO.N,/A7*%
X42529700Y-90425100D02*
X43324800Y-89630000D01*
X71120000Y-63500000D02*
X71120000Y-65349100D01*
X66040000Y-70429100D02*
X71120000Y-65349100D01*
X39370000Y-88900000D02*
X39370000Y-90425100D01*
X43324800Y-87994800D02*
X46257700Y-85061900D01*
X42529700Y-90425100D02*
X42529700Y-95474600D01*
X42529700Y-90425100D02*
X39370000Y-90425100D01*
X46990000Y-116840000D02*
X46990000Y-115314900D01*
X46257700Y-85061900D02*
X55372500Y-85061900D01*
X45720000Y-98664900D02*
X45720000Y-114044900D01*
X66040000Y-74394400D02*
X66040000Y-70429100D01*
X42529700Y-95474600D02*
X45720000Y-98664900D01*
X45720000Y-114044900D02*
X46990000Y-115314900D01*
X43324800Y-89630000D02*
X43324800Y-87994800D01*
X55372500Y-85061900D02*
X66040000Y-74394400D01*
%TO.N,/A8*%
X57512500Y-85962100D02*
X47706100Y-85962100D01*
X61528500Y-82150900D02*
X61323700Y-82150900D01*
X45832500Y-87835700D02*
X45832500Y-96377400D01*
X47706100Y-85962100D02*
X45832500Y-87835700D01*
X73660000Y-65349100D02*
X73660000Y-70019400D01*
X73660000Y-70019400D02*
X61528500Y-82150900D01*
X45832500Y-96377400D02*
X49530000Y-100074900D01*
X73660000Y-63500000D02*
X73660000Y-65349100D01*
X49530000Y-101600000D02*
X49530000Y-100074900D01*
X61323700Y-82150900D02*
X57512500Y-85962100D01*
%TO.N,/A9*%
X76200000Y-63500000D02*
X76200000Y-68752600D01*
X61901500Y-83051100D02*
X61696700Y-83051100D01*
X57552900Y-87194900D02*
X53274500Y-87194900D01*
X76200000Y-68752600D02*
X61901500Y-83051100D01*
X61696700Y-83051100D02*
X57552900Y-87194900D01*
%TO.N,/A10*%
X62069600Y-83951300D02*
X61074500Y-84946400D01*
X78740000Y-67600800D02*
X62389500Y-83951300D01*
X62389500Y-83951300D02*
X62069600Y-83951300D01*
X61074500Y-98690400D02*
X59690000Y-100074900D01*
X78740000Y-63500000D02*
X78740000Y-67600800D01*
X61074500Y-84946400D02*
X61074500Y-98690400D01*
X59690000Y-101600000D02*
X59690000Y-100074900D01*
%TO.N,/A11*%
X81280000Y-61650900D02*
X78225900Y-61650900D01*
X77470000Y-62406800D02*
X77470000Y-68156700D01*
X78225900Y-61650900D02*
X77470000Y-62406800D01*
X58420000Y-86964300D02*
X58420000Y-96264900D01*
X81280000Y-63500000D02*
X81280000Y-61650900D01*
X54610000Y-101600000D02*
X54610000Y-100074900D01*
X58420000Y-96264900D02*
X54610000Y-100074900D01*
X77470000Y-68156700D02*
X62125500Y-83501200D01*
X62125500Y-83501200D02*
X61883100Y-83501200D01*
X61883100Y-83501200D02*
X58420000Y-86964300D01*
%TO.N,/A12*%
X54631800Y-44598700D02*
X52026100Y-47204400D01*
X78740000Y-48260000D02*
X78740000Y-46410900D01*
X76927800Y-44598700D02*
X54631800Y-44598700D01*
X52026100Y-47204400D02*
X52026100Y-55145900D01*
X78740000Y-46410900D02*
X76927800Y-44598700D01*
X52026100Y-55145900D02*
X49648300Y-57523700D01*
%TO.N,/A13*%
X76200000Y-48260000D02*
X76200000Y-48446300D01*
X53446400Y-68108200D02*
X53446400Y-66796100D01*
X76200000Y-48446300D02*
X82339400Y-54585700D01*
X39370000Y-72134900D02*
X41884500Y-69620400D01*
X56774900Y-45048900D02*
X72802600Y-45048900D01*
X103105800Y-54585700D02*
X104135000Y-55614900D01*
X53446400Y-66796100D02*
X52251100Y-65600800D01*
X52251100Y-60417000D02*
X54606400Y-58061700D01*
X51934200Y-69620400D02*
X53446400Y-68108200D01*
X54606400Y-58061700D02*
X54606400Y-47217400D01*
X41884500Y-69620400D02*
X51934200Y-69620400D01*
X82339400Y-54585700D02*
X103105800Y-54585700D01*
X52251100Y-65600800D02*
X52251100Y-60417000D01*
X72802600Y-45048900D02*
X76200000Y-48446300D01*
X54606400Y-47217400D02*
X56774900Y-45048900D01*
X39370000Y-73660000D02*
X39370000Y-72134900D01*
X104135000Y-57140000D02*
X104135000Y-55614900D01*
%TO.N,/A14*%
X50422800Y-70600300D02*
X48288200Y-72734900D01*
X54609800Y-59331500D02*
X54609800Y-67611500D01*
X57150000Y-47228200D02*
X57150000Y-56791300D01*
X54609800Y-67611500D02*
X51621000Y-70600300D01*
X101595000Y-57140000D02*
X101595000Y-55614900D01*
X73660000Y-48260000D02*
X73660000Y-50109100D01*
X73660000Y-48260000D02*
X70900700Y-45500700D01*
X35274500Y-87374900D02*
X34290000Y-87374900D01*
X57150000Y-56791300D02*
X54609800Y-59331500D01*
X51621000Y-70600300D02*
X50422800Y-70600300D01*
X58877500Y-45500700D02*
X57150000Y-47228200D01*
X101595000Y-55614900D02*
X79165800Y-55614900D01*
X48288200Y-74361200D02*
X35274500Y-87374900D01*
X79165800Y-55614900D02*
X73660000Y-50109100D01*
X48288200Y-72734900D02*
X48288200Y-74361200D01*
X34290000Y-88900000D02*
X34290000Y-87374900D01*
X70900700Y-45500700D02*
X58877500Y-45500700D01*
%TO.N,/A15*%
X107945000Y-64235100D02*
X107945000Y-62682800D01*
X108662900Y-61964900D02*
X111755000Y-61964900D01*
X101595000Y-71110000D02*
X101595000Y-70558400D01*
X101595000Y-70347400D02*
X99055000Y-70347400D01*
X99055000Y-71110000D02*
X99055000Y-70347400D01*
X101832700Y-70347400D02*
X107945000Y-64235100D01*
X71120000Y-48260000D02*
X71120000Y-50109100D01*
X101595000Y-70558400D02*
X101595000Y-70347400D01*
X111755000Y-63490000D02*
X111755000Y-61964900D01*
X101595000Y-70347400D02*
X101832700Y-70347400D01*
X107945000Y-62682800D02*
X108662900Y-61964900D01*
X71120000Y-50109100D02*
X91358300Y-70347400D01*
X91358300Y-70347400D02*
X99055000Y-70347400D01*
%TO.N,/D7*%
X84137600Y-98686700D02*
X67683300Y-98686700D01*
X57150000Y-61650900D02*
X59690000Y-59110900D01*
X99060000Y-111760000D02*
X97210900Y-111760000D01*
X59690000Y-59110900D02*
X59690000Y-47209600D01*
X59690000Y-47209600D02*
X60943700Y-45955900D01*
X57150000Y-73660000D02*
X57150000Y-61650900D01*
X97210900Y-111760000D02*
X84137600Y-98686700D01*
X68580000Y-48260000D02*
X68580000Y-46410900D01*
X60943700Y-45955900D02*
X68125000Y-45955900D01*
X67683300Y-98686700D02*
X64770000Y-101600000D01*
X68125000Y-45955900D02*
X68580000Y-46410900D01*
%TO.N,/D6*%
X62412800Y-47027100D02*
X62412800Y-49768900D01*
X61596800Y-57840700D02*
X59690000Y-59747500D01*
X62412800Y-49768900D02*
X61596800Y-50584900D01*
X63029000Y-46410900D02*
X62412800Y-47027100D01*
X66040000Y-48260000D02*
X66040000Y-46410900D01*
X61596800Y-50584900D02*
X61596800Y-57840700D01*
X97210900Y-114300000D02*
X82047800Y-99136900D01*
X68248000Y-99136900D02*
X67310000Y-100074900D01*
X82047800Y-99136900D02*
X68248000Y-99136900D01*
X59690000Y-59747500D02*
X59690000Y-73660000D01*
X67310000Y-101600000D02*
X67310000Y-100074900D01*
X66040000Y-46410900D02*
X63029000Y-46410900D01*
X99060000Y-114300000D02*
X97210900Y-114300000D01*
%TO.N,/D5*%
X63500000Y-48260000D02*
X63500000Y-50109100D01*
X70335600Y-99589300D02*
X79960200Y-99589300D01*
X62230000Y-51379100D02*
X63500000Y-50109100D01*
X69850000Y-101600000D02*
X69850000Y-100074900D01*
X99060000Y-116840000D02*
X97210900Y-116840000D01*
X79960200Y-99589300D02*
X97210900Y-116840000D01*
X62230000Y-73660000D02*
X62230000Y-51379100D01*
X69850000Y-100074900D02*
X70335600Y-99589300D01*
%TO.N,/D4*%
X77905800Y-100074900D02*
X97210900Y-119380000D01*
X99060000Y-119380000D02*
X97210900Y-119380000D01*
X72390000Y-101600000D02*
X72390000Y-100074900D01*
X72390000Y-100074900D02*
X77905800Y-100074900D01*
%TO.N,/D3*%
X99060000Y-121920000D02*
X97210900Y-121920000D01*
X74930000Y-103012500D02*
X78303400Y-103012500D01*
X74930000Y-101600000D02*
X74930000Y-103012500D01*
X78303400Y-103012500D02*
X97210900Y-121920000D01*
%TO.N,/D2*%
X72856900Y-114848000D02*
X87598900Y-114848000D01*
X99060000Y-124460000D02*
X97210900Y-124460000D01*
X72390000Y-115314900D02*
X72856900Y-114848000D01*
X87598900Y-114848000D02*
X97210900Y-124460000D01*
X72390000Y-116840000D02*
X72390000Y-115314900D01*
%TO.N,/D1*%
X72846500Y-118402200D02*
X71412200Y-118402200D01*
X99060000Y-127000000D02*
X97210900Y-127000000D01*
X97210900Y-127000000D02*
X85509100Y-115298200D01*
X71412200Y-118402200D02*
X69850000Y-116840000D01*
X73660000Y-116092200D02*
X73660000Y-117588700D01*
X73660000Y-117588700D02*
X72846500Y-118402200D01*
X85509100Y-115298200D02*
X74454000Y-115298200D01*
X74454000Y-115298200D02*
X73660000Y-116092200D01*
%TO.N,/D0*%
X99060000Y-129540000D02*
X97210900Y-129540000D01*
X67310000Y-116840000D02*
X67310000Y-116999200D01*
X88212300Y-131371000D02*
X95379900Y-131371000D01*
X69692900Y-119382100D02*
X78549100Y-119382100D01*
X67310000Y-116999200D02*
X69692900Y-119382100D01*
X95379900Y-131371000D02*
X97210900Y-129540000D01*
X78549100Y-119382100D02*
X87258400Y-128091400D01*
X87258400Y-130417100D02*
X88212300Y-131371000D01*
X87258400Y-128091400D02*
X87258400Y-130417100D01*
%TO.N,ROM_OE*%
X65958400Y-95167700D02*
X65958400Y-87731400D01*
X57150000Y-103125100D02*
X60207700Y-103125100D01*
X79817600Y-73872200D02*
X91368500Y-73872200D01*
X60815200Y-100310900D02*
X65958400Y-95167700D01*
X109215000Y-71110000D02*
X109215000Y-72635100D01*
X104135000Y-72635100D02*
X109215000Y-72635100D01*
X104135000Y-71110000D02*
X104135000Y-72522500D01*
X60207700Y-103125100D02*
X60815200Y-102517600D01*
X91368500Y-73872200D02*
X91725700Y-74229400D01*
X102540700Y-74229400D02*
X104135000Y-72635100D01*
X60815200Y-102517600D02*
X60815200Y-100310900D01*
X57150000Y-101600000D02*
X57150000Y-103125100D01*
X104135000Y-72522500D02*
X104135000Y-72635100D01*
X65958400Y-87731400D02*
X79817600Y-73872200D01*
X91725700Y-74229400D02*
X102540700Y-74229400D01*
%TO.N,RAM_OE*%
X92534800Y-73765200D02*
X100948800Y-73765200D01*
X102865000Y-71849000D02*
X102865000Y-70307500D01*
X62369900Y-84676400D02*
X73678400Y-73367900D01*
X111755000Y-71110000D02*
X111755000Y-69584900D01*
X102865000Y-70307500D02*
X103587600Y-69584900D01*
X49530000Y-73660000D02*
X49530000Y-72134900D01*
X54610000Y-73660000D02*
X54610000Y-72134900D01*
X103587600Y-69584900D02*
X111755000Y-69584900D01*
X49530000Y-72134900D02*
X54610000Y-72134900D01*
X100948800Y-73765200D02*
X102865000Y-71849000D01*
X92137500Y-73367900D02*
X92534800Y-73765200D01*
X73678400Y-73367900D02*
X92137500Y-73367900D01*
%TO.N,IO_CS*%
X100909100Y-104140000D02*
X115910100Y-89139000D01*
X115910100Y-89139000D02*
X115910100Y-66630200D01*
X99060000Y-104140000D02*
X100909100Y-104140000D01*
X114295000Y-63490000D02*
X114295000Y-65015100D01*
X115910100Y-66630200D02*
X114295000Y-65015100D01*
%TO.N,ROM_CS*%
X112900000Y-69856000D02*
X109215000Y-66171000D01*
X62230000Y-100074900D02*
X65354100Y-96950800D01*
X115426700Y-86430100D02*
X115426700Y-82589600D01*
X112900000Y-80062900D02*
X112900000Y-69856000D01*
X65354100Y-96950800D02*
X104906000Y-96950800D01*
X115426700Y-82589600D02*
X112900000Y-80062900D01*
X62230000Y-101600000D02*
X62230000Y-100074900D01*
X104906000Y-96950800D02*
X115426700Y-86430100D01*
X109215000Y-66171000D02*
X109215000Y-63490000D01*
%TO.N,SD_Detect*%
X97831100Y-172761100D02*
X97831100Y-163510000D01*
X111760000Y-175260000D02*
X100330000Y-175260000D01*
X111760000Y-172720000D02*
X111760000Y-175260000D01*
X100330000Y-175260000D02*
X97831100Y-172761100D01*
%TO.N,7Seg_CS*%
X198009800Y-38129900D02*
X199134900Y-39255000D01*
X200660000Y-39255000D02*
X202185100Y-39255000D01*
X139834500Y-38105600D02*
X149725500Y-38105600D01*
X152400000Y-39255000D02*
X150874900Y-39255000D01*
X180198000Y-40411900D02*
X181354900Y-39255000D01*
X182880000Y-39255000D02*
X181354900Y-39255000D01*
X213184300Y-38064400D02*
X214374900Y-39255000D01*
X137160000Y-39255000D02*
X138685100Y-39255000D01*
X200660000Y-39255000D02*
X199134900Y-39255000D01*
X215900000Y-39255000D02*
X214374900Y-39255000D01*
X203375700Y-38064400D02*
X213184300Y-38064400D01*
X170322000Y-40411900D02*
X180198000Y-40411900D01*
X202185100Y-39255000D02*
X203375700Y-38064400D01*
X184405100Y-39255000D02*
X185530200Y-38129900D01*
X167640000Y-39255000D02*
X169165100Y-39255000D01*
X169165100Y-39255000D02*
X170322000Y-40411900D01*
X138685100Y-39255000D02*
X139834500Y-38105600D01*
X149725500Y-38105600D02*
X150874900Y-39255000D01*
X185530200Y-38129900D02*
X198009800Y-38129900D01*
X182880000Y-39255000D02*
X184405100Y-39255000D01*
%TO.N,Net-(R5-Pad1)*%
X131065100Y-43320100D02*
X137354900Y-49609900D01*
X131065100Y-29095000D02*
X131065100Y-43320100D01*
X129540000Y-29095000D02*
X131065100Y-29095000D01*
X138430000Y-50685000D02*
X137354900Y-50685000D01*
X137354900Y-49609900D02*
X137354900Y-50685000D01*
%TO.N,Net-(R11-Pad1)*%
X131065100Y-48500400D02*
X137354900Y-54790200D01*
X129540000Y-44335000D02*
X131065100Y-44335000D01*
X131065100Y-44335000D02*
X131065100Y-48500400D01*
%TO.N,Net-(R25-Pad1)*%
X160020000Y-39255000D02*
X161545100Y-39255000D01*
X162040900Y-39750800D02*
X162040900Y-48559000D01*
X162040900Y-48559000D02*
X161290000Y-49309900D01*
X161290000Y-50685000D02*
X161290000Y-49309900D01*
X161545100Y-39255000D02*
X162040900Y-39750800D01*
%TO.N,Net-(R26-Pad1)*%
X158750000Y-50685000D02*
X159825100Y-50685000D01*
X161545100Y-41795000D02*
X161545100Y-47889900D01*
X159825100Y-49609900D02*
X159825100Y-50685000D01*
X160020000Y-41795000D02*
X161545100Y-41795000D01*
X161545100Y-47889900D02*
X159825100Y-49609900D01*
%TO.N,Net-(R45-Pad1)*%
X217880800Y-34155000D02*
X217880800Y-48599100D01*
X208280000Y-29095000D02*
X209805100Y-29095000D01*
X216630800Y-32905000D02*
X217880800Y-34155000D01*
X209805100Y-29095000D02*
X213615100Y-32905000D01*
X217880800Y-48599100D02*
X217170000Y-49309900D01*
X213615100Y-32905000D02*
X216630800Y-32905000D01*
X217170000Y-50685000D02*
X217170000Y-49309900D01*
%TO.N,Net-(U10-Pad14)*%
X152400000Y-34175000D02*
X153925100Y-34175000D01*
X137160000Y-46875000D02*
X138685100Y-46875000D01*
X139955100Y-45605000D02*
X138685100Y-46875000D01*
X153149700Y-45605000D02*
X139955100Y-45605000D01*
X153925100Y-44829600D02*
X153149700Y-45605000D01*
X153925100Y-34175000D02*
X153925100Y-44829600D01*
%TO.N,SPI_CLK*%
X202185100Y-41795000D02*
X203334500Y-40645600D01*
X149725500Y-40645600D02*
X150874900Y-41795000D01*
X182880000Y-41795000D02*
X184405100Y-41795000D01*
X139834500Y-40645600D02*
X149725500Y-40645600D01*
X184405100Y-41795000D02*
X185595600Y-40604500D01*
X213225500Y-40645600D02*
X214374900Y-41795000D01*
X167640000Y-41795000D02*
X169165100Y-41795000D01*
X182880000Y-41795000D02*
X181354900Y-41795000D01*
X215900000Y-41795000D02*
X214374900Y-41795000D01*
X138685100Y-41795000D02*
X139834500Y-40645600D01*
X185595600Y-40604500D02*
X197944400Y-40604500D01*
X170334500Y-42964400D02*
X180185500Y-42964400D01*
X200660000Y-41795000D02*
X202185100Y-41795000D01*
X203334500Y-40645600D02*
X213225500Y-40645600D01*
X169165100Y-41795000D02*
X170334500Y-42964400D01*
X180185500Y-42964400D02*
X181354900Y-41795000D01*
X137160000Y-41795000D02*
X138685100Y-41795000D01*
X152400000Y-41795000D02*
X150874900Y-41795000D01*
X197944400Y-40604500D02*
X199134900Y-41795000D01*
X200660000Y-41795000D02*
X199134900Y-41795000D01*
%TO.N,7seg_OE*%
X152400000Y-36715000D02*
X150874900Y-36715000D01*
X185595600Y-35524500D02*
X197944400Y-35524500D01*
X200660000Y-36715000D02*
X199134900Y-36715000D01*
X169165100Y-36715000D02*
X170298500Y-37848400D01*
X137160000Y-36715000D02*
X138685100Y-36715000D01*
X139834500Y-35565600D02*
X149725500Y-35565600D01*
X213225500Y-35565600D02*
X214374900Y-36715000D01*
X200660000Y-36715000D02*
X202185100Y-36715000D01*
X184405100Y-36715000D02*
X185595600Y-35524500D01*
X197944400Y-35524500D02*
X199134900Y-36715000D01*
X180221500Y-37848400D02*
X181354900Y-36715000D01*
X203334500Y-35565600D02*
X213225500Y-35565600D01*
X215900000Y-36715000D02*
X214374900Y-36715000D01*
X149725500Y-35565600D02*
X150874900Y-36715000D01*
X202185100Y-36715000D02*
X203334500Y-35565600D01*
X167640000Y-36715000D02*
X169165100Y-36715000D01*
X138685100Y-36715000D02*
X139834500Y-35565600D01*
X182880000Y-36715000D02*
X184405100Y-36715000D01*
X182880000Y-36715000D02*
X181354900Y-36715000D01*
X170298500Y-37848400D02*
X180221500Y-37848400D01*
%TO.N,Net-(U10-Pad9)*%
X161175600Y-38058900D02*
X165059500Y-34175000D01*
X152400000Y-46875000D02*
X153925100Y-46875000D01*
X153925100Y-46875000D02*
X157617900Y-43182200D01*
X165059500Y-34175000D02*
X167640000Y-34175000D01*
X157617900Y-43182200D02*
X157617900Y-39622400D01*
X159181400Y-38058900D02*
X161175600Y-38058900D01*
X157617900Y-39622400D02*
X159181400Y-38058900D01*
%TO.N,Net-(U11-Pad9)*%
X180084900Y-35445000D02*
X166915400Y-35445000D01*
X166915400Y-35445000D02*
X166114900Y-36245500D01*
X182880000Y-34175000D02*
X181354900Y-34175000D01*
X181354900Y-34175000D02*
X180084900Y-35445000D01*
X167640000Y-46875000D02*
X166114900Y-46875000D01*
X166114900Y-36245500D02*
X166114900Y-46875000D01*
%TO.N,Net-(U13-Pad9)*%
X200660000Y-46875000D02*
X202185100Y-46875000D01*
X217430600Y-44823100D02*
X217430600Y-35705600D01*
X217430600Y-35705600D02*
X215900000Y-34175000D01*
X216648700Y-45605000D02*
X217430600Y-44823100D01*
X203455100Y-45605000D02*
X216648700Y-45605000D01*
X202185100Y-46875000D02*
X203455100Y-45605000D01*
%TO.N,KeyRow5*%
X197612000Y-116390000D02*
X200219100Y-116390000D01*
X165920000Y-111760000D02*
X174821000Y-111760000D01*
X200219100Y-116390000D02*
X209029000Y-107580100D01*
X174821000Y-111760000D02*
X179451000Y-116390000D01*
X143129000Y-116390000D02*
X161290000Y-116390000D01*
X161290000Y-116390000D02*
X165920000Y-111760000D01*
X209029000Y-106205000D02*
X209029000Y-107580100D01*
%TO.N,KeyRow4*%
X143129000Y-133535000D02*
X161290000Y-133535000D01*
X114300000Y-137160000D02*
X139504000Y-137160000D01*
X197612000Y-133535000D02*
X197612000Y-131304300D01*
X161290000Y-133535000D02*
X179451000Y-133535000D01*
X205371300Y-123545000D02*
X209029000Y-123545000D01*
X197612000Y-131304300D02*
X205371300Y-123545000D01*
X197612000Y-133535000D02*
X179451000Y-133535000D01*
X139504000Y-137160000D02*
X143129000Y-133535000D01*
%TO.N,KeyRow3*%
X179451000Y-150680000D02*
X161290000Y-150680000D01*
X199914100Y-150680000D02*
X209029000Y-141565100D01*
X161290000Y-150680000D02*
X143129000Y-150680000D01*
X116149100Y-139700000D02*
X127129100Y-150680000D01*
X114300000Y-139700000D02*
X116149100Y-139700000D01*
X127129100Y-150680000D02*
X143129000Y-150680000D01*
X209029000Y-140190000D02*
X209029000Y-141565100D01*
X197612000Y-150680000D02*
X179451000Y-150680000D01*
X197612000Y-150680000D02*
X199914100Y-150680000D01*
%TO.N,KeyRow2*%
X207953900Y-158962700D02*
X207953900Y-157970000D01*
X161290000Y-167825000D02*
X179451000Y-167825000D01*
X139253200Y-163949200D02*
X143129000Y-167825000D01*
X116149100Y-142240000D02*
X116149100Y-142347700D01*
X197612000Y-167825000D02*
X179451000Y-167825000D01*
X197612000Y-167825000D02*
X199091600Y-167825000D01*
X143129000Y-167825000D02*
X161290000Y-167825000D01*
X114300000Y-142240000D02*
X116149100Y-142240000D01*
X116149100Y-142347700D02*
X137750600Y-163949200D01*
X137750600Y-163949200D02*
X139253200Y-163949200D01*
X199091600Y-167825000D02*
X207953900Y-158962700D01*
X209029000Y-157970000D02*
X207953900Y-157970000D01*
%TO.N,KeyRow1*%
X116149100Y-146394300D02*
X140925300Y-171170500D01*
X161290000Y-184970000D02*
X179451000Y-184970000D01*
X116149100Y-144780000D02*
X116149100Y-146394300D01*
X179451000Y-184970000D02*
X197612000Y-184970000D01*
X114300000Y-144780000D02*
X116149100Y-144780000D01*
X197612000Y-184970000D02*
X200304100Y-184970000D01*
X140925300Y-182766300D02*
X143129000Y-184970000D01*
X140925300Y-171170500D02*
X140925300Y-182766300D01*
X200304100Y-184970000D02*
X209029000Y-176245100D01*
X143129000Y-184970000D02*
X161290000Y-184970000D01*
X209029000Y-174870000D02*
X209029000Y-176245100D01*
%TO.N,KeyCol1*%
X123759100Y-114290000D02*
X138129000Y-114290000D01*
X116149100Y-106680000D02*
X123759100Y-114290000D01*
X114300000Y-106680000D02*
X116149100Y-106680000D01*
%TO.N,KeyCol2*%
X142192900Y-114290000D02*
X156290000Y-114290000D01*
X114300000Y-109220000D02*
X116149100Y-109220000D01*
X139642900Y-116840000D02*
X142192900Y-114290000D01*
X123769100Y-116840000D02*
X139642900Y-116840000D01*
X116149100Y-109220000D02*
X123769100Y-116840000D01*
%TO.N,KeyCol3*%
X170631000Y-118110000D02*
X122499100Y-118110000D01*
X116149100Y-111760000D02*
X114300000Y-111760000D01*
X122499100Y-118110000D02*
X116149100Y-111760000D01*
X174451000Y-114290000D02*
X170631000Y-118110000D01*
%TO.N,KeyCol4*%
X187522000Y-119380000D02*
X188669300Y-118232700D01*
X121229100Y-119380000D02*
X187522000Y-119380000D01*
X188669300Y-127492300D02*
X188669300Y-118232700D01*
X116149100Y-114300000D02*
X121229100Y-119380000D01*
X114300000Y-114300000D02*
X116149100Y-114300000D01*
X192612000Y-131435000D02*
X188669300Y-127492300D01*
X188669300Y-118232700D02*
X192612000Y-114290000D01*
%TD*%
M02*
