%TF.GenerationSoftware,KiCad,Pcbnew,7.0.10*%
%TF.CreationDate,2024-02-09T21:03:48+13:00*%
%TF.ProjectId,Alius_6502,416c6975-735f-4363-9530-322e6b696361,rev?*%
%TF.SameCoordinates,Original*%
%TF.FileFunction,Copper,L2,Bot*%
%TF.FilePolarity,Positive*%
%FSLAX46Y46*%
G04 Gerber Fmt 4.6, Leading zero omitted, Abs format (unit mm)*
G04 Created by KiCad (PCBNEW 7.0.10) date 2024-02-09 21:03:48*
%MOMM*%
%LPD*%
G01*
G04 APERTURE LIST*
%TA.AperFunction,ComponentPad*%
%ADD10C,1.600000*%
%TD*%
%TA.AperFunction,ComponentPad*%
%ADD11O,1.600000X1.600000*%
%TD*%
%TA.AperFunction,ComponentPad*%
%ADD12O,1.500000X2.100000*%
%TD*%
%TA.AperFunction,ComponentPad*%
%ADD13R,1.600000X1.600000*%
%TD*%
%TA.AperFunction,ComponentPad*%
%ADD14R,2.400000X1.600000*%
%TD*%
%TA.AperFunction,ComponentPad*%
%ADD15O,2.400000X1.600000*%
%TD*%
%TA.AperFunction,ComponentPad*%
%ADD16C,2.100000*%
%TD*%
%TA.AperFunction,ComponentPad*%
%ADD17R,1.600000X2.400000*%
%TD*%
%TA.AperFunction,ComponentPad*%
%ADD18O,1.600000X2.400000*%
%TD*%
%TA.AperFunction,ComponentPad*%
%ADD19O,2.100000X1.500000*%
%TD*%
%TA.AperFunction,ComponentPad*%
%ADD20R,1.778000X1.778000*%
%TD*%
%TA.AperFunction,ComponentPad*%
%ADD21C,1.778000*%
%TD*%
%TA.AperFunction,ComponentPad*%
%ADD22R,1.500000X2.100000*%
%TD*%
%TA.AperFunction,ComponentPad*%
%ADD23R,1.524000X3.048000*%
%TD*%
%TA.AperFunction,ComponentPad*%
%ADD24O,1.524000X3.048000*%
%TD*%
%TA.AperFunction,ComponentPad*%
%ADD25C,1.700000*%
%TD*%
%TA.AperFunction,ComponentPad*%
%ADD26R,3.048000X1.524000*%
%TD*%
%TA.AperFunction,ComponentPad*%
%ADD27O,3.048000X1.524000*%
%TD*%
%TA.AperFunction,ViaPad*%
%ADD28C,0.800000*%
%TD*%
%TA.AperFunction,Conductor*%
%ADD29C,0.250000*%
%TD*%
%TA.AperFunction,Conductor*%
%ADD30C,0.500000*%
%TD*%
G04 APERTURE END LIST*
D10*
%TO.P,C8,1*%
%TO.N,VCC*%
X30480000Y-77530000D03*
D11*
%TO.P,C8,2*%
%TO.N,GND*%
X30480000Y-85030000D03*
%TD*%
D12*
%TO.P,R44,1*%
%TO.N,Net-(U14-QA)*%
X214630000Y-50685000D03*
%TO.P,R44,2*%
%TO.N,Net-(LED6-A)*%
X214630000Y-60845000D03*
%TD*%
%TO.P,R41,1*%
%TO.N,Net-(U13-QF)*%
X194390000Y-50685000D03*
%TO.P,R41,2*%
%TO.N,Net-(LED5-F)*%
X194390000Y-60845000D03*
%TD*%
%TO.P,R14,1*%
%TO.N,Net-(U10-QC)*%
X151130000Y-93865000D03*
%TO.P,R14,2*%
%TO.N,Net-(LED2-C)*%
X151130000Y-83705000D03*
%TD*%
%TO.P,R31,1*%
%TO.N,Net-(U12-QD)*%
X176530000Y-93865000D03*
%TO.P,R31,2*%
%TO.N,Net-(LED4-D)*%
X176530000Y-83705000D03*
%TD*%
%TO.P,R27,1*%
%TO.N,Net-(U11-QH)*%
X168910000Y-93865000D03*
%TO.P,R27,2*%
%TO.N,Net-(LED3-DP)*%
X168910000Y-83705000D03*
%TD*%
D13*
%TO.P,C1,1*%
%TO.N,RESET_BTN*%
X52070000Y-33020000D03*
D10*
%TO.P,C1,2*%
%TO.N,GND*%
X49570000Y-33020000D03*
%TD*%
D14*
%TO.P,U14,1,QB*%
%TO.N,Net-(U14-QB)*%
X208280000Y-29095000D03*
D15*
%TO.P,U14,2,QC*%
%TO.N,Net-(U14-QC)*%
X208280000Y-31635000D03*
%TO.P,U14,3,QD*%
%TO.N,Net-(U14-QD)*%
X208280000Y-34175000D03*
%TO.P,U14,4,QE*%
%TO.N,Net-(U14-QE)*%
X208280000Y-36715000D03*
%TO.P,U14,5,QF*%
%TO.N,Net-(U14-QF)*%
X208280000Y-39255000D03*
%TO.P,U14,6,QG*%
%TO.N,Net-(U14-QG)*%
X208280000Y-41795000D03*
%TO.P,U14,7,QH*%
%TO.N,Net-(U14-QH)*%
X208280000Y-44335000D03*
%TO.P,U14,8,GND*%
%TO.N,GND*%
X208280000Y-46875000D03*
%TO.P,U14,9,QH'*%
%TO.N,unconnected-(U14-QH'-Pad9)*%
X215900000Y-46875000D03*
%TO.P,U14,10,~{SRCLR}*%
%TO.N,RESET*%
X215900000Y-44335000D03*
%TO.P,U14,11,SRCLK*%
%TO.N,SPI_CLK*%
X215900000Y-41795000D03*
%TO.P,U14,12,RCLK*%
%TO.N,7Seg_CS*%
X215900000Y-39255000D03*
%TO.P,U14,13,~{OE}*%
%TO.N,7seg_OE*%
X215900000Y-36715000D03*
%TO.P,U14,14,SER*%
%TO.N,Net-(U13-QH')*%
X215900000Y-34175000D03*
%TO.P,U14,15,QA*%
%TO.N,Net-(U14-QA)*%
X215900000Y-31635000D03*
%TO.P,U14,16,VCC*%
%TO.N,VCC*%
X215900000Y-29095000D03*
%TD*%
D12*
%TO.P,R39,1*%
%TO.N,Net-(U13-QD)*%
X194310000Y-93865000D03*
%TO.P,R39,2*%
%TO.N,Net-(LED5-D)*%
X194310000Y-83705000D03*
%TD*%
D16*
%TO.P,SW_C1,1,1*%
%TO.N,KeyRow5*%
X143129000Y-116390000D03*
%TO.P,SW_C1,2,2*%
%TO.N,KeyCol1*%
X138129000Y-114290000D03*
%TD*%
D17*
%TO.P,U3,1,1Y*%
%TO.N,ROM_CS*%
X99055000Y-57140000D03*
D18*
%TO.P,U3,2,1A*%
%TO.N,/A14*%
X101595000Y-57140000D03*
%TO.P,U3,3,1B*%
%TO.N,/A13*%
X104135000Y-57140000D03*
%TO.P,U3,4,2Y*%
%TO.N,unconnected-(U3-2Y-Pad4)*%
X106675000Y-57140000D03*
%TO.P,U3,5,2A*%
%TO.N,VCC*%
X109215000Y-57140000D03*
%TO.P,U3,6,2B*%
X111755000Y-57140000D03*
%TO.P,U3,7,GND*%
%TO.N,GND*%
X114295000Y-57140000D03*
%TO.P,U3,8,3A*%
%TO.N,RESET_BTN*%
X114295000Y-49520000D03*
%TO.P,U3,9,3B*%
X111755000Y-49520000D03*
%TO.P,U3,10,3Y*%
%TO.N,Net-(U3-3Y)*%
X109215000Y-49520000D03*
%TO.P,U3,11,4A*%
X106675000Y-49520000D03*
%TO.P,U3,12,4B*%
X104135000Y-49520000D03*
%TO.P,U3,13,4Y*%
%TO.N,RESET*%
X101595000Y-49520000D03*
%TO.P,U3,14,VCC*%
%TO.N,VCC*%
X99055000Y-49520000D03*
%TD*%
D12*
%TO.P,R54,1*%
%TO.N,KeyRow3*%
X209029000Y-150350000D03*
%TO.P,R54,2*%
%TO.N,GND*%
X209029000Y-140190000D03*
%TD*%
D16*
%TO.P,SW_4,1,1*%
%TO.N,KeyRow3*%
X143129000Y-150680000D03*
%TO.P,SW_4,2,2*%
%TO.N,KeyCol1*%
X138129000Y-148580000D03*
%TD*%
D12*
%TO.P,R4,1*%
%TO.N,Net-(U9-QA)*%
X135890000Y-50685000D03*
%TO.P,R4,2*%
%TO.N,Net-(LED1-A)*%
X135890000Y-60845000D03*
%TD*%
%TO.P,R34,1*%
%TO.N,Net-(U12-QG)*%
X173990000Y-50685000D03*
%TO.P,R34,2*%
%TO.N,Net-(LED4-G)*%
X173990000Y-60845000D03*
%TD*%
%TO.P,R46,1*%
%TO.N,Net-(U14-QC)*%
X214630000Y-93865000D03*
%TO.P,R46,2*%
%TO.N,Net-(LED6-C)*%
X214630000Y-83705000D03*
%TD*%
%TO.P,R28,1*%
%TO.N,Net-(U12-QA)*%
X181610000Y-50685000D03*
%TO.P,R28,2*%
%TO.N,Net-(LED4-A)*%
X181610000Y-60845000D03*
%TD*%
D14*
%TO.P,U13,1,QB*%
%TO.N,Net-(U13-QB)*%
X193040000Y-29095000D03*
D15*
%TO.P,U13,2,QC*%
%TO.N,Net-(U13-QC)*%
X193040000Y-31635000D03*
%TO.P,U13,3,QD*%
%TO.N,Net-(U13-QD)*%
X193040000Y-34175000D03*
%TO.P,U13,4,QE*%
%TO.N,Net-(U13-QE)*%
X193040000Y-36715000D03*
%TO.P,U13,5,QF*%
%TO.N,Net-(U13-QF)*%
X193040000Y-39255000D03*
%TO.P,U13,6,QG*%
%TO.N,Net-(U13-QG)*%
X193040000Y-41795000D03*
%TO.P,U13,7,QH*%
%TO.N,Net-(U13-QH)*%
X193040000Y-44335000D03*
%TO.P,U13,8,GND*%
%TO.N,GND*%
X193040000Y-46875000D03*
%TO.P,U13,9,QH'*%
%TO.N,Net-(U13-QH')*%
X200660000Y-46875000D03*
%TO.P,U13,10,~{SRCLR}*%
%TO.N,RESET*%
X200660000Y-44335000D03*
%TO.P,U13,11,SRCLK*%
%TO.N,SPI_CLK*%
X200660000Y-41795000D03*
%TO.P,U13,12,RCLK*%
%TO.N,7Seg_CS*%
X200660000Y-39255000D03*
%TO.P,U13,13,~{OE}*%
%TO.N,7seg_OE*%
X200660000Y-36715000D03*
%TO.P,U13,14,SER*%
%TO.N,Net-(U12-QH')*%
X200660000Y-34175000D03*
%TO.P,U13,15,QA*%
%TO.N,Net-(U13-QA)*%
X200660000Y-31635000D03*
%TO.P,U13,16,VCC*%
%TO.N,VCC*%
X200660000Y-29095000D03*
%TD*%
D12*
%TO.P,R19,1*%
%TO.N,Net-(U10-QH)*%
X153670000Y-93865000D03*
%TO.P,R19,2*%
%TO.N,Net-(LED2-DP)*%
X153670000Y-83705000D03*
%TD*%
D16*
%TO.P,SW_A1,1,1*%
%TO.N,KeyRow4*%
X179451000Y-133535000D03*
%TO.P,SW_A1,2,2*%
%TO.N,KeyCol3*%
X174451000Y-131435000D03*
%TD*%
D12*
%TO.P,R7,1*%
%TO.N,Net-(U9-QD)*%
X130810000Y-93865000D03*
%TO.P,R7,2*%
%TO.N,Net-(LED1-D)*%
X130810000Y-83705000D03*
%TD*%
D19*
%TO.P,R2,1*%
%TO.N,VCC*%
X52070000Y-67644900D03*
%TO.P,R2,2*%
%TO.N,Net-(U1-NMIB)*%
X41910000Y-67644900D03*
%TD*%
D12*
%TO.P,R23,1*%
%TO.N,Net-(U11-QD)*%
X161290000Y-93865000D03*
%TO.P,R23,2*%
%TO.N,Net-(LED3-D)*%
X161290000Y-83705000D03*
%TD*%
%TO.P,R9,1*%
%TO.N,Net-(U9-QF)*%
X130810000Y-50685000D03*
%TO.P,R9,2*%
%TO.N,Net-(LED1-F)*%
X130810000Y-60845000D03*
%TD*%
D10*
%TO.P,C12,1*%
%TO.N,VCC*%
X167580000Y-25285000D03*
D11*
%TO.P,C12,2*%
%TO.N,GND*%
X160080000Y-25285000D03*
%TD*%
D12*
%TO.P,R49,1*%
%TO.N,Net-(U14-QF)*%
X209550000Y-50685000D03*
%TO.P,R49,2*%
%TO.N,Net-(LED6-F)*%
X209550000Y-60845000D03*
%TD*%
%TO.P,R33,1*%
%TO.N,Net-(U12-QF)*%
X176530000Y-50685000D03*
%TO.P,R33,2*%
%TO.N,Net-(LED4-F)*%
X176530000Y-60845000D03*
%TD*%
%TO.P,R26,1*%
%TO.N,Net-(U11-QG)*%
X158750000Y-50685000D03*
%TO.P,R26,2*%
%TO.N,Net-(LED3-G)*%
X158750000Y-60845000D03*
%TD*%
D19*
%TO.P,R57,1*%
%TO.N,SPI_MISO*%
X111760000Y-177800000D03*
%TO.P,R57,2*%
%TO.N,VCC*%
X101600000Y-177800000D03*
%TD*%
D12*
%TO.P,R11,1*%
%TO.N,Net-(U9-QH)*%
X138430000Y-93865000D03*
%TO.P,R11,2*%
%TO.N,Net-(LED1-DP)*%
X138430000Y-83705000D03*
%TD*%
D20*
%TO.P,J3,1,Pin_1*%
%TO.N,VCC*%
X38081200Y-28774500D03*
D21*
%TO.P,J3,2,Pin_2*%
%TO.N,GND*%
X35541200Y-28774500D03*
%TD*%
D10*
%TO.P,C9,1*%
%TO.N,VCC*%
X27940000Y-52130000D03*
D11*
%TO.P,C9,2*%
%TO.N,GND*%
X27940000Y-59630000D03*
%TD*%
D10*
%TO.P,C15,1*%
%TO.N,VCC*%
X215840000Y-25285000D03*
D11*
%TO.P,C15,2*%
%TO.N,GND*%
X208340000Y-25285000D03*
%TD*%
D12*
%TO.P,R35,1*%
%TO.N,Net-(U12-QH)*%
X184150000Y-93865000D03*
%TO.P,R35,2*%
%TO.N,Net-(LED4-DP)*%
X184150000Y-83705000D03*
%TD*%
D17*
%TO.P,U5,1,1A*%
%TO.N,IRQ_A*%
X99055000Y-85080000D03*
D18*
%TO.P,U5,2,1B*%
%TO.N,IRQ_B*%
X101595000Y-85080000D03*
%TO.P,U5,3,NC*%
%TO.N,unconnected-(U5-NC-Pad3)*%
X104135000Y-85080000D03*
%TO.P,U5,4,1C*%
%TO.N,VCC*%
X106675000Y-85080000D03*
%TO.P,U5,5,1D*%
X109215000Y-85080000D03*
%TO.P,U5,6,1Y*%
%TO.N,IRQ*%
X111755000Y-85080000D03*
%TO.P,U5,7,GND*%
%TO.N,GND*%
X114295000Y-85080000D03*
%TO.P,U5,8,2Y*%
%TO.N,unconnected-(U5-2Y-Pad8)*%
X114295000Y-77460000D03*
%TO.P,U5,9,2A*%
%TO.N,VCC*%
X111755000Y-77460000D03*
%TO.P,U5,10,2B*%
X109215000Y-77460000D03*
%TO.P,U5,11,NC*%
%TO.N,unconnected-(U5-NC-Pad11)*%
X106675000Y-77460000D03*
%TO.P,U5,12,2C*%
%TO.N,VCC*%
X104135000Y-77460000D03*
%TO.P,U5,13,2D*%
X101595000Y-77460000D03*
%TO.P,U5,14,VCC*%
X99055000Y-77460000D03*
%TD*%
D16*
%TO.P,SW_E1,1,1*%
%TO.N,KeyRow5*%
X179451000Y-116390000D03*
%TO.P,SW_E1,2,2*%
%TO.N,KeyCol3*%
X174451000Y-114290000D03*
%TD*%
D12*
%TO.P,R51,1*%
%TO.N,Net-(U14-QH)*%
X217170000Y-93865000D03*
%TO.P,R51,2*%
%TO.N,Net-(LED6-DP)*%
X217170000Y-83705000D03*
%TD*%
%TO.P,R52,1*%
%TO.N,KeyRow5*%
X209029000Y-116365000D03*
%TO.P,R52,2*%
%TO.N,GND*%
X209029000Y-106205000D03*
%TD*%
%TO.P,R25,1*%
%TO.N,Net-(U11-QF)*%
X161290000Y-50685000D03*
%TO.P,R25,2*%
%TO.N,Net-(LED3-F)*%
X161290000Y-60845000D03*
%TD*%
%TO.P,R17,1*%
%TO.N,Net-(U10-QF)*%
X146050000Y-50685000D03*
%TO.P,R17,2*%
%TO.N,Net-(LED2-F)*%
X146050000Y-60845000D03*
%TD*%
%TO.P,R5,1*%
%TO.N,Net-(U9-QB)*%
X138430000Y-50685000D03*
%TO.P,R5,2*%
%TO.N,Net-(LED1-B)*%
X138430000Y-60845000D03*
%TD*%
D19*
%TO.P,R58,1*%
%TO.N,VCC*%
X101600000Y-172720000D03*
%TO.P,R58,2*%
%TO.N,SD_Detect*%
X111760000Y-172720000D03*
%TD*%
D12*
%TO.P,R20,1*%
%TO.N,Net-(U11-QA)*%
X166370000Y-50685000D03*
%TO.P,R20,2*%
%TO.N,Net-(LED3-A)*%
X166370000Y-60845000D03*
%TD*%
D20*
%TO.P,J1,1,Pin_1*%
%TO.N,CLOCK*%
X102870000Y-33020000D03*
D21*
%TO.P,J1,2,Pin_2*%
%TO.N,Net-(J1-Pin_2)*%
X105410000Y-33020000D03*
%TD*%
D10*
%TO.P,C13,1*%
%TO.N,VCC*%
X182820000Y-25285000D03*
D11*
%TO.P,C13,2*%
%TO.N,GND*%
X175320000Y-25285000D03*
%TD*%
D17*
%TO.P,U4,1,A14*%
%TO.N,/A14*%
X40650000Y-116820000D03*
D18*
%TO.P,U4,2,A12*%
%TO.N,/A12*%
X43190000Y-116820000D03*
%TO.P,U4,3,A7*%
%TO.N,/A7*%
X45730000Y-116820000D03*
%TO.P,U4,4,A6*%
%TO.N,/A6*%
X48270000Y-116820000D03*
%TO.P,U4,5,A5*%
%TO.N,/A5*%
X50810000Y-116820000D03*
%TO.P,U4,6,A4*%
%TO.N,/A4*%
X53350000Y-116820000D03*
%TO.P,U4,7,A3*%
%TO.N,/A3*%
X55890000Y-116820000D03*
%TO.P,U4,8,A2*%
%TO.N,/A2*%
X58430000Y-116820000D03*
%TO.P,U4,9,A1*%
%TO.N,/A1*%
X60970000Y-116820000D03*
%TO.P,U4,10,A0*%
%TO.N,/A0*%
X63510000Y-116820000D03*
%TO.P,U4,11,D0*%
%TO.N,/D0*%
X66050000Y-116820000D03*
%TO.P,U4,12,D1*%
%TO.N,/D1*%
X68590000Y-116820000D03*
%TO.P,U4,13,D2*%
%TO.N,/D2*%
X71130000Y-116820000D03*
%TO.P,U4,14,GND*%
%TO.N,GND*%
X73670000Y-116820000D03*
%TO.P,U4,15,D3*%
%TO.N,/D3*%
X73670000Y-101580000D03*
%TO.P,U4,16,D4*%
%TO.N,/D4*%
X71130000Y-101580000D03*
%TO.P,U4,17,D5*%
%TO.N,/D5*%
X68590000Y-101580000D03*
%TO.P,U4,18,D6*%
%TO.N,/D6*%
X66050000Y-101580000D03*
%TO.P,U4,19,D7*%
%TO.N,/D7*%
X63510000Y-101580000D03*
%TO.P,U4,20,~{CS}*%
%TO.N,ROM_CS*%
X60970000Y-101580000D03*
%TO.P,U4,21,A10*%
%TO.N,/A10*%
X58430000Y-101580000D03*
%TO.P,U4,22,~{OE}*%
%TO.N,ROM_OE*%
X55890000Y-101580000D03*
%TO.P,U4,23,A11*%
%TO.N,/A11*%
X53350000Y-101580000D03*
%TO.P,U4,24,A9*%
%TO.N,/A9*%
X50810000Y-101580000D03*
%TO.P,U4,25,A8*%
%TO.N,/A8*%
X48270000Y-101580000D03*
%TO.P,U4,26,A13*%
%TO.N,/A13*%
X45730000Y-101580000D03*
%TO.P,U4,27,~{WE}*%
%TO.N,VCC*%
X43190000Y-101580000D03*
%TO.P,U4,28,VCC*%
X40650000Y-101580000D03*
%TD*%
D16*
%TO.P,SW_ENT1,1,1*%
%TO.N,KeyRow1*%
X197612000Y-184970000D03*
%TO.P,SW_ENT1,2,2*%
%TO.N,KeyCol4*%
X192612000Y-182870000D03*
%TD*%
D22*
%TO.P,J4,1,Pin_1*%
%TO.N,VCC*%
X115611141Y-163510000D03*
D12*
%TO.P,J4,2,Pin_2*%
%TO.N,unconnected-(J4-Pin_2-Pad2)*%
X113071141Y-163510000D03*
%TO.P,J4,3,Pin_3*%
%TO.N,GND*%
X110531141Y-163510000D03*
%TO.P,J4,4,Pin_4*%
%TO.N,SPI_CLK*%
X107991141Y-163510000D03*
%TO.P,J4,5,Pin_5*%
%TO.N,SPI_MISO*%
X105451141Y-163510000D03*
%TO.P,J4,6,Pin_6*%
%TO.N,SPI_MOSI*%
X102911141Y-163510000D03*
%TO.P,J4,7,Pin_7*%
%TO.N,SD_Card_CS*%
X100371141Y-163510000D03*
%TO.P,J4,8,Pin_8*%
%TO.N,SD_Detect*%
X97831141Y-163510000D03*
%TD*%
%TO.P,R12,1*%
%TO.N,Net-(U10-QA)*%
X151130000Y-50685000D03*
%TO.P,R12,2*%
%TO.N,Net-(LED2-A)*%
X151130000Y-60845000D03*
%TD*%
D14*
%TO.P,U9,1,QB*%
%TO.N,Net-(U9-QB)*%
X129540000Y-29095000D03*
D15*
%TO.P,U9,2,QC*%
%TO.N,Net-(U9-QC)*%
X129540000Y-31635000D03*
%TO.P,U9,3,QD*%
%TO.N,Net-(U9-QD)*%
X129540000Y-34175000D03*
%TO.P,U9,4,QE*%
%TO.N,Net-(U9-QE)*%
X129540000Y-36715000D03*
%TO.P,U9,5,QF*%
%TO.N,Net-(U9-QF)*%
X129540000Y-39255000D03*
%TO.P,U9,6,QG*%
%TO.N,Net-(U9-QG)*%
X129540000Y-41795000D03*
%TO.P,U9,7,QH*%
%TO.N,Net-(U9-QH)*%
X129540000Y-44335000D03*
%TO.P,U9,8,GND*%
%TO.N,GND*%
X129540000Y-46875000D03*
%TO.P,U9,9,QH'*%
%TO.N,Net-(U10-SER)*%
X137160000Y-46875000D03*
%TO.P,U9,10,~{SRCLR}*%
%TO.N,RESET*%
X137160000Y-44335000D03*
%TO.P,U9,11,SRCLK*%
%TO.N,SPI_CLK*%
X137160000Y-41795000D03*
%TO.P,U9,12,RCLK*%
%TO.N,7Seg_CS*%
X137160000Y-39255000D03*
%TO.P,U9,13,~{OE}*%
%TO.N,7seg_OE*%
X137160000Y-36715000D03*
%TO.P,U9,14,SER*%
%TO.N,SPI_MOSI*%
X137160000Y-34175000D03*
%TO.P,U9,15,QA*%
%TO.N,Net-(U9-QA)*%
X137160000Y-31635000D03*
%TO.P,U9,16,VCC*%
%TO.N,VCC*%
X137160000Y-29095000D03*
%TD*%
D12*
%TO.P,R48,1*%
%TO.N,Net-(U14-QE)*%
X207010000Y-93865000D03*
%TO.P,R48,2*%
%TO.N,Net-(LED6-E)*%
X207010000Y-83705000D03*
%TD*%
D10*
%TO.P,C6,1*%
%TO.N,VCC*%
X93975000Y-49580000D03*
D11*
%TO.P,C6,2*%
%TO.N,GND*%
X93975000Y-57080000D03*
%TD*%
D20*
%TO.P,Display,1,1*%
%TO.N,DisplayPWM*%
X121869200Y-40665400D03*
D21*
%TO.P,Display,2,2*%
%TO.N,7seg_OE*%
X121869200Y-38125400D03*
%TO.P,Display,3,3*%
%TO.N,GND*%
X121869200Y-35585400D03*
%TD*%
D12*
%TO.P,R36,1*%
%TO.N,Net-(U13-QA)*%
X199390000Y-50685000D03*
%TO.P,R36,2*%
%TO.N,Net-(LED5-A)*%
X199390000Y-60845000D03*
%TD*%
%TO.P,R18,1*%
%TO.N,Net-(U10-QG)*%
X143510000Y-50685000D03*
%TO.P,R18,2*%
%TO.N,Net-(LED2-G)*%
X143510000Y-60845000D03*
%TD*%
%TO.P,R47,1*%
%TO.N,Net-(U14-QD)*%
X209550000Y-93865000D03*
%TO.P,R47,2*%
%TO.N,Net-(LED6-D)*%
X209550000Y-83705000D03*
%TD*%
%TO.P,R50,1*%
%TO.N,Net-(U14-QG)*%
X207010000Y-50685000D03*
%TO.P,R50,2*%
%TO.N,Net-(LED6-G)*%
X207010000Y-60845000D03*
%TD*%
D22*
%TO.P,LED3,1,E*%
%TO.N,Net-(LED3-E)*%
X158750000Y-80010000D03*
D12*
%TO.P,LED3,2,D*%
%TO.N,Net-(LED3-D)*%
X161290000Y-80010000D03*
%TO.P,LED3,3,COMC1*%
%TO.N,GND*%
X163830000Y-80010000D03*
%TO.P,LED3,4,C*%
%TO.N,Net-(LED3-C)*%
X166370000Y-80010000D03*
%TO.P,LED3,5,DP*%
%TO.N,Net-(LED3-DP)*%
X168910000Y-80010000D03*
%TO.P,LED3,6,B*%
%TO.N,Net-(LED3-B)*%
X168910000Y-64770000D03*
%TO.P,LED3,7,A*%
%TO.N,Net-(LED3-A)*%
X166370000Y-64770000D03*
%TO.P,LED3,8,COMC2*%
%TO.N,GND*%
X163830000Y-64770000D03*
%TO.P,LED3,9,F*%
%TO.N,Net-(LED3-F)*%
X161290000Y-64770000D03*
%TO.P,LED3,10,G*%
%TO.N,Net-(LED3-G)*%
X158750000Y-64770000D03*
%TD*%
%TO.P,R16,1*%
%TO.N,Net-(U10-QE)*%
X143510000Y-94035000D03*
%TO.P,R16,2*%
%TO.N,Net-(LED2-E)*%
X143510000Y-83875000D03*
%TD*%
D14*
%TO.P,U10,1,QB*%
%TO.N,Net-(U10-QB)*%
X144780000Y-29095000D03*
D15*
%TO.P,U10,2,QC*%
%TO.N,Net-(U10-QC)*%
X144780000Y-31635000D03*
%TO.P,U10,3,QD*%
%TO.N,Net-(U10-QD)*%
X144780000Y-34175000D03*
%TO.P,U10,4,QE*%
%TO.N,Net-(U10-QE)*%
X144780000Y-36715000D03*
%TO.P,U10,5,QF*%
%TO.N,Net-(U10-QF)*%
X144780000Y-39255000D03*
%TO.P,U10,6,QG*%
%TO.N,Net-(U10-QG)*%
X144780000Y-41795000D03*
%TO.P,U10,7,QH*%
%TO.N,Net-(U10-QH)*%
X144780000Y-44335000D03*
%TO.P,U10,8,GND*%
%TO.N,GND*%
X144780000Y-46875000D03*
%TO.P,U10,9,QH'*%
%TO.N,Net-(U10-QH')*%
X152400000Y-46875000D03*
%TO.P,U10,10,~{SRCLR}*%
%TO.N,RESET*%
X152400000Y-44335000D03*
%TO.P,U10,11,SRCLK*%
%TO.N,SPI_CLK*%
X152400000Y-41795000D03*
%TO.P,U10,12,RCLK*%
%TO.N,7Seg_CS*%
X152400000Y-39255000D03*
%TO.P,U10,13,~{OE}*%
%TO.N,7seg_OE*%
X152400000Y-36715000D03*
%TO.P,U10,14,SER*%
%TO.N,Net-(U10-SER)*%
X152400000Y-34175000D03*
%TO.P,U10,15,QA*%
%TO.N,Net-(U10-QA)*%
X152400000Y-31635000D03*
%TO.P,U10,16,VCC*%
%TO.N,VCC*%
X152400000Y-29095000D03*
%TD*%
D14*
%TO.P,U11,1,QB*%
%TO.N,Net-(U11-QB)*%
X160020000Y-29095000D03*
D15*
%TO.P,U11,2,QC*%
%TO.N,Net-(U11-QC)*%
X160020000Y-31635000D03*
%TO.P,U11,3,QD*%
%TO.N,Net-(U11-QD)*%
X160020000Y-34175000D03*
%TO.P,U11,4,QE*%
%TO.N,Net-(U11-QE)*%
X160020000Y-36715000D03*
%TO.P,U11,5,QF*%
%TO.N,Net-(U11-QF)*%
X160020000Y-39255000D03*
%TO.P,U11,6,QG*%
%TO.N,Net-(U11-QG)*%
X160020000Y-41795000D03*
%TO.P,U11,7,QH*%
%TO.N,Net-(U11-QH)*%
X160020000Y-44335000D03*
%TO.P,U11,8,GND*%
%TO.N,GND*%
X160020000Y-46875000D03*
%TO.P,U11,9,QH'*%
%TO.N,Net-(U11-QH')*%
X167640000Y-46875000D03*
%TO.P,U11,10,~{SRCLR}*%
%TO.N,RESET*%
X167640000Y-44335000D03*
%TO.P,U11,11,SRCLK*%
%TO.N,SPI_CLK*%
X167640000Y-41795000D03*
%TO.P,U11,12,RCLK*%
%TO.N,7Seg_CS*%
X167640000Y-39255000D03*
%TO.P,U11,13,~{OE}*%
%TO.N,7seg_OE*%
X167640000Y-36715000D03*
%TO.P,U11,14,SER*%
%TO.N,Net-(U10-QH')*%
X167640000Y-34175000D03*
%TO.P,U11,15,QA*%
%TO.N,Net-(U11-QA)*%
X167640000Y-31635000D03*
%TO.P,U11,16,VCC*%
%TO.N,VCC*%
X167640000Y-29095000D03*
%TD*%
D17*
%TO.P,U6,1,A14*%
%TO.N,/A14*%
X35570000Y-88880000D03*
D18*
%TO.P,U6,2,A12*%
%TO.N,/A12*%
X38110000Y-88880000D03*
%TO.P,U6,3,A7*%
%TO.N,/A7*%
X40650000Y-88880000D03*
%TO.P,U6,4,A6*%
%TO.N,/A6*%
X43190000Y-88880000D03*
%TO.P,U6,5,A5*%
%TO.N,/A5*%
X45730000Y-88880000D03*
%TO.P,U6,6,A4*%
%TO.N,/A4*%
X48270000Y-88880000D03*
%TO.P,U6,7,A3*%
%TO.N,/A3*%
X50810000Y-88880000D03*
%TO.P,U6,8,A2*%
%TO.N,/A2*%
X53350000Y-88880000D03*
%TO.P,U6,9,A1*%
%TO.N,/A1*%
X55890000Y-88880000D03*
%TO.P,U6,10,A0*%
%TO.N,/A0*%
X58430000Y-88880000D03*
%TO.P,U6,11,D0*%
%TO.N,/D0*%
X60970000Y-88880000D03*
%TO.P,U6,12,D1*%
%TO.N,/D1*%
X63510000Y-88880000D03*
%TO.P,U6,13,D2*%
%TO.N,/D2*%
X66050000Y-88880000D03*
%TO.P,U6,14,GND*%
%TO.N,GND*%
X68590000Y-88880000D03*
%TO.P,U6,15,D3*%
%TO.N,/D3*%
X68590000Y-73640000D03*
%TO.P,U6,16,D4*%
%TO.N,/D4*%
X66050000Y-73640000D03*
%TO.P,U6,17,D5*%
%TO.N,/D5*%
X63510000Y-73640000D03*
%TO.P,U6,18,D6*%
%TO.N,/D6*%
X60970000Y-73640000D03*
%TO.P,U6,19,D7*%
%TO.N,/D7*%
X58430000Y-73640000D03*
%TO.P,U6,20,~{CS}*%
%TO.N,RAM_OE*%
X55890000Y-73640000D03*
%TO.P,U6,21,A10*%
%TO.N,/A10*%
X53350000Y-73640000D03*
%TO.P,U6,22,~{OE}*%
%TO.N,RAM_OE*%
X50810000Y-73640000D03*
%TO.P,U6,23,A11*%
%TO.N,/A11*%
X48270000Y-73640000D03*
%TO.P,U6,24,A9*%
%TO.N,/A9*%
X45730000Y-73640000D03*
%TO.P,U6,25,A8*%
%TO.N,/A8*%
X43190000Y-73640000D03*
%TO.P,U6,26,A13*%
%TO.N,/A13*%
X40650000Y-73640000D03*
%TO.P,U6,27,~{WE}*%
%TO.N,RW*%
X38110000Y-73640000D03*
%TO.P,U6,28,VCC*%
%TO.N,VCC*%
X35570000Y-73640000D03*
%TD*%
D16*
%TO.P,SW_6,1,1*%
%TO.N,KeyRow3*%
X179451000Y-150680000D03*
%TO.P,SW_6,2,2*%
%TO.N,KeyCol3*%
X174451000Y-148580000D03*
%TD*%
D12*
%TO.P,R21,1*%
%TO.N,Net-(U11-QB)*%
X168910000Y-50685000D03*
%TO.P,R21,2*%
%TO.N,Net-(LED3-B)*%
X168910000Y-60845000D03*
%TD*%
D17*
%TO.P,U2,1,1A*%
%TO.N,/A15*%
X99055000Y-71110000D03*
D18*
%TO.P,U2,2,1B*%
X101595000Y-71110000D03*
%TO.P,U2,3,1Y*%
%TO.N,ROM_OE*%
X104135000Y-71110000D03*
%TO.P,U2,4,2A*%
%TO.N,CLOCK*%
X106675000Y-71110000D03*
%TO.P,U2,5,2B*%
%TO.N,ROM_OE*%
X109215000Y-71110000D03*
%TO.P,U2,6,2Y*%
%TO.N,RAM_OE*%
X111755000Y-71110000D03*
%TO.P,U2,7,GND*%
%TO.N,GND*%
X114295000Y-71110000D03*
%TO.P,U2,8,3Y*%
%TO.N,IO_CS*%
X114295000Y-63490000D03*
%TO.P,U2,9,3A*%
%TO.N,/A15*%
X111755000Y-63490000D03*
%TO.P,U2,10,3B*%
%TO.N,ROM_CS*%
X109215000Y-63490000D03*
%TO.P,U2,11,4Y*%
%TO.N,unconnected-(U2-4Y-Pad11)*%
X106675000Y-63490000D03*
%TO.P,U2,12,4A*%
%TO.N,VCC*%
X104135000Y-63490000D03*
%TO.P,U2,13,4B*%
X101595000Y-63490000D03*
%TO.P,U2,14,VCC*%
X99055000Y-63490000D03*
%TD*%
D12*
%TO.P,R22,1*%
%TO.N,Net-(U11-QC)*%
X166370000Y-93865000D03*
%TO.P,R22,2*%
%TO.N,Net-(LED3-C)*%
X166370000Y-83705000D03*
%TD*%
D23*
%TO.P,U7,1,GND*%
%TO.N,GND*%
X35560000Y-142240000D03*
D24*
%TO.P,U7,2,PA0*%
%TO.N,Net-(J2-Pin_1)*%
X38100000Y-142240000D03*
%TO.P,U7,3,PA1*%
%TO.N,Net-(J2-Pin_2)*%
X40640000Y-142240000D03*
%TO.P,U7,4,PA2*%
%TO.N,Net-(J2-Pin_3)*%
X43180000Y-142240000D03*
%TO.P,U7,5,PA3*%
%TO.N,Net-(J2-Pin_4)*%
X45720000Y-142240000D03*
%TO.P,U7,6,PA4*%
%TO.N,Net-(J2-Pin_5)*%
X48260000Y-142240000D03*
%TO.P,U7,7,PA5*%
%TO.N,Net-(J2-Pin_6)*%
X50800000Y-142240000D03*
%TO.P,U7,8,PA6*%
%TO.N,Net-(J2-Pin_7)*%
X53340000Y-142240000D03*
%TO.P,U7,9,PA7*%
%TO.N,Net-(J2-Pin_8)*%
X55880000Y-142240000D03*
%TO.P,U7,10,PB0*%
%TO.N,Net-(J2-Pin_9)*%
X58420000Y-142240000D03*
%TO.P,U7,11,PB1*%
%TO.N,Net-(J2-Pin_10)*%
X60960000Y-142240000D03*
%TO.P,U7,12,PB2*%
%TO.N,Net-(J2-Pin_11)*%
X63500000Y-142240000D03*
%TO.P,U7,13,PB3*%
%TO.N,Net-(J2-Pin_12)*%
X66040000Y-142240000D03*
%TO.P,U7,14,PB4*%
%TO.N,Net-(J2-Pin_13)*%
X68580000Y-142240000D03*
%TO.P,U7,15,PB5*%
%TO.N,Net-(J2-Pin_14)*%
X71120000Y-142240000D03*
%TO.P,U7,16,PB6*%
%TO.N,Net-(J2-Pin_15)*%
X73660000Y-142240000D03*
%TO.P,U7,17,PB7*%
%TO.N,Net-(J2-Pin_16)*%
X76200000Y-142240000D03*
%TO.P,U7,18,CB1*%
%TO.N,unconnected-(U7-CB1-Pad18)*%
X78740000Y-142240000D03*
%TO.P,U7,19,CB2*%
%TO.N,unconnected-(U7-CB2-Pad19)*%
X81280000Y-142240000D03*
%TO.P,U7,20,VCC*%
%TO.N,VCC*%
X83820000Y-142240000D03*
%TO.P,U7,21,IRQB*%
%TO.N,IRQ_B*%
X83820000Y-127000000D03*
%TO.P,U7,22,RWB*%
%TO.N,RW*%
X81280000Y-127000000D03*
%TO.P,U7,23,CS2B*%
%TO.N,IO_CS*%
X78740000Y-127000000D03*
%TO.P,U7,24,CS1*%
%TO.N,/A5*%
X76200000Y-127000000D03*
%TO.P,U7,25,PHI2*%
%TO.N,CLOCK*%
X73660000Y-127000000D03*
%TO.P,U7,26,D7*%
%TO.N,/D7*%
X71120000Y-127000000D03*
%TO.P,U7,27,D6*%
%TO.N,/D6*%
X68580000Y-127000000D03*
%TO.P,U7,28,D5*%
%TO.N,/D5*%
X66040000Y-127000000D03*
%TO.P,U7,29,D4*%
%TO.N,/D4*%
X63500000Y-127000000D03*
%TO.P,U7,30,D3*%
%TO.N,/D3*%
X60960000Y-127000000D03*
%TO.P,U7,31,D2*%
%TO.N,/D2*%
X58420000Y-127000000D03*
%TO.P,U7,32,D1*%
%TO.N,/D1*%
X55880000Y-127000000D03*
%TO.P,U7,33,D0*%
%TO.N,/D0*%
X53340000Y-127000000D03*
%TO.P,U7,34,RESB*%
%TO.N,RESET*%
X50800000Y-127000000D03*
%TO.P,U7,35,RS3*%
%TO.N,/A3*%
X48260000Y-127000000D03*
%TO.P,U7,36,RS2*%
%TO.N,/A2*%
X45720000Y-127000000D03*
%TO.P,U7,37,RS1*%
%TO.N,/A1*%
X43180000Y-127000000D03*
%TO.P,U7,38,RS0*%
%TO.N,/A0*%
X40640000Y-127000000D03*
%TO.P,U7,39,CA2*%
%TO.N,unconnected-(U7-CA2-Pad39)*%
X38100000Y-127000000D03*
%TO.P,U7,40,CA1*%
%TO.N,unconnected-(U7-CA1-Pad40)*%
X35560000Y-127000000D03*
%TD*%
D10*
%TO.P,C5,1*%
%TO.N,VCC*%
X111760000Y-96520000D03*
D11*
%TO.P,C5,2*%
%TO.N,GND*%
X104260000Y-96520000D03*
%TD*%
D12*
%TO.P,R13,1*%
%TO.N,Net-(U10-QB)*%
X153670000Y-50685000D03*
%TO.P,R13,2*%
%TO.N,Net-(LED2-B)*%
X153670000Y-60845000D03*
%TD*%
D16*
%TO.P,SW_2,1,1*%
%TO.N,KeyRow2*%
X179451000Y-167825000D03*
%TO.P,SW_2,2,2*%
%TO.N,KeyCol3*%
X174451000Y-165725000D03*
%TD*%
D12*
%TO.P,R43,1*%
%TO.N,Net-(U13-QH)*%
X201930000Y-93865000D03*
%TO.P,R43,2*%
%TO.N,Net-(LED5-DP)*%
X201930000Y-83705000D03*
%TD*%
D16*
%TO.P,SW_8,1,1*%
%TO.N,KeyRow4*%
X143129000Y-133535000D03*
%TO.P,SW_8,2,2*%
%TO.N,KeyCol1*%
X138129000Y-131435000D03*
%TD*%
%TO.P,SW_5,1,1*%
%TO.N,KeyRow3*%
X161290000Y-150680000D03*
%TO.P,SW_5,2,2*%
%TO.N,KeyCol2*%
X156290000Y-148580000D03*
%TD*%
D19*
%TO.P,R3,1*%
%TO.N,VCC*%
X33020000Y-38100000D03*
%TO.P,R3,2*%
%TO.N,RESET_BTN*%
X43180000Y-38100000D03*
%TD*%
D10*
%TO.P,C14,1*%
%TO.N,VCC*%
X200600000Y-25285000D03*
D11*
%TO.P,C14,2*%
%TO.N,GND*%
X193100000Y-25285000D03*
%TD*%
D10*
%TO.P,C11,1*%
%TO.N,VCC*%
X152340000Y-25285000D03*
D11*
%TO.P,C11,2*%
%TO.N,GND*%
X144840000Y-25285000D03*
%TD*%
D22*
%TO.P,LED6,1,E*%
%TO.N,Net-(LED6-E)*%
X207010000Y-80010000D03*
D12*
%TO.P,LED6,2,D*%
%TO.N,Net-(LED6-D)*%
X209550000Y-80010000D03*
%TO.P,LED6,3,COMC1*%
%TO.N,GND*%
X212090000Y-80010000D03*
%TO.P,LED6,4,C*%
%TO.N,Net-(LED6-C)*%
X214630000Y-80010000D03*
%TO.P,LED6,5,DP*%
%TO.N,Net-(LED6-DP)*%
X217170000Y-80010000D03*
%TO.P,LED6,6,B*%
%TO.N,Net-(LED6-B)*%
X217170000Y-64770000D03*
%TO.P,LED6,7,A*%
%TO.N,Net-(LED6-A)*%
X214630000Y-64770000D03*
%TO.P,LED6,8,COMC2*%
%TO.N,GND*%
X212090000Y-64770000D03*
%TO.P,LED6,9,F*%
%TO.N,Net-(LED6-F)*%
X209550000Y-64770000D03*
%TO.P,LED6,10,G*%
%TO.N,Net-(LED6-G)*%
X207010000Y-64770000D03*
%TD*%
%TO.P,R53,1*%
%TO.N,KeyRow4*%
X209029000Y-133705000D03*
%TO.P,R53,2*%
%TO.N,GND*%
X209029000Y-123545000D03*
%TD*%
%TO.P,R40,1*%
%TO.N,Net-(U13-QE)*%
X191770000Y-93865000D03*
%TO.P,R40,2*%
%TO.N,Net-(LED5-E)*%
X191770000Y-83705000D03*
%TD*%
%TO.P,R29,1*%
%TO.N,Net-(U12-QB)*%
X184150000Y-50685000D03*
%TO.P,R29,2*%
%TO.N,Net-(LED4-B)*%
X184150000Y-60845000D03*
%TD*%
D14*
%TO.P,U12,1,QB*%
%TO.N,Net-(U12-QB)*%
X175260000Y-29095000D03*
D15*
%TO.P,U12,2,QC*%
%TO.N,Net-(U12-QC)*%
X175260000Y-31635000D03*
%TO.P,U12,3,QD*%
%TO.N,Net-(U12-QD)*%
X175260000Y-34175000D03*
%TO.P,U12,4,QE*%
%TO.N,Net-(U12-QE)*%
X175260000Y-36715000D03*
%TO.P,U12,5,QF*%
%TO.N,Net-(U12-QF)*%
X175260000Y-39255000D03*
%TO.P,U12,6,QG*%
%TO.N,Net-(U12-QG)*%
X175260000Y-41795000D03*
%TO.P,U12,7,QH*%
%TO.N,Net-(U12-QH)*%
X175260000Y-44335000D03*
%TO.P,U12,8,GND*%
%TO.N,GND*%
X175260000Y-46875000D03*
%TO.P,U12,9,QH'*%
%TO.N,Net-(U12-QH')*%
X182880000Y-46875000D03*
%TO.P,U12,10,~{SRCLR}*%
%TO.N,RESET*%
X182880000Y-44335000D03*
%TO.P,U12,11,SRCLK*%
%TO.N,SPI_CLK*%
X182880000Y-41795000D03*
%TO.P,U12,12,RCLK*%
%TO.N,7Seg_CS*%
X182880000Y-39255000D03*
%TO.P,U12,13,~{OE}*%
%TO.N,7seg_OE*%
X182880000Y-36715000D03*
%TO.P,U12,14,SER*%
%TO.N,Net-(U11-QH')*%
X182880000Y-34175000D03*
%TO.P,U12,15,QA*%
%TO.N,Net-(U12-QA)*%
X182880000Y-31635000D03*
%TO.P,U12,16,VCC*%
%TO.N,VCC*%
X182880000Y-29095000D03*
%TD*%
D16*
%TO.P,SW_1,1,1*%
%TO.N,KeyRow2*%
X161290000Y-167825000D03*
%TO.P,SW_1,2,2*%
%TO.N,KeyCol2*%
X156290000Y-165725000D03*
%TD*%
%TO.P,SW_W1,1,1*%
%TO.N,KeyRow1*%
X161290000Y-184970000D03*
%TO.P,SW_W1,2,2*%
%TO.N,KeyCol2*%
X156290000Y-182870000D03*
%TD*%
D13*
%TO.P,X1,1,NC*%
%TO.N,unconnected-(X1-NC-Pad1)*%
X78740000Y-36830000D03*
D10*
%TO.P,X1,7,GND*%
%TO.N,GND*%
X93980000Y-36830000D03*
%TO.P,X1,8,OUT*%
%TO.N,Net-(J1-Pin_2)*%
X93980000Y-29210000D03*
%TO.P,X1,14,Vcc*%
%TO.N,VCC*%
X78740000Y-29210000D03*
%TD*%
D12*
%TO.P,R6,1*%
%TO.N,Net-(U9-QC)*%
X135890000Y-93865000D03*
%TO.P,R6,2*%
%TO.N,Net-(LED1-C)*%
X135890000Y-83705000D03*
%TD*%
D25*
%TO.P,SW1,1,1*%
%TO.N,GND*%
X60454120Y-28073406D03*
X66954120Y-28073406D03*
%TO.P,SW1,2,2*%
%TO.N,RESET_BTN*%
X60454120Y-32573406D03*
X66954120Y-32573406D03*
%TD*%
D16*
%TO.P,SW_9,1,1*%
%TO.N,KeyRow4*%
X161290000Y-133535000D03*
%TO.P,SW_9,2,2*%
%TO.N,KeyCol2*%
X156290000Y-131435000D03*
%TD*%
D12*
%TO.P,R8,1*%
%TO.N,Net-(U9-QE)*%
X128270000Y-93865000D03*
%TO.P,R8,2*%
%TO.N,Net-(LED1-E)*%
X128270000Y-83705000D03*
%TD*%
%TO.P,R45,1*%
%TO.N,Net-(U14-QB)*%
X217170000Y-50685000D03*
%TO.P,R45,2*%
%TO.N,Net-(LED6-B)*%
X217170000Y-60845000D03*
%TD*%
%TO.P,R15,1*%
%TO.N,Net-(U10-QD)*%
X146050000Y-93950000D03*
%TO.P,R15,2*%
%TO.N,Net-(LED2-D)*%
X146050000Y-83790000D03*
%TD*%
D16*
%TO.P,SW_R1,1,1*%
%TO.N,KeyRow1*%
X143129000Y-184970000D03*
%TO.P,SW_R1,2,2*%
%TO.N,KeyCol1*%
X138129000Y-182870000D03*
%TD*%
D19*
%TO.P,R1,1*%
%TO.N,VCC*%
X27940000Y-67642200D03*
%TO.P,R1,2*%
%TO.N,Net-(U1-RDY)*%
X38100000Y-67642200D03*
%TD*%
D16*
%TO.P,SW_F1,1,1*%
%TO.N,KeyRow5*%
X197612000Y-116390000D03*
%TO.P,SW_F1,2,2*%
%TO.N,KeyCol4*%
X192612000Y-114290000D03*
%TD*%
D12*
%TO.P,R32,1*%
%TO.N,Net-(U12-QE)*%
X173990000Y-93865000D03*
%TO.P,R32,2*%
%TO.N,Net-(LED4-E)*%
X173990000Y-83705000D03*
%TD*%
%TO.P,R56,1*%
%TO.N,KeyRow1*%
X209029000Y-185030000D03*
%TO.P,R56,2*%
%TO.N,GND*%
X209029000Y-174870000D03*
%TD*%
D10*
%TO.P,C7,1*%
%TO.N,VCC*%
X93980000Y-77530000D03*
D11*
%TO.P,C7,2*%
%TO.N,GND*%
X93980000Y-85030000D03*
%TD*%
D10*
%TO.P,C2,1*%
%TO.N,VCC*%
X35023200Y-105485000D03*
D11*
%TO.P,C2,2*%
%TO.N,GND*%
X35023200Y-112985000D03*
%TD*%
D22*
%TO.P,LED5,1,E*%
%TO.N,Net-(LED5-E)*%
X191770000Y-80010000D03*
D12*
%TO.P,LED5,2,D*%
%TO.N,Net-(LED5-D)*%
X194310000Y-80010000D03*
%TO.P,LED5,3,COMC1*%
%TO.N,GND*%
X196850000Y-80010000D03*
%TO.P,LED5,4,C*%
%TO.N,Net-(LED5-C)*%
X199390000Y-80010000D03*
%TO.P,LED5,5,DP*%
%TO.N,Net-(LED5-DP)*%
X201930000Y-80010000D03*
%TO.P,LED5,6,B*%
%TO.N,Net-(LED5-B)*%
X201930000Y-64770000D03*
%TO.P,LED5,7,A*%
%TO.N,Net-(LED5-A)*%
X199390000Y-64770000D03*
%TO.P,LED5,8,COMC2*%
%TO.N,GND*%
X196850000Y-64770000D03*
%TO.P,LED5,9,F*%
%TO.N,Net-(LED5-F)*%
X194310000Y-64770000D03*
%TO.P,LED5,10,G*%
%TO.N,Net-(LED5-G)*%
X191770000Y-64770000D03*
%TD*%
D10*
%TO.P,C3,1*%
%TO.N,VCC*%
X88900000Y-138370000D03*
D11*
%TO.P,C3,2*%
%TO.N,GND*%
X88900000Y-130870000D03*
%TD*%
D12*
%TO.P,R24,1*%
%TO.N,Net-(U11-QE)*%
X158750000Y-93865000D03*
%TO.P,R24,2*%
%TO.N,Net-(LED3-E)*%
X158750000Y-83705000D03*
%TD*%
D10*
%TO.P,C4,1*%
%TO.N,VCC*%
X93980000Y-63560000D03*
D11*
%TO.P,C4,2*%
%TO.N,GND*%
X93980000Y-71060000D03*
%TD*%
D12*
%TO.P,R10,1*%
%TO.N,Net-(U9-QG)*%
X128270000Y-50685000D03*
%TO.P,R10,2*%
%TO.N,Net-(LED1-G)*%
X128270000Y-60845000D03*
%TD*%
D16*
%TO.P,SW_7,1,1*%
%TO.N,KeyRow3*%
X197612000Y-150680000D03*
%TO.P,SW_7,2,2*%
%TO.N,KeyCol4*%
X192612000Y-148580000D03*
%TD*%
D12*
%TO.P,R37,1*%
%TO.N,Net-(U13-QB)*%
X201930000Y-50685000D03*
%TO.P,R37,2*%
%TO.N,Net-(LED5-B)*%
X201930000Y-60845000D03*
%TD*%
%TO.P,R42,1*%
%TO.N,Net-(U13-QG)*%
X191770000Y-50685000D03*
%TO.P,R42,2*%
%TO.N,Net-(LED5-G)*%
X191770000Y-60845000D03*
%TD*%
%TO.P,R30,1*%
%TO.N,Net-(U12-QC)*%
X181610000Y-93865000D03*
%TO.P,R30,2*%
%TO.N,Net-(LED4-C)*%
X181610000Y-83705000D03*
%TD*%
D22*
%TO.P,J2,1,Pin_1*%
%TO.N,Net-(J2-Pin_1)*%
X33020000Y-154940000D03*
D12*
%TO.P,J2,2,Pin_2*%
%TO.N,Net-(J2-Pin_2)*%
X35560000Y-154940000D03*
%TO.P,J2,3,Pin_3*%
%TO.N,Net-(J2-Pin_3)*%
X38100000Y-154940000D03*
%TO.P,J2,4,Pin_4*%
%TO.N,Net-(J2-Pin_4)*%
X40640000Y-154940000D03*
%TO.P,J2,5,Pin_5*%
%TO.N,Net-(J2-Pin_5)*%
X43180000Y-154940000D03*
%TO.P,J2,6,Pin_6*%
%TO.N,Net-(J2-Pin_6)*%
X45720000Y-154940000D03*
%TO.P,J2,7,Pin_7*%
%TO.N,Net-(J2-Pin_7)*%
X48260000Y-154940000D03*
%TO.P,J2,8,Pin_8*%
%TO.N,Net-(J2-Pin_8)*%
X50800000Y-154940000D03*
%TO.P,J2,9,Pin_9*%
%TO.N,Net-(J2-Pin_9)*%
X53340000Y-154940000D03*
%TO.P,J2,10,Pin_10*%
%TO.N,Net-(J2-Pin_10)*%
X55880000Y-154940000D03*
%TO.P,J2,11,Pin_11*%
%TO.N,Net-(J2-Pin_11)*%
X58420000Y-154940000D03*
%TO.P,J2,12,Pin_12*%
%TO.N,Net-(J2-Pin_12)*%
X60960000Y-154940000D03*
%TO.P,J2,13,Pin_13*%
%TO.N,Net-(J2-Pin_13)*%
X63500000Y-154940000D03*
%TO.P,J2,14,Pin_14*%
%TO.N,Net-(J2-Pin_14)*%
X66040000Y-154940000D03*
%TO.P,J2,15,Pin_15*%
%TO.N,Net-(J2-Pin_15)*%
X68580000Y-154940000D03*
%TO.P,J2,16,Pin_16*%
%TO.N,Net-(J2-Pin_16)*%
X71120000Y-154940000D03*
%TO.P,J2,17,Pin_17*%
%TO.N,VCC*%
X73660000Y-154940000D03*
%TO.P,J2,18,Pin_18*%
X76200000Y-154940000D03*
%TO.P,J2,19,Pin_19*%
%TO.N,GND*%
X78740000Y-154940000D03*
%TO.P,J2,20,Pin_20*%
X81280000Y-154940000D03*
%TD*%
D16*
%TO.P,SW_B1,1,1*%
%TO.N,KeyRow4*%
X197612000Y-133535000D03*
%TO.P,SW_B1,2,2*%
%TO.N,KeyCol4*%
X192612000Y-131435000D03*
%TD*%
D22*
%TO.P,LED2,1,E*%
%TO.N,Net-(LED2-E)*%
X143510000Y-80010000D03*
D12*
%TO.P,LED2,2,D*%
%TO.N,Net-(LED2-D)*%
X146050000Y-80010000D03*
%TO.P,LED2,3,COMC1*%
%TO.N,GND*%
X148590000Y-80010000D03*
%TO.P,LED2,4,C*%
%TO.N,Net-(LED2-C)*%
X151130000Y-80010000D03*
%TO.P,LED2,5,DP*%
%TO.N,Net-(LED2-DP)*%
X153670000Y-80010000D03*
%TO.P,LED2,6,B*%
%TO.N,Net-(LED2-B)*%
X153670000Y-64770000D03*
%TO.P,LED2,7,A*%
%TO.N,Net-(LED2-A)*%
X151130000Y-64770000D03*
%TO.P,LED2,8,COMC2*%
%TO.N,GND*%
X148590000Y-64770000D03*
%TO.P,LED2,9,F*%
%TO.N,Net-(LED2-F)*%
X146050000Y-64770000D03*
%TO.P,LED2,10,G*%
%TO.N,Net-(LED2-G)*%
X143510000Y-64770000D03*
%TD*%
D23*
%TO.P,U1,1,VPB*%
%TO.N,unconnected-(U1-VPB-Pad1)*%
X33020000Y-63500000D03*
D24*
%TO.P,U1,2,RDY*%
%TO.N,Net-(U1-RDY)*%
X35560000Y-63500000D03*
%TO.P,U1,3,PHI1O*%
%TO.N,unconnected-(U1-PHI1O-Pad3)*%
X38100000Y-63500000D03*
%TO.P,U1,4,IRQB*%
%TO.N,IRQ*%
X40640000Y-63500000D03*
%TO.P,U1,5,MLB*%
%TO.N,unconnected-(U1-MLB-Pad5)*%
X43180000Y-63500000D03*
%TO.P,U1,6,NMIB*%
%TO.N,Net-(U1-NMIB)*%
X45720000Y-63500000D03*
%TO.P,U1,7,SYNC*%
%TO.N,unconnected-(U1-SYNC-Pad7)*%
X48260000Y-63500000D03*
%TO.P,U1,8,VCC*%
%TO.N,VCC*%
X50800000Y-63500000D03*
%TO.P,U1,9,A0*%
%TO.N,/A0*%
X53340000Y-63500000D03*
%TO.P,U1,10,A1*%
%TO.N,/A1*%
X55880000Y-63500000D03*
%TO.P,U1,11,A2*%
%TO.N,/A2*%
X58420000Y-63500000D03*
%TO.P,U1,12,A3*%
%TO.N,/A3*%
X60960000Y-63500000D03*
%TO.P,U1,13,A4*%
%TO.N,/A4*%
X63500000Y-63500000D03*
%TO.P,U1,14,A5*%
%TO.N,/A5*%
X66040000Y-63500000D03*
%TO.P,U1,15,A6*%
%TO.N,/A6*%
X68580000Y-63500000D03*
%TO.P,U1,16,A7*%
%TO.N,/A7*%
X71120000Y-63500000D03*
%TO.P,U1,17,A8*%
%TO.N,/A8*%
X73660000Y-63500000D03*
%TO.P,U1,18,A9*%
%TO.N,/A9*%
X76200000Y-63500000D03*
%TO.P,U1,19,A10*%
%TO.N,/A10*%
X78740000Y-63500000D03*
%TO.P,U1,20,A11*%
%TO.N,/A11*%
X81280000Y-63500000D03*
%TO.P,U1,21,GND*%
%TO.N,GND*%
X81280000Y-48260000D03*
%TO.P,U1,22,A12*%
%TO.N,/A12*%
X78740000Y-48260000D03*
%TO.P,U1,23,A13*%
%TO.N,/A13*%
X76200000Y-48260000D03*
%TO.P,U1,24,A14*%
%TO.N,/A14*%
X73660000Y-48260000D03*
%TO.P,U1,25,A15*%
%TO.N,/A15*%
X71120000Y-48260000D03*
%TO.P,U1,26,D7*%
%TO.N,/D7*%
X68580000Y-48260000D03*
%TO.P,U1,27,D6*%
%TO.N,/D6*%
X66040000Y-48260000D03*
%TO.P,U1,28,D5*%
%TO.N,/D5*%
X63500000Y-48260000D03*
%TO.P,U1,29,D4*%
%TO.N,/D4*%
X60960000Y-48260000D03*
%TO.P,U1,30,D3*%
%TO.N,/D3*%
X58420000Y-48260000D03*
%TO.P,U1,31,D2*%
%TO.N,/D2*%
X55880000Y-48260000D03*
%TO.P,U1,32,D1*%
%TO.N,/D1*%
X53340000Y-48260000D03*
%TO.P,U1,33,D0*%
%TO.N,/D0*%
X50800000Y-48260000D03*
%TO.P,U1,34,RWB*%
%TO.N,RW*%
X48260000Y-48260000D03*
%TO.P,U1,35,NC*%
%TO.N,unconnected-(U1-NC-Pad35)*%
X45720000Y-48260000D03*
%TO.P,U1,36,BE*%
%TO.N,VCC*%
X43180000Y-48260000D03*
%TO.P,U1,37,PHI2*%
%TO.N,CLOCK*%
X40640000Y-48260000D03*
%TO.P,U1,38,SOB*%
%TO.N,unconnected-(U1-SOB-Pad38)*%
X38100000Y-48260000D03*
%TO.P,U1,39,PHI2O*%
%TO.N,unconnected-(U1-PHI2O-Pad39)*%
X35560000Y-48260000D03*
%TO.P,U1,40,RESB*%
%TO.N,RESET*%
X33020000Y-48260000D03*
%TD*%
D16*
%TO.P,SW_3,1,1*%
%TO.N,KeyRow2*%
X197612000Y-167825000D03*
%TO.P,SW_3,2,2*%
%TO.N,KeyCol4*%
X192612000Y-165725000D03*
%TD*%
%TO.P,SW_0,1,1*%
%TO.N,KeyRow2*%
X143129000Y-167825000D03*
%TO.P,SW_0,2,2*%
%TO.N,KeyCol1*%
X138129000Y-165725000D03*
%TD*%
D12*
%TO.P,R55,1*%
%TO.N,KeyRow2*%
X209029000Y-168130000D03*
%TO.P,R55,2*%
%TO.N,GND*%
X209029000Y-157970000D03*
%TD*%
D22*
%TO.P,LED1,1,E*%
%TO.N,Net-(LED1-E)*%
X128270000Y-80010000D03*
D12*
%TO.P,LED1,2,D*%
%TO.N,Net-(LED1-D)*%
X130810000Y-80010000D03*
%TO.P,LED1,3,COMC1*%
%TO.N,GND*%
X133350000Y-80010000D03*
%TO.P,LED1,4,C*%
%TO.N,Net-(LED1-C)*%
X135890000Y-80010000D03*
%TO.P,LED1,5,DP*%
%TO.N,Net-(LED1-DP)*%
X138430000Y-80010000D03*
%TO.P,LED1,6,B*%
%TO.N,Net-(LED1-B)*%
X138430000Y-64770000D03*
%TO.P,LED1,7,A*%
%TO.N,Net-(LED1-A)*%
X135890000Y-64770000D03*
%TO.P,LED1,8,COMC2*%
%TO.N,GND*%
X133350000Y-64770000D03*
%TO.P,LED1,9,F*%
%TO.N,Net-(LED1-F)*%
X130810000Y-64770000D03*
%TO.P,LED1,10,G*%
%TO.N,Net-(LED1-G)*%
X128270000Y-64770000D03*
%TD*%
D22*
%TO.P,LED4,1,E*%
%TO.N,Net-(LED4-E)*%
X173990000Y-80010000D03*
D12*
%TO.P,LED4,2,D*%
%TO.N,Net-(LED4-D)*%
X176530000Y-80010000D03*
%TO.P,LED4,3,COMC1*%
%TO.N,GND*%
X179070000Y-80010000D03*
%TO.P,LED4,4,C*%
%TO.N,Net-(LED4-C)*%
X181610000Y-80010000D03*
%TO.P,LED4,5,DP*%
%TO.N,Net-(LED4-DP)*%
X184150000Y-80010000D03*
%TO.P,LED4,6,B*%
%TO.N,Net-(LED4-B)*%
X184150000Y-64770000D03*
%TO.P,LED4,7,A*%
%TO.N,Net-(LED4-A)*%
X181610000Y-64770000D03*
%TO.P,LED4,8,COMC2*%
%TO.N,GND*%
X179070000Y-64770000D03*
%TO.P,LED4,9,F*%
%TO.N,Net-(LED4-F)*%
X176530000Y-64770000D03*
%TO.P,LED4,10,G*%
%TO.N,Net-(LED4-G)*%
X173990000Y-64770000D03*
%TD*%
D26*
%TO.P,U8,1,GND*%
%TO.N,GND*%
X115570000Y-151130000D03*
D27*
%TO.P,U8,2,PA0*%
%TO.N,KeyRow1*%
X115570000Y-148590000D03*
%TO.P,U8,3,PA1*%
%TO.N,KeyRow2*%
X115570000Y-146050000D03*
%TO.P,U8,4,PA2*%
%TO.N,KeyRow3*%
X115570000Y-143510000D03*
%TO.P,U8,5,PA3*%
%TO.N,KeyRow4*%
X115570000Y-140970000D03*
%TO.P,U8,6,PA4*%
%TO.N,KeyRow5*%
X115570000Y-138430000D03*
%TO.P,U8,7,PA5*%
%TO.N,unconnected-(U8-PA5-Pad7)*%
X115570000Y-135890000D03*
%TO.P,U8,8,PA6*%
%TO.N,SD_Detect*%
X115570000Y-133350000D03*
%TO.P,U8,9,PA7*%
%TO.N,SPI_MISO*%
X115570000Y-130810000D03*
%TO.P,U8,10,PB0*%
%TO.N,SPI_CLK*%
X115570000Y-128270000D03*
%TO.P,U8,11,PB1*%
%TO.N,SPI_MOSI*%
X115570000Y-125730000D03*
%TO.P,U8,12,PB2*%
%TO.N,7Seg_CS*%
X115570000Y-123190000D03*
%TO.P,U8,13,PB3*%
%TO.N,SD_Card_CS*%
X115570000Y-120650000D03*
%TO.P,U8,14,PB4*%
%TO.N,KeyCol4*%
X115570000Y-118110000D03*
%TO.P,U8,15,PB5*%
%TO.N,KeyCol3*%
X115570000Y-115570000D03*
%TO.P,U8,16,PB6*%
%TO.N,KeyCol2*%
X115570000Y-113030000D03*
%TO.P,U8,17,PB7*%
%TO.N,KeyCol1*%
X115570000Y-110490000D03*
%TO.P,U8,18,CB1*%
%TO.N,unconnected-(U8-CB1-Pad18)*%
X115570000Y-107950000D03*
%TO.P,U8,19,CB2*%
%TO.N,DisplayPWM*%
X115570000Y-105410000D03*
%TO.P,U8,20,VCC*%
%TO.N,VCC*%
X115570000Y-102870000D03*
%TO.P,U8,21,IRQB*%
%TO.N,IRQ_A*%
X100330000Y-102870000D03*
%TO.P,U8,22,RWB*%
%TO.N,RW*%
X100330000Y-105410000D03*
%TO.P,U8,23,CS2B*%
%TO.N,IO_CS*%
X100330000Y-107950000D03*
%TO.P,U8,24,CS1*%
%TO.N,/A4*%
X100330000Y-110490000D03*
%TO.P,U8,25,PHI2*%
%TO.N,CLOCK*%
X100330000Y-113030000D03*
%TO.P,U8,26,D7*%
%TO.N,/D7*%
X100330000Y-115570000D03*
%TO.P,U8,27,D6*%
%TO.N,/D6*%
X100330000Y-118110000D03*
%TO.P,U8,28,D5*%
%TO.N,/D5*%
X100330000Y-120650000D03*
%TO.P,U8,29,D4*%
%TO.N,/D4*%
X100330000Y-123190000D03*
%TO.P,U8,30,D3*%
%TO.N,/D3*%
X100330000Y-125730000D03*
%TO.P,U8,31,D2*%
%TO.N,/D2*%
X100330000Y-128270000D03*
%TO.P,U8,32,D1*%
%TO.N,/D1*%
X100330000Y-130810000D03*
%TO.P,U8,33,D0*%
%TO.N,/D0*%
X100330000Y-133350000D03*
%TO.P,U8,34,RESB*%
%TO.N,RESET*%
X100330000Y-135890000D03*
%TO.P,U8,35,RS3*%
%TO.N,/A3*%
X100330000Y-138430000D03*
%TO.P,U8,36,RS2*%
%TO.N,/A2*%
X100330000Y-140970000D03*
%TO.P,U8,37,RS1*%
%TO.N,/A1*%
X100330000Y-143510000D03*
%TO.P,U8,38,RS0*%
%TO.N,/A0*%
X100330000Y-146050000D03*
%TO.P,U8,39,CA2*%
%TO.N,unconnected-(U8-CA2-Pad39)*%
X100330000Y-148590000D03*
%TO.P,U8,40,CA1*%
%TO.N,unconnected-(U8-CA1-Pad40)*%
X100330000Y-151130000D03*
%TD*%
D12*
%TO.P,R38,1*%
%TO.N,Net-(U13-QC)*%
X199390000Y-93865000D03*
%TO.P,R38,2*%
%TO.N,Net-(LED5-C)*%
X199390000Y-83705000D03*
%TD*%
D10*
%TO.P,C10,1*%
%TO.N,VCC*%
X137100000Y-25285000D03*
D11*
%TO.P,C10,2*%
%TO.N,GND*%
X129600000Y-25285000D03*
%TD*%
D16*
%TO.P,SW_X1,1,1*%
%TO.N,KeyRow1*%
X179451000Y-184970000D03*
%TO.P,SW_X1,2,2*%
%TO.N,KeyCol3*%
X174451000Y-182870000D03*
%TD*%
%TO.P,SW_D1,1,1*%
%TO.N,KeyRow5*%
X161290000Y-116390000D03*
%TO.P,SW_D1,2,2*%
%TO.N,KeyCol2*%
X156290000Y-114290000D03*
%TD*%
D28*
%TO.N,/A0*%
X61964300Y-99873600D03*
%TO.N,/A2*%
X48526300Y-71364200D03*
%TO.N,/A5*%
X62312800Y-68704800D03*
%TO.N,/D7*%
X63588400Y-92149400D03*
X79105600Y-118558100D03*
X59717200Y-58650400D03*
%TO.N,/D6*%
X64780000Y-115710000D03*
%TO.N,/D5*%
X80599600Y-118001000D03*
%TO.N,/D4*%
X75409200Y-95511700D03*
%TO.N,/D3*%
X75960400Y-96374800D03*
%TO.N,/D1*%
X73040900Y-111453800D03*
%TO.N,/D0*%
X66650600Y-112447800D03*
X53903800Y-82801900D03*
%TO.N,ROM_OE*%
X86959800Y-73072500D03*
%TO.N,ROM_CS*%
X88340700Y-70138800D03*
%TO.N,SPI_CLK*%
X178680000Y-37896800D03*
%TD*%
D29*
%TO.N,RESET*%
X146442200Y-48854300D02*
X156293100Y-48854300D01*
X142766600Y-46856400D02*
X143910300Y-48000200D01*
X135054700Y-48266900D02*
X137825800Y-48266900D01*
X156748600Y-49309800D02*
X161762200Y-49309800D01*
X145588100Y-48000200D02*
X146442200Y-48854300D01*
X101595000Y-49520000D02*
X101595000Y-51045100D01*
X200660000Y-44335000D02*
X199134900Y-44335000D01*
X33020000Y-48260000D02*
X33020000Y-50109100D01*
X102610100Y-52060200D02*
X131261400Y-52060200D01*
X33020000Y-50109100D02*
X56399200Y-50109100D01*
X185396500Y-45749800D02*
X185554500Y-45591800D01*
X142766600Y-46856400D02*
X144097400Y-45525600D01*
X167640000Y-44335000D02*
X166114900Y-44335000D01*
X200660000Y-44335000D02*
X202185100Y-44335000D01*
X161762200Y-49309800D02*
X164512600Y-52060200D01*
X137160000Y-44335000D02*
X138685100Y-44335000D01*
X184405100Y-44335000D02*
X185554500Y-45484400D01*
X183113200Y-48633000D02*
X185396500Y-46349700D01*
X47144800Y-128229400D02*
X47144800Y-122474200D01*
X138685100Y-46856400D02*
X142766500Y-46856400D01*
X57150000Y-49358300D02*
X57150000Y-47128600D01*
X215900000Y-44335000D02*
X214374900Y-44335000D01*
X137825800Y-48266900D02*
X138685100Y-47407600D01*
X152400000Y-44335000D02*
X150874900Y-44335000D01*
X185396500Y-46349700D02*
X185396500Y-45749800D01*
X101595000Y-51045100D02*
X102610100Y-52060200D01*
X156293100Y-48854300D02*
X156748600Y-49309800D01*
X138685100Y-46856400D02*
X138685100Y-44335000D01*
X164945900Y-45504000D02*
X166114900Y-44335000D01*
X33020000Y-56303700D02*
X33020000Y-50109100D01*
X56399200Y-50109100D02*
X57150000Y-49358300D01*
X50800000Y-127000000D02*
X50800000Y-128849100D01*
X153162600Y-44335000D02*
X152400000Y-44335000D01*
X213194200Y-43154300D02*
X214374900Y-44335000D01*
X202185100Y-44335000D02*
X203365800Y-43154300D01*
X57150000Y-47128600D02*
X58359900Y-45918700D01*
X182031900Y-48633000D02*
X183113200Y-48633000D01*
X143910300Y-48000200D02*
X145588100Y-48000200D01*
X138685100Y-47407600D02*
X138685100Y-46856400D01*
X44604800Y-119934200D02*
X44604800Y-116208700D01*
X86865800Y-45918700D02*
X91992200Y-51045100D01*
X197985500Y-45484400D02*
X199134900Y-44335000D01*
X149684300Y-45525600D02*
X150874900Y-44335000D01*
X36580400Y-108184300D02*
X36111400Y-108184300D01*
X36111400Y-108184300D02*
X26553700Y-98626600D01*
X153925100Y-44335000D02*
X155094100Y-45504000D01*
X181129900Y-49309800D02*
X181355100Y-49309800D01*
X185554500Y-45591800D02*
X185554500Y-45484400D01*
X142766500Y-46856400D02*
X142766600Y-46856400D01*
X153162600Y-44335000D02*
X153925100Y-44335000D01*
X47144800Y-122474200D02*
X44604800Y-119934200D01*
X144097400Y-45525600D02*
X149684300Y-45525600D01*
X181355100Y-49309800D02*
X182031900Y-48633000D01*
X178379500Y-52060200D02*
X181129900Y-49309800D01*
X155094100Y-45504000D02*
X164945900Y-45504000D01*
X50800000Y-128849100D02*
X47764500Y-128849100D01*
X91992200Y-51045100D02*
X101595000Y-51045100D01*
X203365800Y-43154300D02*
X213194200Y-43154300D01*
X131261400Y-52060200D02*
X135054700Y-48266900D01*
X26553700Y-98626600D02*
X26553700Y-62770000D01*
X185554500Y-45484400D02*
X197985500Y-45484400D01*
X164512600Y-52060200D02*
X178379500Y-52060200D01*
X44604800Y-116208700D02*
X36580400Y-108184300D01*
X47764500Y-128849100D02*
X47144800Y-128229400D01*
X26553700Y-62770000D02*
X33020000Y-56303700D01*
X58359900Y-45918700D02*
X86865800Y-45918700D01*
X182880000Y-44335000D02*
X184405100Y-44335000D01*
D30*
%TO.N,GND*%
X129409900Y-26535100D02*
X121869200Y-34075800D01*
X212090000Y-80010000D02*
X210889900Y-80010000D01*
X114295000Y-85080000D02*
X114295000Y-86730100D01*
X147346300Y-26541200D02*
X157573700Y-26541200D01*
X195606300Y-26541200D02*
X205833700Y-26541200D01*
X88900000Y-130870000D02*
X88900000Y-129564000D01*
X160080000Y-25285000D02*
X161330100Y-25285000D01*
X27940000Y-59630000D02*
X27940000Y-58379900D01*
X134550100Y-80010000D02*
X134550100Y-80685100D01*
X127237300Y-62807500D02*
X126957100Y-62527300D01*
X115555300Y-62355300D02*
X114403500Y-61203400D01*
X193040000Y-46875000D02*
X194690100Y-46875000D01*
X194835000Y-81522500D02*
X195649900Y-80707600D01*
X148590000Y-80010000D02*
X149790100Y-80010000D01*
X134550100Y-80685100D02*
X135375200Y-81510200D01*
X165030100Y-64094900D02*
X165855200Y-63269800D01*
X179070000Y-64770000D02*
X178551100Y-64770000D01*
X196850000Y-64770000D02*
X196850000Y-49034900D01*
X114295000Y-58790100D02*
X114295000Y-61095000D01*
X88900000Y-129564000D02*
X82861100Y-123525100D01*
X161670100Y-46875000D02*
X162930500Y-48135400D01*
X113595900Y-151130000D02*
X111731200Y-152994700D01*
X146090100Y-25285000D02*
X147346300Y-26541200D01*
X159195000Y-46875000D02*
X158369900Y-46875000D01*
X75284900Y-97225000D02*
X82410000Y-97225000D01*
X144840000Y-25285000D02*
X146090100Y-25285000D01*
X129600000Y-26535100D02*
X142339800Y-26535100D01*
X176570100Y-25285000D02*
X177870400Y-23984700D01*
X126957100Y-62527300D02*
X118066400Y-62527300D01*
X181107500Y-81522500D02*
X194835000Y-81522500D01*
X129600000Y-26535100D02*
X129409900Y-26535100D01*
X81280000Y-154940000D02*
X78740000Y-154940000D01*
X29190100Y-57129800D02*
X29190100Y-44948800D01*
X159455000Y-25285000D02*
X160080000Y-25285000D01*
X68590000Y-88880000D02*
X68590000Y-90530100D01*
X196850000Y-49034900D02*
X194690100Y-46875000D01*
X210035300Y-81562200D02*
X208280000Y-81562200D01*
X111731200Y-152994700D02*
X111731200Y-154940000D01*
X180270100Y-80010000D02*
X180270100Y-80685100D01*
X82861100Y-123525100D02*
X78725000Y-123525100D01*
X93980000Y-85655000D02*
X93980000Y-86280100D01*
X150605000Y-81522500D02*
X149790100Y-80707600D01*
X39786700Y-33020000D02*
X49570000Y-33020000D01*
X144840000Y-25285000D02*
X143589900Y-25285000D01*
X172813700Y-26541200D02*
X174069900Y-25285000D01*
X110531100Y-163510000D02*
X111731200Y-163510000D01*
X68590000Y-90530100D02*
X75284900Y-97225000D01*
X132149900Y-64770000D02*
X132149900Y-64072400D01*
X160020000Y-46875000D02*
X161670100Y-46875000D01*
X129600000Y-25285000D02*
X129600000Y-26535100D01*
X198927200Y-81562200D02*
X208280000Y-81562200D01*
X209029000Y-106205000D02*
X209029000Y-104704900D01*
X142339800Y-26535100D02*
X143589900Y-25285000D01*
X78725000Y-123525100D02*
X73670000Y-118470100D01*
X196850000Y-80010000D02*
X195649900Y-80010000D01*
X198050100Y-80010000D02*
X198050100Y-80685100D01*
X146587300Y-81510200D02*
X147389900Y-80707600D01*
X210889900Y-80010000D02*
X210889900Y-80707600D01*
X103009900Y-95310000D02*
X103009900Y-96520000D01*
X159195000Y-46875000D02*
X160020000Y-46875000D01*
X193100000Y-25285000D02*
X191849900Y-25285000D01*
X162629900Y-80010000D02*
X162629900Y-80685100D01*
X208280000Y-103955900D02*
X209029000Y-104704900D01*
X158369900Y-46875000D02*
X157102800Y-48142100D01*
X111731200Y-154940000D02*
X81280000Y-154940000D01*
X105510100Y-95515000D02*
X105510100Y-96520000D01*
X162586300Y-26541200D02*
X172813700Y-26541200D01*
X114295000Y-69459900D02*
X113025100Y-68190000D01*
X114295000Y-57183800D02*
X114295000Y-57140000D01*
X114295000Y-57183800D02*
X114295000Y-58790100D01*
X29190100Y-44948800D02*
X39786700Y-34352200D01*
X114295000Y-71110000D02*
X114295000Y-69459900D01*
X148590000Y-80010000D02*
X147389900Y-80010000D01*
X93980000Y-86280100D02*
X103009900Y-95310000D01*
X114295000Y-61095000D02*
X114403500Y-61203400D01*
X205833700Y-26541200D02*
X207089900Y-25285000D01*
X208340000Y-25285000D02*
X207089900Y-25285000D01*
X194350100Y-25285000D02*
X195606300Y-26541200D01*
X175320000Y-25285000D02*
X174069900Y-25285000D01*
X159455000Y-25285000D02*
X158829900Y-25285000D01*
X177870400Y-23984700D02*
X190549600Y-23984700D01*
X172349500Y-48135400D02*
X173609900Y-46875000D01*
X177050900Y-63269800D02*
X178551100Y-64770000D01*
X113025100Y-62581800D02*
X114403500Y-61203400D01*
X196850000Y-80010000D02*
X198050100Y-80010000D01*
X208280000Y-81562200D02*
X208280000Y-103955900D01*
X210889900Y-80707600D02*
X210035300Y-81562200D01*
X35541200Y-28774500D02*
X39786700Y-33020000D01*
X135375200Y-81510200D02*
X146587300Y-81510200D01*
X104260000Y-96520000D02*
X103009900Y-96520000D01*
X163830000Y-64770000D02*
X165030100Y-64770000D01*
X165855200Y-63269800D02*
X177050900Y-63269800D01*
X117402200Y-62355300D02*
X115555300Y-62355300D01*
X117519300Y-62472400D02*
X117402200Y-62355300D01*
X190549600Y-23984700D02*
X191849900Y-25285000D01*
X73670000Y-116820000D02*
X73670000Y-118470100D01*
X179070000Y-80010000D02*
X180270100Y-80010000D01*
X133350000Y-64770000D02*
X132149900Y-64770000D01*
X27940000Y-58379900D02*
X29190100Y-57129800D01*
X208280000Y-46875000D02*
X206629900Y-46875000D01*
X118011500Y-62472400D02*
X117519300Y-62472400D01*
X66954100Y-28073400D02*
X60454100Y-28073400D01*
X196850000Y-49034900D02*
X204470000Y-49034900D01*
X115570000Y-151130000D02*
X113595900Y-151130000D01*
X113025100Y-68190000D02*
X113025100Y-62581800D01*
X147697200Y-48142100D02*
X146430100Y-46875000D01*
X161330100Y-25285000D02*
X162586300Y-26541200D01*
X149790100Y-80707600D02*
X149790100Y-80010000D01*
X162629900Y-80685100D02*
X161792500Y-81522500D01*
X144780000Y-46875000D02*
X146430100Y-46875000D01*
X175320000Y-25285000D02*
X176570100Y-25285000D01*
X175260000Y-46875000D02*
X173609900Y-46875000D01*
X118066400Y-62527300D02*
X118011500Y-62472400D01*
X204470000Y-49034900D02*
X206629900Y-46875000D01*
X39786700Y-34352200D02*
X39786700Y-33020000D01*
X180270100Y-80685100D02*
X181107500Y-81522500D01*
X82410000Y-97225000D02*
X93980000Y-85655000D01*
X132149900Y-64072400D02*
X130885000Y-62807500D01*
X193100000Y-25285000D02*
X194350100Y-25285000D01*
X195649900Y-80707600D02*
X195649900Y-80010000D01*
X133350000Y-80010000D02*
X134550100Y-80010000D01*
X157573700Y-26541200D02*
X158829900Y-25285000D01*
X121869200Y-34075800D02*
X121869200Y-35585400D01*
X157102800Y-48142100D02*
X147697200Y-48142100D01*
X93980000Y-85030000D02*
X93980000Y-85655000D01*
X163830000Y-80010000D02*
X162629900Y-80010000D01*
X111731200Y-154940000D02*
X111731200Y-163510000D01*
X162930500Y-48135400D02*
X172349500Y-48135400D01*
X114295000Y-86730100D02*
X105510100Y-95515000D01*
X104260000Y-96520000D02*
X105510100Y-96520000D01*
X198050100Y-80685100D02*
X198927200Y-81562200D01*
X147389900Y-80707600D02*
X147389900Y-80010000D01*
X165030100Y-64770000D02*
X165030100Y-64094900D01*
X130885000Y-62807500D02*
X127237300Y-62807500D01*
X161792500Y-81522500D02*
X150605000Y-81522500D01*
D29*
%TO.N,CLOCK*%
X67169100Y-30696500D02*
X52286300Y-30696500D01*
X40640000Y-48260000D02*
X40640000Y-46410900D01*
X50944800Y-36106100D02*
X40640000Y-46410900D01*
X85089700Y-27626100D02*
X70239500Y-27626100D01*
X90483600Y-33020000D02*
X85089700Y-27626100D01*
X50944800Y-32038000D02*
X50944800Y-36106100D01*
X70239500Y-27626100D02*
X67169100Y-30696500D01*
X102870000Y-33020000D02*
X90483600Y-33020000D01*
X52286300Y-30696500D02*
X50944800Y-32038000D01*
D30*
%TO.N,VCC*%
X41168300Y-75290100D02*
X36840000Y-75290100D01*
X112572800Y-173920100D02*
X101600000Y-173920100D01*
X137160000Y-29095000D02*
X138810100Y-29095000D01*
X78740000Y-35137500D02*
X78740000Y-29210000D01*
X32719900Y-75290100D02*
X30480000Y-77530000D01*
X78740000Y-35137500D02*
X54328400Y-35137500D01*
X104135000Y-77460000D02*
X104135000Y-75984900D01*
X101595000Y-63283700D02*
X101595000Y-63077400D01*
X101600000Y-172720000D02*
X101600000Y-173320000D01*
X50800000Y-65474100D02*
X49118100Y-65474100D01*
X215840000Y-28330000D02*
X215840000Y-25285000D01*
X101600000Y-173920100D02*
X101600000Y-177800000D01*
X200660000Y-29095000D02*
X202310100Y-29095000D01*
X101595000Y-77253700D02*
X102863800Y-75984900D01*
X101595000Y-77356800D02*
X101595000Y-77253700D01*
X203560200Y-30345100D02*
X212999800Y-30345100D01*
X101600000Y-173320000D02*
X101600000Y-173920100D01*
X50800000Y-63500000D02*
X50800000Y-65474100D01*
X111755000Y-77460000D02*
X111755000Y-75809900D01*
X101595000Y-63077400D02*
X99055000Y-63077400D01*
X36840000Y-75290100D02*
X35570000Y-75290100D01*
X85715900Y-138370000D02*
X83820000Y-140265900D01*
X215075000Y-29095000D02*
X215840000Y-28330000D01*
X101595000Y-63490000D02*
X101595000Y-63283700D01*
X40650000Y-101580000D02*
X40650000Y-99929900D01*
X49118100Y-65474100D02*
X41920000Y-72672200D01*
X77400100Y-155615100D02*
X94505000Y-172720000D01*
X77400100Y-150634000D02*
X77400100Y-154940000D01*
X140060200Y-30345100D02*
X149499800Y-30345100D01*
X109215000Y-85080000D02*
X109215000Y-77460000D01*
X99055000Y-63490000D02*
X99055000Y-63077400D01*
X109215000Y-77460000D02*
X109215000Y-75809900D01*
X33020000Y-39300100D02*
X27940000Y-44380100D01*
X54328400Y-35137500D02*
X43180000Y-46285900D01*
X88900000Y-138370000D02*
X85715900Y-138370000D01*
X103928700Y-63283700D02*
X104135000Y-63490000D01*
X167640000Y-29095000D02*
X165989900Y-29095000D01*
X41920000Y-74538400D02*
X41168300Y-75290100D01*
X215075000Y-29095000D02*
X214249900Y-29095000D01*
X109215000Y-75809900D02*
X111755000Y-75809900D01*
X212999800Y-30345100D02*
X214249900Y-29095000D01*
X41920000Y-72672200D02*
X41920000Y-74538400D01*
X102863800Y-75984900D02*
X104135000Y-75984900D01*
X101595000Y-77460000D02*
X101595000Y-77356800D01*
X93975000Y-49580000D02*
X79532500Y-35137500D01*
X40650000Y-101580000D02*
X40650000Y-102405000D01*
X99055000Y-77460000D02*
X99055000Y-77408400D01*
X155304600Y-27840500D02*
X164735400Y-27840500D01*
X27940000Y-67642200D02*
X27940000Y-68842300D01*
X202310100Y-29095000D02*
X203560200Y-30345100D01*
X215900000Y-29095000D02*
X215075000Y-29095000D01*
X36840000Y-75290100D02*
X36840000Y-96119900D01*
X32719900Y-73622200D02*
X32719900Y-75290100D01*
X99055000Y-77408400D02*
X99055000Y-77356800D01*
X101595000Y-77356800D02*
X99055000Y-77356800D01*
X115611100Y-163510000D02*
X115611100Y-170881800D01*
X83820000Y-144214100D02*
X77400100Y-150634000D01*
X36840000Y-96119900D02*
X40650000Y-99929900D01*
X104135000Y-75984900D02*
X104310000Y-75809900D01*
X33020000Y-38100000D02*
X33020000Y-39300100D01*
X101595000Y-63283700D02*
X103928700Y-63283700D01*
X94505000Y-172720000D02*
X101600000Y-172720000D01*
X35023200Y-105485000D02*
X37570000Y-105485000D01*
X35570000Y-73640000D02*
X35570000Y-75290100D01*
X76200000Y-154940000D02*
X77400100Y-154940000D01*
X32719900Y-75290100D02*
X35570000Y-75290100D01*
X152400000Y-29095000D02*
X150749900Y-29095000D01*
X27940000Y-44380100D02*
X27940000Y-52130000D01*
X37570000Y-105485000D02*
X40650000Y-102405000D01*
X99055000Y-77408400D02*
X94101600Y-77408400D01*
X77400100Y-154940000D02*
X77400100Y-155615100D01*
X104310000Y-75809900D02*
X109215000Y-75809900D01*
X41475100Y-103230100D02*
X43190000Y-103230100D01*
X40650000Y-102405000D02*
X41475100Y-103230100D01*
X149499800Y-30345100D02*
X150749900Y-29095000D01*
X138810100Y-29095000D02*
X140060200Y-30345100D01*
X43190000Y-101580000D02*
X43190000Y-103230100D01*
X79532500Y-35137500D02*
X78740000Y-35137500D01*
X83820000Y-142240000D02*
X83820000Y-144214100D01*
X154050100Y-29095000D02*
X155304600Y-27840500D01*
X115611100Y-170881800D02*
X112572800Y-173920100D01*
X43180000Y-48260000D02*
X43180000Y-46285900D01*
X94101600Y-77408400D02*
X93980000Y-77530000D01*
X152400000Y-29095000D02*
X154050100Y-29095000D01*
X83820000Y-142240000D02*
X83820000Y-140265900D01*
X164735400Y-27840500D02*
X165989900Y-29095000D01*
X27940000Y-68842300D02*
X32719900Y-73622200D01*
D29*
%TO.N,IRQ*%
X111755000Y-83554900D02*
X112923000Y-82386900D01*
X103699000Y-69549300D02*
X102865000Y-70383300D01*
X89158900Y-72683600D02*
X84137000Y-67661700D01*
X79553700Y-59389800D02*
X42901100Y-59389800D01*
X84137000Y-67661700D02*
X84137000Y-63973100D01*
X111755000Y-85080000D02*
X111755000Y-83554900D01*
X102865000Y-71831300D02*
X102012700Y-72683600D01*
X84137000Y-63973100D02*
X79553700Y-59389800D01*
X42901100Y-59389800D02*
X40640000Y-61650900D01*
X112923000Y-70262100D02*
X112210200Y-69549300D01*
X40640000Y-63500000D02*
X40640000Y-61650900D01*
X102012700Y-72683600D02*
X89158900Y-72683600D01*
X102865000Y-70383300D02*
X102865000Y-71831300D01*
X112923000Y-82386900D02*
X112923000Y-70262100D01*
X112210200Y-69549300D02*
X103699000Y-69549300D01*
%TO.N,/A0*%
X41114100Y-129323200D02*
X40640000Y-128849100D01*
X63510000Y-120632700D02*
X63510000Y-116820000D01*
X58430000Y-88880000D02*
X58430000Y-90405100D01*
X67131900Y-129323200D02*
X41114100Y-129323200D01*
X72428700Y-134620000D02*
X67131900Y-129323200D01*
X61964300Y-99873600D02*
X61964300Y-93939400D01*
X67131900Y-129323200D02*
X67131900Y-124254600D01*
X98480900Y-146050000D02*
X87050900Y-134620000D01*
X67131900Y-124254600D02*
X63510000Y-120632700D01*
X87050900Y-134620000D02*
X72428700Y-134620000D01*
X100330000Y-146050000D02*
X98480900Y-146050000D01*
X40640000Y-127000000D02*
X40640000Y-128849100D01*
X61964300Y-93939400D02*
X58430000Y-90405100D01*
%TO.N,/A1*%
X69860000Y-118153500D02*
X69860000Y-116066100D01*
X77629300Y-125922800D02*
X69860000Y-118153500D01*
X80836500Y-131411100D02*
X77629300Y-128203900D01*
X77629300Y-128203900D02*
X77629300Y-125922800D01*
X69860000Y-116066100D02*
X68286000Y-114492100D01*
X61772800Y-114492100D02*
X60970000Y-115294900D01*
X60970000Y-116820000D02*
X60970000Y-115294900D01*
X68286000Y-114492100D02*
X61772800Y-114492100D01*
X97284600Y-143510000D02*
X85185700Y-131411100D01*
X85185700Y-131411100D02*
X80836500Y-131411100D01*
X100330000Y-143510000D02*
X97284600Y-143510000D01*
%TO.N,/A2*%
X96094600Y-140970000D02*
X100330000Y-140970000D01*
X58420000Y-65349100D02*
X53671300Y-70097800D01*
X72255200Y-115917400D02*
X72255200Y-117904300D01*
X70328500Y-113990700D02*
X72255200Y-115917400D01*
X59734200Y-113990700D02*
X70328500Y-113990700D01*
X72255200Y-117904300D02*
X79850800Y-125499900D01*
X79850800Y-127918000D02*
X81569800Y-129637000D01*
X58430000Y-116820000D02*
X58430000Y-115294900D01*
X58430000Y-115294900D02*
X59734200Y-113990700D01*
X49792700Y-70097800D02*
X48526300Y-71364200D01*
X84761600Y-129637000D02*
X96094600Y-140970000D01*
X79850800Y-125499900D02*
X79850800Y-127918000D01*
X53671300Y-70097800D02*
X49792700Y-70097800D01*
X58420000Y-63500000D02*
X58420000Y-65349100D01*
X81569800Y-129637000D02*
X84761600Y-129637000D01*
%TO.N,/A3*%
X82617600Y-122462300D02*
X81344100Y-122462300D01*
X100330000Y-138430000D02*
X98480900Y-138430000D01*
X51287100Y-70998500D02*
X55310600Y-70998500D01*
X72422300Y-113540500D02*
X57644400Y-113540500D01*
X49540000Y-72745600D02*
X51287100Y-70998500D01*
X55890000Y-116820000D02*
X55890000Y-118345100D01*
X44556300Y-85988600D02*
X49540000Y-81004900D01*
X60960000Y-63500000D02*
X60960000Y-65349100D01*
X55890000Y-118345100D02*
X52875700Y-118345100D01*
X51935200Y-91530300D02*
X50810000Y-90405100D01*
X57644400Y-113540500D02*
X55890000Y-115294900D01*
X49684800Y-123726100D02*
X48260000Y-125150900D01*
X52875700Y-118345100D02*
X52153900Y-117623300D01*
X50810000Y-88880000D02*
X50810000Y-90405100D01*
X98480900Y-138325600D02*
X82617600Y-122462300D01*
X55310600Y-70998500D02*
X60960000Y-65349100D01*
X48260000Y-127000000D02*
X48260000Y-125150900D01*
X51308400Y-115286200D02*
X50329400Y-115286200D01*
X44556300Y-89736600D02*
X44556300Y-85988600D01*
X51308400Y-115286200D02*
X51935200Y-114659400D01*
X51935200Y-114659400D02*
X51935200Y-91530300D01*
X50329400Y-115286200D02*
X49684800Y-115930800D01*
X52153900Y-116131700D02*
X51308400Y-115286200D01*
X98480900Y-138430000D02*
X98480900Y-138325600D01*
X52153900Y-117623300D02*
X52153900Y-116131700D01*
X50810000Y-90405100D02*
X45224800Y-90405100D01*
X55890000Y-116820000D02*
X55890000Y-115294900D01*
X49684800Y-115930800D02*
X49684800Y-123726100D01*
X49540000Y-81004900D02*
X49540000Y-72745600D01*
X45224800Y-90405100D02*
X44556300Y-89736600D01*
X81344100Y-122462300D02*
X72422300Y-113540500D01*
%TO.N,/A4*%
X48270000Y-88880000D02*
X48270000Y-87354900D01*
X87736500Y-110490000D02*
X100330000Y-110490000D01*
X64909000Y-75434100D02*
X67320000Y-77845100D01*
X48270000Y-87354900D02*
X59844800Y-75780100D01*
X63040500Y-71173500D02*
X64909000Y-73042000D01*
X61440200Y-71173500D02*
X63040500Y-71173500D01*
X63040500Y-71173500D02*
X63040500Y-65808600D01*
X63040500Y-65808600D02*
X63500000Y-65349100D01*
X63500000Y-63500000D02*
X63500000Y-65349100D01*
X67320000Y-90073500D02*
X87736500Y-110490000D01*
X67320000Y-77845100D02*
X67320000Y-90073500D01*
X59844800Y-72768900D02*
X61440200Y-71173500D01*
X64909000Y-73042000D02*
X64909000Y-75434100D01*
X59844800Y-75780100D02*
X59844800Y-72768900D01*
%TO.N,/A5*%
X76200000Y-127000000D02*
X76200000Y-125150900D01*
X50810000Y-116820000D02*
X50810000Y-118345100D01*
X51274600Y-118809700D02*
X60974100Y-118809700D01*
X66208500Y-114976000D02*
X67320000Y-116087500D01*
X50810000Y-118345100D02*
X51274600Y-118809700D01*
X60974100Y-118809700D02*
X62240000Y-117543800D01*
X61343400Y-68704800D02*
X62312800Y-68704800D01*
X62240000Y-117543800D02*
X62240000Y-116091300D01*
X67320000Y-117596900D02*
X74874000Y-125150900D01*
X63355300Y-114976000D02*
X66208500Y-114976000D01*
X74874000Y-125150900D02*
X76200000Y-125150900D01*
X45730000Y-88880000D02*
X45730000Y-87354900D01*
X57160000Y-75924900D02*
X57160000Y-72888200D01*
X57160000Y-72888200D02*
X61343400Y-68704800D01*
X45730000Y-87354900D02*
X57160000Y-75924900D01*
X67320000Y-116087500D02*
X67320000Y-117596900D01*
X62240000Y-116091300D02*
X63355300Y-114976000D01*
%TO.N,/A6*%
X49406300Y-96621400D02*
X49406300Y-102933500D01*
X43190000Y-90405100D02*
X49406300Y-96621400D01*
X48270000Y-104069800D02*
X48270000Y-116820000D01*
X43190000Y-88880000D02*
X43190000Y-90405100D01*
X49406300Y-102933500D02*
X48270000Y-104069800D01*
%TO.N,/A7*%
X71120000Y-61650900D02*
X70209200Y-60740100D01*
X47000000Y-81004900D02*
X40650000Y-87354900D01*
X40650000Y-88880000D02*
X40650000Y-87354900D01*
X58838000Y-60740100D02*
X56984800Y-62593300D01*
X70209200Y-60740100D02*
X58838000Y-60740100D01*
X56984800Y-62593300D02*
X56984800Y-64702400D01*
X49697300Y-69156600D02*
X47000000Y-71853900D01*
X47000000Y-71853900D02*
X47000000Y-81004900D01*
X71120000Y-63500000D02*
X71120000Y-61650900D01*
X52530600Y-69156600D02*
X49697300Y-69156600D01*
X56984800Y-64702400D02*
X52530600Y-69156600D01*
%TO.N,/A8*%
X39516000Y-78839100D02*
X39516000Y-91300900D01*
X39516000Y-91300900D02*
X48270000Y-100054900D01*
X73660000Y-63500000D02*
X73660000Y-61650900D01*
X73660000Y-61650900D02*
X71849000Y-59839900D01*
X48270000Y-101580000D02*
X48270000Y-100054900D01*
X43190000Y-73640000D02*
X43190000Y-75165100D01*
X54643000Y-59839900D02*
X51911800Y-62571100D01*
X71849000Y-59839900D02*
X54643000Y-59839900D01*
X43190000Y-75165100D02*
X39516000Y-78839100D01*
X51911800Y-62571100D02*
X51911800Y-65183700D01*
X43455500Y-73640000D02*
X43190000Y-73640000D01*
X51911800Y-65183700D02*
X43455500Y-73640000D01*
%TO.N,/A9*%
X72572800Y-62467000D02*
X70395800Y-60290000D01*
X70395800Y-60290000D02*
X56784800Y-60290000D01*
X72572800Y-64712300D02*
X72572800Y-62467000D01*
X45730000Y-72107600D02*
X45730000Y-73640000D01*
X54610000Y-62464800D02*
X54610000Y-64549900D01*
X76200000Y-65349100D02*
X73209600Y-65349100D01*
X52191600Y-65646000D02*
X45730000Y-72107600D01*
X76200000Y-63500000D02*
X76200000Y-65349100D01*
X53513900Y-65646000D02*
X52191600Y-65646000D01*
X56784800Y-60290000D02*
X54610000Y-62464800D01*
X73209600Y-65349100D02*
X72572800Y-64712300D01*
X54610000Y-64549900D02*
X53513900Y-65646000D01*
%TO.N,/A11*%
X69850000Y-64535300D02*
X69850000Y-62448900D01*
X81280000Y-63500000D02*
X81280000Y-65349100D01*
X59690000Y-62459600D02*
X59690000Y-64731700D01*
X81280000Y-65349100D02*
X80802600Y-65826500D01*
X48270000Y-73640000D02*
X48270000Y-72114900D01*
X53873700Y-70548000D02*
X50473300Y-70548000D01*
X68591300Y-61190200D02*
X60959400Y-61190200D01*
X59690000Y-64731700D02*
X53873700Y-70548000D01*
X60959400Y-61190200D02*
X59690000Y-62459600D01*
X48906400Y-72114900D02*
X48270000Y-72114900D01*
X71141200Y-65826500D02*
X69850000Y-64535300D01*
X69850000Y-62448900D02*
X68591300Y-61190200D01*
X80802600Y-65826500D02*
X71141200Y-65826500D01*
X50473300Y-70548000D02*
X48906400Y-72114900D01*
%TO.N,/A13*%
X39541300Y-71006200D02*
X40650000Y-72114900D01*
X47172100Y-54482100D02*
X39541300Y-62112900D01*
X76200000Y-48260000D02*
X76200000Y-46410900D01*
X76200000Y-48380200D02*
X76200000Y-48260000D01*
X102075100Y-53555000D02*
X104135000Y-55614900D01*
X67233500Y-47254100D02*
X67233500Y-49378900D01*
X39541300Y-62112900D02*
X39541300Y-71006200D01*
X68076700Y-46410900D02*
X67233500Y-47254100D01*
X67233500Y-49378900D02*
X62130300Y-54482100D01*
X76200000Y-48500500D02*
X81254500Y-53555000D01*
X104135000Y-57140000D02*
X104135000Y-55614900D01*
X76200000Y-48380200D02*
X76200000Y-48500500D01*
X76200000Y-46410900D02*
X68076700Y-46410900D01*
X81254500Y-53555000D02*
X102075100Y-53555000D01*
X62130300Y-54482100D02*
X47172100Y-54482100D01*
X40650000Y-73640000D02*
X40650000Y-72114900D01*
%TO.N,/A14*%
X73660000Y-50109100D02*
X79165800Y-55614900D01*
X79165800Y-55614900D02*
X101595000Y-55614900D01*
X101595000Y-57140000D02*
X101595000Y-55614900D01*
X73660000Y-48260000D02*
X73660000Y-50109100D01*
%TO.N,/A15*%
X101595000Y-70347400D02*
X99055000Y-70347400D01*
X86468900Y-69356900D02*
X88033000Y-70921000D01*
X71120000Y-48260000D02*
X71120000Y-50109100D01*
X98607500Y-69899900D02*
X99055000Y-70347400D01*
X88033000Y-70921000D02*
X91608800Y-70921000D01*
X101595000Y-70347400D02*
X106927300Y-65015100D01*
X71120000Y-50109100D02*
X86468900Y-65458000D01*
X99055000Y-71110000D02*
X99055000Y-70347400D01*
X101595000Y-71110000D02*
X101595000Y-70347400D01*
X111755000Y-63490000D02*
X111755000Y-65015100D01*
X86468900Y-65458000D02*
X86468900Y-69356900D01*
X91608800Y-70921000D02*
X92629900Y-69899900D01*
X106927300Y-65015100D02*
X111755000Y-65015100D01*
X92629900Y-69899900D02*
X98607500Y-69899900D01*
%TO.N,/D7*%
X82497300Y-120129400D02*
X94313300Y-131945400D01*
X63510000Y-102342500D02*
X63510000Y-103105100D01*
X78963000Y-118558100D02*
X63510000Y-103105100D01*
X100330000Y-115570000D02*
X102179100Y-115570000D01*
X63510000Y-101580000D02*
X63510000Y-100054900D01*
X68580000Y-50109100D02*
X68258500Y-50109100D01*
X102179100Y-131261600D02*
X102179100Y-115570000D01*
X94313300Y-131945400D02*
X101495300Y-131945400D01*
X101495300Y-131945400D02*
X102179100Y-131261600D01*
X68258500Y-50109100D02*
X59717200Y-58650400D01*
X79105600Y-118558100D02*
X78963000Y-118558100D01*
X63588400Y-99976500D02*
X63588400Y-92149400D01*
X63510000Y-102342500D02*
X63510000Y-101580000D01*
X68580000Y-48260000D02*
X68580000Y-50109100D01*
X63510000Y-100054900D02*
X63588400Y-99976500D01*
X80676900Y-120129400D02*
X82497300Y-120129400D01*
X79105600Y-118558100D02*
X80676900Y-120129400D01*
%TO.N,/D6*%
X64780000Y-118959900D02*
X64780000Y-115710000D01*
X66050000Y-100054900D02*
X66050000Y-93585600D01*
X66050000Y-101580000D02*
X66050000Y-100054900D01*
X62345100Y-76540200D02*
X60970000Y-75165100D01*
X62345100Y-89880700D02*
X62345100Y-76540200D01*
X68580000Y-122759900D02*
X64780000Y-118959900D01*
X60970000Y-73640000D02*
X60970000Y-75165100D01*
X68580000Y-127000000D02*
X68580000Y-122759900D01*
X66050000Y-93585600D02*
X62345100Y-89880700D01*
%TO.N,/D5*%
X68590000Y-101580000D02*
X68590000Y-93956400D01*
X68590000Y-101580000D02*
X68590000Y-103105100D01*
X68590000Y-103105100D02*
X80599600Y-115114700D01*
X80599600Y-115114700D02*
X80599600Y-118001000D01*
X68590000Y-93956400D02*
X64780000Y-90146400D01*
X63510000Y-73640000D02*
X63510000Y-75165100D01*
X64780000Y-76435100D02*
X63510000Y-75165100D01*
X64780000Y-90146400D02*
X64780000Y-76435100D01*
%TO.N,/D4*%
X75409200Y-84524300D02*
X75409200Y-95511700D01*
X66050000Y-75165100D02*
X75409200Y-84524300D01*
X66050000Y-73640000D02*
X66050000Y-75165100D01*
%TO.N,/D3*%
X68590000Y-75165100D02*
X76138100Y-82713200D01*
X76138100Y-82713200D02*
X76138100Y-96197100D01*
X76138100Y-96197100D02*
X75960400Y-96374800D01*
X68590000Y-73640000D02*
X68590000Y-75165100D01*
%TO.N,/D2*%
X98480900Y-128270000D02*
X98480900Y-122836000D01*
X100330000Y-128270000D02*
X98480900Y-128270000D01*
X66050000Y-88880000D02*
X66050000Y-90405100D01*
X98480900Y-122836000D02*
X66050000Y-90405100D01*
%TO.N,/D1*%
X67320000Y-94215100D02*
X67320000Y-105732900D01*
X67320000Y-105732900D02*
X73040900Y-111453800D01*
X63510000Y-88880000D02*
X63510000Y-90405100D01*
X63510000Y-90405100D02*
X67320000Y-94215100D01*
X98480900Y-130810000D02*
X86861400Y-119190500D01*
X80763600Y-119190500D02*
X73040900Y-111467800D01*
X86861400Y-119190500D02*
X80763600Y-119190500D01*
X100330000Y-130810000D02*
X98480900Y-130810000D01*
X73040900Y-111467800D02*
X73040900Y-111453800D01*
%TO.N,/D0*%
X67022300Y-112076100D02*
X66650600Y-112447800D01*
X95042800Y-133350000D02*
X100330000Y-133350000D01*
X60970000Y-87354900D02*
X58456800Y-87354900D01*
X62689400Y-100174000D02*
X62689400Y-92124500D01*
X67022300Y-112076100D02*
X71594600Y-112076100D01*
X60970000Y-89313600D02*
X60970000Y-90405100D01*
X71594600Y-112076100D02*
X80098100Y-120579600D01*
X62689400Y-92124500D02*
X60970000Y-90405100D01*
X67022300Y-112076100D02*
X62384800Y-107438600D01*
X82272400Y-120579600D02*
X95042800Y-133350000D01*
X80098100Y-120579600D02*
X82272400Y-120579600D01*
X62384800Y-107438600D02*
X62384800Y-100478600D01*
X60970000Y-88880000D02*
X60970000Y-87354900D01*
X58456800Y-87354900D02*
X53903800Y-82801900D01*
X60970000Y-89313600D02*
X60970000Y-88880000D01*
X62384800Y-100478600D02*
X62689400Y-100174000D01*
%TO.N,RW*%
X102643600Y-110497500D02*
X102643600Y-138477000D01*
X102643600Y-138477000D02*
X101575000Y-139545600D01*
X99287900Y-109220000D02*
X101366100Y-109220000D01*
X84798000Y-128923200D02*
X83203200Y-128923200D01*
X95420400Y-139545600D02*
X84798000Y-128923200D01*
X101575000Y-139545600D02*
X95420400Y-139545600D01*
X98480900Y-105410000D02*
X98480900Y-108413000D01*
X101366100Y-109220000D02*
X102643600Y-110497500D01*
X100330000Y-105410000D02*
X98480900Y-105410000D01*
X83203200Y-128923200D02*
X81280000Y-127000000D01*
X98480900Y-108413000D02*
X99287900Y-109220000D01*
%TO.N,ROM_OE*%
X104135000Y-71110000D02*
X104135000Y-72635100D01*
X104135000Y-72635100D02*
X109215000Y-72635100D01*
X109215000Y-71110000D02*
X109215000Y-72635100D01*
X87072300Y-73185000D02*
X86959800Y-73072500D01*
X103585100Y-73185000D02*
X87072300Y-73185000D01*
X104135000Y-72635100D02*
X103585100Y-73185000D01*
%TO.N,RAM_OE*%
X110584200Y-73805900D02*
X76572500Y-73805900D01*
X67310000Y-62404700D02*
X66545600Y-61640300D01*
X111755000Y-72635100D02*
X110584200Y-73805900D01*
X50810000Y-73640000D02*
X50810000Y-72114900D01*
X55777500Y-72114900D02*
X50810000Y-72114900D01*
X66545600Y-61640300D02*
X63056600Y-61640300D01*
X67310000Y-64543400D02*
X67310000Y-62404700D01*
X62389300Y-62307600D02*
X62389300Y-65728100D01*
X111755000Y-71110000D02*
X111755000Y-72635100D01*
X55890000Y-72227400D02*
X55777500Y-72114900D01*
X62389300Y-65728100D02*
X55890000Y-72227400D01*
X63056600Y-61640300D02*
X62389300Y-62307600D01*
X55890000Y-73640000D02*
X55890000Y-72227400D01*
X76572500Y-73805900D02*
X67310000Y-64543400D01*
%TO.N,IO_CS*%
X115472300Y-66192400D02*
X115472300Y-95606800D01*
X103129100Y-107950000D02*
X102179100Y-107950000D01*
X78740000Y-127445000D02*
X78740000Y-127000000D01*
X96469500Y-142058300D02*
X84842900Y-130431700D01*
X114295000Y-65015100D02*
X115472300Y-66192400D01*
X103129100Y-107950000D02*
X103129100Y-140473300D01*
X114295000Y-63490000D02*
X114295000Y-65015100D01*
X101544100Y-142058300D02*
X96469500Y-142058300D01*
X84842900Y-130431700D02*
X81726700Y-130431700D01*
X81726700Y-130431700D02*
X78740000Y-127445000D01*
X115472300Y-95606800D02*
X103129100Y-107950000D01*
X103129100Y-140473300D02*
X101544100Y-142058300D01*
X100330000Y-107950000D02*
X102179100Y-107950000D01*
%TO.N,ROM_CS*%
X88997400Y-70138800D02*
X88340700Y-70138800D01*
X109215000Y-63490000D02*
X109215000Y-61964900D01*
X102354800Y-61964900D02*
X109215000Y-61964900D01*
X99055000Y-57140000D02*
X99055000Y-58665100D01*
X99055000Y-58665100D02*
X99055000Y-60081200D01*
X99055000Y-58665100D02*
X102354800Y-61964900D01*
X99055000Y-60081200D02*
X88997400Y-70138800D01*
%TO.N,Net-(U3-3Y)*%
X106675000Y-48757400D02*
X107437500Y-47994900D01*
X104135000Y-49520000D02*
X104135000Y-47994900D01*
X109215000Y-49520000D02*
X109215000Y-47994900D01*
X106675000Y-48757400D02*
X106675000Y-47994900D01*
X107437500Y-47994900D02*
X109215000Y-47994900D01*
X104135000Y-47994900D02*
X106675000Y-47994900D01*
X106675000Y-49520000D02*
X106675000Y-48757400D01*
%TO.N,SD_Detect*%
X98906200Y-163882800D02*
X98906200Y-163510000D01*
X111760000Y-172720000D02*
X107743400Y-172720000D01*
X97831100Y-163510000D02*
X98906200Y-163510000D01*
X107743400Y-172720000D02*
X98906200Y-163882800D01*
%TO.N,Net-(J1-Pin_2)*%
X101600000Y-29210000D02*
X105410000Y-33020000D01*
X93980000Y-29210000D02*
X101600000Y-29210000D01*
%TO.N,Net-(U10-SER)*%
X137160000Y-46875000D02*
X135634900Y-46875000D01*
X150874900Y-34175000D02*
X147209700Y-37840200D01*
X147209700Y-37840200D02*
X136570500Y-37840200D01*
X152400000Y-34175000D02*
X150874900Y-34175000D01*
X135634900Y-38775800D02*
X135634900Y-46875000D01*
X136570500Y-37840200D02*
X135634900Y-38775800D01*
%TO.N,Net-(U11-QH')*%
X182880000Y-34175000D02*
X181354900Y-34175000D01*
X181354900Y-34175000D02*
X180722100Y-34807800D01*
X174519400Y-40525000D02*
X169165100Y-45879300D01*
X177086300Y-40525000D02*
X174519400Y-40525000D01*
X180722100Y-36889200D02*
X177086300Y-40525000D01*
X169165100Y-45879300D02*
X169165100Y-46875000D01*
X180722100Y-34807800D02*
X180722100Y-36889200D01*
X167640000Y-46875000D02*
X169165100Y-46875000D01*
%TO.N,Net-(U13-QH')*%
X200660000Y-46875000D02*
X202185100Y-46875000D01*
X217425100Y-44829300D02*
X217425100Y-34175000D01*
X215900000Y-34175000D02*
X217425100Y-34175000D01*
X216649400Y-45605000D02*
X217425100Y-44829300D01*
X202185100Y-46875000D02*
X203455100Y-45605000D01*
X203455100Y-45605000D02*
X216649400Y-45605000D01*
%TO.N,SPI_CLK*%
X149725500Y-42944400D02*
X150874900Y-41795000D01*
X185584800Y-42974700D02*
X197955200Y-42974700D01*
X173063300Y-37896800D02*
X178680000Y-37896800D01*
X137160000Y-41795000D02*
X138685100Y-41795000D01*
X215900000Y-41795000D02*
X214374900Y-41795000D01*
X203334500Y-40645600D02*
X213225500Y-40645600D01*
X182880000Y-41795000D02*
X184405100Y-41795000D01*
X167640000Y-41795000D02*
X166114900Y-41795000D01*
X167640000Y-41795000D02*
X169165100Y-41795000D01*
X200660000Y-41795000D02*
X202185100Y-41795000D01*
X153925100Y-41795000D02*
X155115600Y-40604500D01*
X200660000Y-41795000D02*
X199134900Y-41795000D01*
X184405100Y-41795000D02*
X185584800Y-42974700D01*
X197955200Y-42974700D02*
X199134900Y-41795000D01*
X213225500Y-40645600D02*
X214374900Y-41795000D01*
X138685100Y-41795000D02*
X139834500Y-42944400D01*
X202185100Y-41795000D02*
X203334500Y-40645600D01*
X139834500Y-42944400D02*
X149725500Y-42944400D01*
X152400000Y-41795000D02*
X153925100Y-41795000D01*
X169165100Y-41795000D02*
X173063300Y-37896800D01*
X164924400Y-40604500D02*
X166114900Y-41795000D01*
X155115600Y-40604500D02*
X164924400Y-40604500D01*
X152400000Y-41795000D02*
X150874900Y-41795000D01*
%TO.N,7seg_OE*%
X182880000Y-36715000D02*
X184405100Y-36715000D01*
X215900000Y-36715000D02*
X214374900Y-36715000D01*
X167640000Y-36715000D02*
X169165100Y-36715000D01*
X142406500Y-32993600D02*
X153226000Y-32993600D01*
X213225500Y-35565600D02*
X214374900Y-36715000D01*
X200660000Y-36715000D02*
X202185100Y-36715000D01*
X121869200Y-38125400D02*
X134224500Y-38125400D01*
X155074500Y-35565600D02*
X153925100Y-36715000D01*
X134224500Y-38125400D02*
X135634900Y-36715000D01*
X203334500Y-35565600D02*
X213225500Y-35565600D01*
X155074500Y-34842100D02*
X155074500Y-35565600D01*
X184943100Y-35536500D02*
X184943100Y-36177000D01*
X153226000Y-32993600D02*
X155074500Y-34842100D01*
X137160000Y-36715000D02*
X138685100Y-36715000D01*
X152400000Y-36715000D02*
X153925100Y-36715000D01*
X167640000Y-36715000D02*
X166114900Y-36715000D01*
X137160000Y-36715000D02*
X135634900Y-36715000D01*
X184943100Y-31661200D02*
X184943100Y-35536500D01*
X202185100Y-36715000D02*
X203334500Y-35565600D01*
X138685100Y-36715000D02*
X142406500Y-32993600D01*
X174378800Y-30452800D02*
X183734700Y-30452800D01*
X164965500Y-35565600D02*
X166114900Y-36715000D01*
X155074500Y-35565600D02*
X164965500Y-35565600D01*
X183734700Y-30452800D02*
X184943100Y-31661200D01*
X199134900Y-36715000D02*
X197956400Y-35536500D01*
X169165100Y-36715000D02*
X169165100Y-35666500D01*
X197956400Y-35536500D02*
X184943100Y-35536500D01*
X169165100Y-35666500D02*
X174378800Y-30452800D01*
X200660000Y-36715000D02*
X199134900Y-36715000D01*
X184943100Y-36177000D02*
X184405100Y-36715000D01*
%TO.N,KeyRow5*%
X207928900Y-116390000D02*
X197612000Y-116390000D01*
X209029000Y-116365000D02*
X207953900Y-116365000D01*
X207953900Y-116365000D02*
X207928900Y-116390000D01*
X161290000Y-116390000D02*
X143129000Y-116390000D01*
%TO.N,KeyRow4*%
X135694000Y-140970000D02*
X143129000Y-133535000D01*
X115570000Y-140970000D02*
X135694000Y-140970000D01*
X179451000Y-133535000D02*
X197612000Y-133535000D01*
X143129000Y-133535000D02*
X161290000Y-133535000D01*
X197782000Y-133705000D02*
X207953900Y-133705000D01*
X161290000Y-133535000D02*
X179451000Y-133535000D01*
X209029000Y-133705000D02*
X207953900Y-133705000D01*
X197612000Y-133535000D02*
X197782000Y-133705000D01*
%TO.N,KeyRow3*%
X179451000Y-150680000D02*
X197612000Y-150680000D01*
X143129000Y-150680000D02*
X161290000Y-150680000D01*
X209029000Y-150350000D02*
X207953900Y-150350000D01*
X115570000Y-143510000D02*
X117419100Y-143510000D01*
X197612000Y-150680000D02*
X207623900Y-150680000D01*
X161290000Y-150680000D02*
X179451000Y-150680000D01*
X207623900Y-150680000D02*
X207953900Y-150350000D01*
X124589100Y-150680000D02*
X143129000Y-150680000D01*
X117419100Y-143510000D02*
X124589100Y-150680000D01*
%TO.N,KeyRow2*%
X117419100Y-146050000D02*
X117419100Y-147019700D01*
X179451000Y-167825000D02*
X197612000Y-167825000D01*
X143129000Y-167825000D02*
X161290000Y-167825000D01*
X209029000Y-168130000D02*
X207953900Y-168130000D01*
X115570000Y-146050000D02*
X117419100Y-146050000D01*
X161290000Y-167825000D02*
X179451000Y-167825000D01*
X207648900Y-167825000D02*
X207953900Y-168130000D01*
X117419100Y-147019700D02*
X138224400Y-167825000D01*
X197612000Y-167825000D02*
X207648900Y-167825000D01*
X138224400Y-167825000D02*
X143129000Y-167825000D01*
%TO.N,KeyRow1*%
X115570000Y-148590000D02*
X117419100Y-148590000D01*
X140925300Y-182766300D02*
X143129000Y-184970000D01*
X143129000Y-184970000D02*
X161290000Y-184970000D01*
X197612000Y-184970000D02*
X197672000Y-185030000D01*
X140925300Y-172096200D02*
X140925300Y-182766300D01*
X179451000Y-184970000D02*
X197612000Y-184970000D01*
X197672000Y-185030000D02*
X209029000Y-185030000D01*
X117419100Y-148590000D02*
X140925300Y-172096200D01*
X161290000Y-184970000D02*
X179451000Y-184970000D01*
%TO.N,KeyCol1*%
X115570000Y-110490000D02*
X117419100Y-110490000D01*
X121219100Y-114290000D02*
X138129000Y-114290000D01*
X117419100Y-110490000D02*
X121219100Y-114290000D01*
%TO.N,KeyCol2*%
X115570000Y-113030000D02*
X117419100Y-113030000D01*
X140798600Y-115684300D02*
X120073400Y-115684300D01*
X156290000Y-114290000D02*
X142192900Y-114290000D01*
X120073400Y-115684300D02*
X117419100Y-113030000D01*
X142192900Y-114290000D02*
X140798600Y-115684300D01*
%TO.N,KeyCol3*%
X170946000Y-117795000D02*
X174451000Y-114290000D01*
X117419100Y-115570000D02*
X119644100Y-117795000D01*
X115570000Y-115570000D02*
X117419100Y-115570000D01*
X119644100Y-117795000D02*
X170946000Y-117795000D01*
%TO.N,KeyCol4*%
X188617900Y-118284100D02*
X192612000Y-114290000D01*
X117593200Y-118284100D02*
X188617900Y-118284100D01*
X188617900Y-127440900D02*
X188617900Y-118284100D01*
X115570000Y-118110000D02*
X117419100Y-118110000D01*
X117419100Y-118110000D02*
X117593200Y-118284100D01*
X192612000Y-131435000D02*
X188617900Y-127440900D01*
%TO.N,Net-(U1-RDY)*%
X35560000Y-65349100D02*
X36882000Y-65349100D01*
X38100000Y-67642200D02*
X38100000Y-66567100D01*
X35560000Y-63500000D02*
X35560000Y-65349100D01*
X36882000Y-65349100D02*
X38100000Y-66567100D01*
%TO.N,Net-(U1-NMIB)*%
X45720000Y-65349100D02*
X43130700Y-65349100D01*
X45720000Y-63500000D02*
X45720000Y-65349100D01*
X43130700Y-65349100D02*
X41910000Y-66569800D01*
X41910000Y-67644900D02*
X41910000Y-66569800D01*
%TO.N,RESET_BTN*%
X112517500Y-47994900D02*
X114295000Y-47994900D01*
X114295000Y-49520000D02*
X114295000Y-47994900D01*
X66954100Y-32573400D02*
X53641700Y-32573400D01*
X111755000Y-48757400D02*
X108717600Y-45720000D01*
X99250500Y-45720000D02*
X81606800Y-28076300D01*
X53641700Y-32573400D02*
X53195100Y-33020000D01*
X111755000Y-48757400D02*
X112517500Y-47994900D01*
X111755000Y-49520000D02*
X111755000Y-48757400D01*
X71451200Y-28076300D02*
X66954100Y-32573400D01*
X108717600Y-45720000D02*
X99250500Y-45720000D01*
X81606800Y-28076300D02*
X71451200Y-28076300D01*
X53195100Y-33020000D02*
X52070000Y-33020000D01*
%TO.N,Net-(U9-QF)*%
X131065100Y-39255000D02*
X131065100Y-49054800D01*
X131065100Y-49054800D02*
X130810000Y-49309900D01*
X129540000Y-39255000D02*
X131065100Y-39255000D01*
X130810000Y-50685000D02*
X130810000Y-49309900D01*
%TO.N,Net-(U9-QG)*%
X128270000Y-50685000D02*
X128270000Y-49309900D01*
X129540000Y-41795000D02*
X128014900Y-41795000D01*
X128014900Y-49054800D02*
X128270000Y-49309900D01*
X128014900Y-41795000D02*
X128014900Y-49054800D01*
%TO.N,Net-(U12-QG)*%
X173990000Y-50685000D02*
X175065100Y-50685000D01*
X175260000Y-41795000D02*
X176785100Y-41795000D01*
X176785100Y-47889900D02*
X175065100Y-49609900D01*
X176785100Y-41795000D02*
X176785100Y-47889900D01*
X175065100Y-49609900D02*
X175065100Y-50685000D01*
%TO.N,7Seg_CS*%
X182117500Y-39255000D02*
X182880000Y-39255000D01*
X182880000Y-39255000D02*
X184405100Y-39255000D01*
X184452500Y-33737200D02*
X183753900Y-33038600D01*
X152400000Y-39255000D02*
X153925100Y-39255000D01*
X184405100Y-39255000D02*
X185570600Y-40420500D01*
X137160000Y-39255000D02*
X138685100Y-39255000D01*
X215900000Y-39255000D02*
X214374900Y-39255000D01*
X185570600Y-40420500D02*
X197969400Y-40420500D01*
X167640000Y-39255000D02*
X166114900Y-39255000D01*
X181354900Y-39255000D02*
X181354900Y-36187900D01*
X203314100Y-38126000D02*
X213245900Y-38126000D01*
X138685100Y-39255000D02*
X139842000Y-40411900D01*
X200660000Y-39255000D02*
X202185100Y-39255000D01*
X155055600Y-38124500D02*
X164984400Y-38124500D01*
X139842000Y-40411900D02*
X149718000Y-40411900D01*
X152400000Y-39255000D02*
X150874900Y-39255000D01*
X181354900Y-36187900D02*
X182097800Y-35445000D01*
X182097800Y-35445000D02*
X183643100Y-35445000D01*
X164984400Y-38124500D02*
X166114900Y-39255000D01*
X213245900Y-38126000D02*
X214374900Y-39255000D01*
X184452500Y-34635600D02*
X184452500Y-33737200D01*
X149718000Y-40411900D02*
X150874900Y-39255000D01*
X177589900Y-35445000D02*
X172975100Y-35445000D01*
X182117500Y-39255000D02*
X181354900Y-39255000D01*
X202185100Y-39255000D02*
X203314100Y-38126000D01*
X153925100Y-39255000D02*
X155055600Y-38124500D01*
X183643100Y-35445000D02*
X184452500Y-34635600D01*
X167640000Y-39255000D02*
X169165100Y-39255000D01*
X172975100Y-35445000D02*
X169165100Y-39255000D01*
X183753900Y-33038600D02*
X179996300Y-33038600D01*
X179996300Y-33038600D02*
X177589900Y-35445000D01*
X197969400Y-40420500D02*
X199134900Y-39255000D01*
X200660000Y-39255000D02*
X199134900Y-39255000D01*
%TD*%
M02*
